<svg width="98" height="86" viewBox="0 0 98 86" fill="none" xmlns="http://www.w3.org/2000/svg">
<rect x="0.5" y="0.5" width="97" height="85" rx="7.5" stroke="#E9E9E9"/>
<path d="M30.6409 76.1C30.1409 76.1 29.6776 76.01 29.2509 75.83C28.8242 75.6433 28.4509 75.3867 28.1309 75.06C27.8176 74.7333 27.5742 74.3533 27.4009 73.92C27.2276 73.4867 27.1409 73.0233 27.1409 72.53C27.1409 72.03 27.2276 71.5633 27.4009 71.13C27.5742 70.6967 27.8176 70.32 28.1309 70C28.4509 69.6733 28.8209 69.42 29.2409 69.24C29.6676 69.0533 30.1309 68.96 30.6309 68.96C31.1776 68.96 31.6576 69.0533 32.0709 69.24C32.4842 69.4267 32.8509 69.68 33.1709 70L32.5209 70.65C32.3009 70.4033 32.0309 70.21 31.7109 70.07C31.3976 69.93 31.0376 69.86 30.6309 69.86C30.2642 69.86 29.9276 69.9267 29.6209 70.06C29.3142 70.1867 29.0476 70.37 28.8209 70.61C28.5942 70.85 28.4176 71.1333 28.2909 71.46C28.1709 71.7867 28.1109 72.1433 28.1109 72.53C28.1109 72.9167 28.1709 73.2733 28.2909 73.6C28.4176 73.9267 28.5942 74.21 28.8209 74.45C29.0476 74.69 29.3142 74.8767 29.6209 75.01C29.9276 75.1367 30.2642 75.2 30.6309 75.2C31.0642 75.2 31.4409 75.13 31.7609 74.99C32.0809 74.8433 32.3509 74.6467 32.5709 74.4L33.2209 75.04C32.9009 75.3733 32.5242 75.6333 32.0909 75.82C31.6642 76.0067 31.1809 76.1 30.6409 76.1ZM36.0696 76.1C35.6363 76.1 35.243 75.9933 34.8896 75.78C34.5363 75.56 34.2563 75.2633 34.0496 74.89C33.8496 74.5167 33.7496 74.0967 33.7496 73.63C33.7496 73.1633 33.8496 72.7433 34.0496 72.37C34.2563 71.9967 34.533 71.7 34.8796 71.48C35.233 71.26 35.6296 71.15 36.0696 71.15C36.4296 71.15 36.7496 71.2267 37.0296 71.38C37.3163 71.5267 37.5463 71.7333 37.7196 72C37.893 72.26 37.9896 72.5633 38.0096 72.91V74.34C37.9896 74.68 37.893 74.9833 37.7196 75.25C37.553 75.5167 37.3263 75.7267 37.0396 75.88C36.7596 76.0267 36.4363 76.1 36.0696 76.1ZM36.2196 75.25C36.6663 75.25 37.0263 75.1 37.2996 74.8C37.573 74.4933 37.7096 74.1033 37.7096 73.63C37.7096 73.3033 37.6463 73.02 37.5196 72.78C37.3996 72.5333 37.2263 72.3433 36.9996 72.21C36.773 72.07 36.5096 72 36.2096 72C35.9096 72 35.643 72.07 35.4096 72.21C35.183 72.35 35.003 72.5433 34.8696 72.79C34.743 73.03 34.6796 73.3067 34.6796 73.62C34.6796 73.94 34.743 74.2233 34.8696 74.47C35.003 74.71 35.1863 74.9 35.4196 75.04C35.653 75.18 35.9196 75.25 36.2196 75.25ZM37.6496 76V74.72L37.8196 73.56L37.6496 72.41V71.25H38.5596V76H37.6496ZM39.87 76V71.25H40.77V76H39.87ZM40.77 73.29L40.43 73.14C40.43 72.5333 40.57 72.05 40.85 71.69C41.13 71.33 41.5333 71.15 42.06 71.15C42.3 71.15 42.5166 71.1933 42.71 71.28C42.9033 71.36 43.0833 71.4967 43.25 71.69L42.66 72.3C42.56 72.1933 42.45 72.1167 42.33 72.07C42.21 72.0233 42.07 72 41.91 72C41.5766 72 41.3033 72.1067 41.09 72.32C40.8766 72.5333 40.77 72.8567 40.77 73.29ZM43.8936 76V71.25H44.7936V76H43.8936ZM44.3436 70.3C44.177 70.3 44.0403 70.2467 43.9336 70.14C43.827 70.0267 43.7736 69.8867 43.7736 69.72C43.7736 69.56 43.827 69.4267 43.9336 69.32C44.0403 69.2067 44.177 69.15 44.3436 69.15C44.5103 69.15 44.647 69.2067 44.7536 69.32C44.8603 69.4267 44.9136 69.56 44.9136 69.72C44.9136 69.8867 44.8603 70.0267 44.7536 70.14C44.647 70.2467 44.5103 70.3 44.3436 70.3ZM50.0438 76V69.26H50.9838V76H50.0438ZM47.6838 69.92V69.06H53.3338V69.92H47.6838ZM55.1454 76.1C54.6788 76.1 54.2588 75.99 53.8854 75.77C53.5121 75.55 53.2154 75.2533 52.9954 74.88C52.7754 74.5 52.6654 74.0767 52.6654 73.61C52.6654 73.15 52.7754 72.7367 52.9954 72.37C53.2154 71.9967 53.5121 71.7 53.8854 71.48C54.2588 71.26 54.6788 71.15 55.1454 71.15C55.6054 71.15 56.0221 71.26 56.3954 71.48C56.7754 71.6933 57.0754 71.9867 57.2954 72.36C57.5154 72.7333 57.6254 73.15 57.6254 73.61C57.6254 74.0767 57.5154 74.5 57.2954 74.88C57.0754 75.2533 56.7754 75.55 56.3954 75.77C56.0221 75.99 55.6054 76.1 55.1454 76.1ZM55.1454 75.23C55.4454 75.23 55.7121 75.16 55.9454 75.02C56.1788 74.88 56.3621 74.69 56.4954 74.45C56.6288 74.2033 56.6954 73.9233 56.6954 73.61C56.6954 73.3033 56.6254 73.03 56.4854 72.79C56.3521 72.55 56.1688 72.3633 55.9354 72.23C55.7088 72.09 55.4454 72.02 55.1454 72.02C54.8454 72.02 54.5788 72.09 54.3454 72.23C54.1121 72.3633 53.9288 72.55 53.7954 72.79C53.6621 73.03 53.5954 73.3033 53.5954 73.61C53.5954 73.9233 53.6621 74.2033 53.7954 74.45C53.9288 74.69 54.1121 74.88 54.3454 75.02C54.5788 75.16 54.8454 75.23 55.1454 75.23ZM58.6495 76V71.25H59.5495V76H58.6495ZM59.0995 70.3C58.9328 70.3 58.7962 70.2467 58.6895 70.14C58.5828 70.0267 58.5295 69.8867 58.5295 69.72C58.5295 69.56 58.5828 69.4267 58.6895 69.32C58.7962 69.2067 58.9328 69.15 59.0995 69.15C59.2662 69.15 59.4028 69.2067 59.5095 69.32C59.6162 69.4267 59.6695 69.56 59.6695 69.72C59.6695 69.8867 59.6162 70.0267 59.5095 70.14C59.4028 70.2467 59.2662 70.3 59.0995 70.3ZM60.8758 76V68.86H61.7758V76H60.8758ZM65.2926 76.1C64.8193 76.1 64.3926 75.9933 64.0126 75.78C63.6326 75.56 63.3326 75.2633 63.1126 74.89C62.8926 74.5167 62.7826 74.0933 62.7826 73.62C62.7826 73.1533 62.8893 72.7333 63.1026 72.36C63.3226 71.9867 63.616 71.6933 63.9826 71.48C64.356 71.26 64.7726 71.15 65.2326 71.15C65.6726 71.15 66.0593 71.25 66.3926 71.45C66.7326 71.65 66.996 71.9267 67.1826 72.28C67.376 72.6333 67.4726 73.0333 67.4726 73.48C67.4726 73.5467 67.4693 73.62 67.4626 73.7C67.456 73.7733 67.4426 73.86 67.4226 73.96H63.4126V73.21H66.9426L66.6126 73.5C66.6126 73.18 66.556 72.91 66.4426 72.69C66.3293 72.4633 66.1693 72.29 65.9626 72.17C65.756 72.0433 65.506 71.98 65.2126 71.98C64.906 71.98 64.636 72.0467 64.4026 72.18C64.1693 72.3133 63.9893 72.5 63.8626 72.74C63.736 72.98 63.6726 73.2633 63.6726 73.59C63.6726 73.9233 63.7393 74.2167 63.8726 74.47C64.006 74.7167 64.196 74.91 64.4426 75.05C64.6893 75.1833 64.9726 75.25 65.2926 75.25C65.5593 75.25 65.8026 75.2033 66.0226 75.11C66.2493 75.0167 66.4426 74.8767 66.6026 74.69L67.1826 75.28C66.956 75.5467 66.676 75.75 66.3426 75.89C66.016 76.03 65.666 76.1 65.2926 76.1ZM69.0375 76V69.26H69.9375V76H69.0375ZM67.8675 72.07V71.25H71.1075V72.07H67.8675Z" fill="#6D6E8C"/>
<path d="M83 56.1528H11V56.1888H83V56.1528Z" fill="#EBEBEB"/>
<path d="M75.7856 58.4697H71.0163V58.5057H75.7856V58.4697Z" fill="#EBEBEB"/>
<path d="M58.6957 58.8616H57.4443V58.8976H58.6957V58.8616Z" fill="#EBEBEB"/>
<path d="M70.8723 57.1335H68.109V57.1695H70.8723V57.1335Z" fill="#EBEBEB"/>
<path d="M24.7736 57.3752H18.5542V57.4112H24.7736V57.3752Z" fill="#EBEBEB"/>
<path d="M26.9682 57.3752H26.0566V57.4112H26.9682V57.3752Z" fill="#EBEBEB"/>
<path d="M43.4216 57.9832H29.9317V58.0192H43.4216V57.9832Z" fill="#EBEBEB"/>
<path d="M45.128 49.7305H17.323C17.1052 49.7301 16.8964 49.6433 16.7426 49.4892C16.5887 49.335 16.5022 49.1261 16.5022 48.9083V9.82236C16.5041 9.60579 16.5914 9.39871 16.7451 9.24611C16.8988 9.0935 17.1065 9.0077 17.323 9.00732H45.128C45.3461 9.00732 45.5552 9.09395 45.7094 9.24815C45.8636 9.40235 45.9502 9.61149 45.9502 9.82956V48.9083C45.9502 49.1264 45.8636 49.3355 45.7094 49.4897C45.5552 49.6439 45.3461 49.7305 45.128 49.7305ZM17.323 9.03612C17.1148 9.03651 16.9151 9.11951 16.768 9.26692C16.6209 9.41432 16.5382 9.61409 16.5382 9.82236V48.9083C16.5382 49.1166 16.6209 49.3163 16.768 49.4637C16.9151 49.6111 17.1148 49.6941 17.323 49.6945H45.128C45.3364 49.6941 45.5362 49.6112 45.6835 49.4638C45.8309 49.3164 45.9139 49.1167 45.9142 48.9083V9.82236C45.9139 9.61396 45.8309 9.4142 45.6835 9.26683C45.5362 9.11946 45.3364 9.0365 45.128 9.03612H17.323Z" fill="#EBEBEB"/>
<path d="M76.2766 49.7305H48.4702C48.2523 49.7301 48.0434 49.6434 47.8892 49.4893C47.7351 49.3352 47.6484 49.1262 47.648 48.9083V9.82236C47.6503 9.60566 47.7379 9.39858 47.8918 9.24602C48.0457 9.09345 48.2535 9.00769 48.4702 9.00732H76.2766C76.493 9.00807 76.7003 9.09405 76.8537 9.24661C77.007 9.39918 77.0941 9.60604 77.096 9.82236V48.9083C77.096 49.1259 77.0098 49.3346 76.8562 49.4887C76.7026 49.6428 76.4942 49.7298 76.2766 49.7305ZM48.4702 9.03612C48.2618 9.0365 48.0621 9.11946 47.9147 9.26683C47.7673 9.4142 47.6844 9.61396 47.684 9.82236V48.9083C47.6844 49.1167 47.7673 49.3164 47.9147 49.4638C48.0621 49.6112 48.2618 49.6941 48.4702 49.6945H76.2766C76.485 49.6941 76.6848 49.6112 76.8322 49.4638C76.9795 49.3164 77.0625 49.1167 77.0629 48.9083V9.82236C77.0625 9.61396 76.9795 9.4142 76.8322 9.26683C76.6848 9.11946 76.485 9.0365 76.2766 9.03612H48.4702Z" fill="#EBEBEB"/>
<path d="M77.0629 29.5171H16.5022V56.17H77.0629V29.5171Z" fill="#F5F5F5"/>
<path d="M19.4571 30.7051H18.1165C17.7212 30.7051 17.4008 31.0255 17.4008 31.4208V32.7614C17.4008 33.1567 17.7212 33.4771 18.1165 33.4771H19.4571C19.8524 33.4771 20.1728 33.1567 20.1728 32.7614V31.4208C20.1728 31.0255 19.8524 30.7051 19.4571 30.7051Z" fill="#EBEBEB"/>
<path d="M19.4571 34.2778H18.1165C17.7212 34.2778 17.4008 34.5983 17.4008 34.9935V36.3342C17.4008 36.7294 17.7212 37.0498 18.1165 37.0498H19.4571C19.8524 37.0498 20.1728 36.7294 20.1728 36.3342V34.9935C20.1728 34.5983 19.8524 34.2778 19.4571 34.2778Z" fill="#EBEBEB"/>
<path d="M19.4571 37.7568H18.1165C17.7212 37.7568 17.4008 38.0773 17.4008 38.4725V39.8132C17.4008 40.2084 17.7212 40.5288 18.1165 40.5288H19.4571C19.8524 40.5288 20.1728 40.2084 20.1728 39.8132V38.4725C20.1728 38.0773 19.8524 37.7568 19.4571 37.7568Z" fill="#EBEBEB"/>
<path d="M19.4571 41.2344H18.1165C17.7212 41.2344 17.4008 41.5548 17.4008 41.9501V43.2907C17.4008 43.686 17.7212 44.0064 18.1165 44.0064H19.4571C19.8524 44.0064 20.1728 43.686 20.1728 43.2907V41.9501C20.1728 41.5548 19.8524 41.2344 19.4571 41.2344Z" fill="#EBEBEB"/>
<path d="M19.4571 44.7134H18.1165C17.7212 44.7134 17.4008 45.0338 17.4008 45.4291V46.7697C17.4008 47.165 17.7212 47.4854 18.1165 47.4854H19.4571C19.8524 47.4854 20.1728 47.165 20.1728 46.7697V45.4291C20.1728 45.0338 19.8524 44.7134 19.4571 44.7134Z" fill="#EBEBEB"/>
<path d="M19.4571 48.1909H18.1165C17.7212 48.1909 17.4008 48.5113 17.4008 48.9066V50.2472C17.4008 50.6425 17.7212 50.9629 18.1165 50.9629H19.4571C19.8524 50.9629 20.1728 50.6425 20.1728 50.2472V48.9066C20.1728 48.5113 19.8524 48.1909 19.4571 48.1909Z" fill="#EBEBEB"/>
<path d="M19.4571 51.6699H18.1165C17.7212 51.6699 17.4008 51.9903 17.4008 52.3856V53.7262C17.4008 54.1215 17.7212 54.4419 18.1165 54.4419H19.4571C19.8524 54.4419 20.1728 54.1215 20.1728 53.7262V52.3856C20.1728 51.9903 19.8524 51.6699 19.4571 51.6699Z" fill="#EBEBEB"/>
<path d="M23.0226 30.7051H21.6819C21.2867 30.7051 20.9662 31.0255 20.9662 31.4208V32.7614C20.9662 33.1567 21.2867 33.4771 21.6819 33.4771H23.0226C23.4178 33.4771 23.7382 33.1567 23.7382 32.7614V31.4208C23.7382 31.0255 23.4178 30.7051 23.0226 30.7051Z" fill="#EBEBEB"/>
<path d="M23.0226 34.2778H21.6819C21.2867 34.2778 20.9662 34.5983 20.9662 34.9935V36.3342C20.9662 36.7294 21.2867 37.0498 21.6819 37.0498H23.0226C23.4178 37.0498 23.7382 36.7294 23.7382 36.3342V34.9935C23.7382 34.5983 23.4178 34.2778 23.0226 34.2778Z" fill="#EBEBEB"/>
<path d="M23.0226 37.7568H21.6819C21.2867 37.7568 20.9662 38.0773 20.9662 38.4725V39.8132C20.9662 40.2084 21.2867 40.5288 21.6819 40.5288H23.0226C23.4178 40.5288 23.7382 40.2084 23.7382 39.8132V38.4725C23.7382 38.0773 23.4178 37.7568 23.0226 37.7568Z" fill="#EBEBEB"/>
<path d="M23.0226 41.2344H21.6819C21.2867 41.2344 20.9662 41.5548 20.9662 41.9501V43.2907C20.9662 43.686 21.2867 44.0064 21.6819 44.0064H23.0226C23.4178 44.0064 23.7382 43.686 23.7382 43.2907V41.9501C23.7382 41.5548 23.4178 41.2344 23.0226 41.2344Z" fill="#EBEBEB"/>
<path d="M23.0226 44.7134H21.6819C21.2867 44.7134 20.9662 45.0338 20.9662 45.4291V46.7697C20.9662 47.165 21.2867 47.4854 21.6819 47.4854H23.0226C23.4178 47.4854 23.7382 47.165 23.7382 46.7697V45.4291C23.7382 45.0338 23.4178 44.7134 23.0226 44.7134Z" fill="#EBEBEB"/>
<path d="M23.0226 48.1909H21.6819C21.2867 48.1909 20.9662 48.5113 20.9662 48.9066V50.2472C20.9662 50.6425 21.2867 50.9629 21.6819 50.9629H23.0226C23.4178 50.9629 23.7382 50.6425 23.7382 50.2472V48.9066C23.7382 48.5113 23.4178 48.1909 23.0226 48.1909Z" fill="#EBEBEB"/>
<path d="M23.0226 51.6699H21.6819C21.2867 51.6699 20.9662 51.9903 20.9662 52.3856V53.7262C20.9662 54.1215 21.2867 54.4419 21.6819 54.4419H23.0226C23.4178 54.4419 23.7382 54.1215 23.7382 53.7262V52.3856C23.7382 51.9903 23.4178 51.6699 23.0226 51.6699Z" fill="#EBEBEB"/>
<path d="M26.588 30.7051H25.2474C24.8521 30.7051 24.5317 31.0255 24.5317 31.4208V32.7614C24.5317 33.1567 24.8521 33.4771 25.2474 33.4771H26.588C26.9833 33.4771 27.3037 33.1567 27.3037 32.7614V31.4208C27.3037 31.0255 26.9833 30.7051 26.588 30.7051Z" fill="#EBEBEB"/>
<path d="M26.588 34.2778H25.2474C24.8521 34.2778 24.5317 34.5983 24.5317 34.9935V36.3342C24.5317 36.7294 24.8521 37.0498 25.2474 37.0498H26.588C26.9833 37.0498 27.3037 36.7294 27.3037 36.3342V34.9935C27.3037 34.5983 26.9833 34.2778 26.588 34.2778Z" fill="#EBEBEB"/>
<path d="M26.588 37.7568H25.2474C24.8521 37.7568 24.5317 38.0773 24.5317 38.4725V39.8132C24.5317 40.2084 24.8521 40.5288 25.2474 40.5288H26.588C26.9833 40.5288 27.3037 40.2084 27.3037 39.8132V38.4725C27.3037 38.0773 26.9833 37.7568 26.588 37.7568Z" fill="#EBEBEB"/>
<path d="M26.588 41.2344H25.2474C24.8521 41.2344 24.5317 41.5548 24.5317 41.9501V43.2907C24.5317 43.686 24.8521 44.0064 25.2474 44.0064H26.588C26.9833 44.0064 27.3037 43.686 27.3037 43.2907V41.9501C27.3037 41.5548 26.9833 41.2344 26.588 41.2344Z" fill="#EBEBEB"/>
<path d="M26.588 44.7134H25.2474C24.8521 44.7134 24.5317 45.0338 24.5317 45.4291V46.7697C24.5317 47.165 24.8521 47.4854 25.2474 47.4854H26.588C26.9833 47.4854 27.3037 47.165 27.3037 46.7697V45.4291C27.3037 45.0338 26.9833 44.7134 26.588 44.7134Z" fill="#EBEBEB"/>
<path d="M26.588 48.1909H25.2474C24.8521 48.1909 24.5317 48.5113 24.5317 48.9066V50.2472C24.5317 50.6425 24.8521 50.9629 25.2474 50.9629H26.588C26.9833 50.9629 27.3037 50.6425 27.3037 50.2472V48.9066C27.3037 48.5113 26.9833 48.1909 26.588 48.1909Z" fill="#EBEBEB"/>
<path d="M26.588 51.6699H25.2474C24.8521 51.6699 24.5317 51.9903 24.5317 52.3856V53.7262C24.5317 54.1215 24.8521 54.4419 25.2474 54.4419H26.588C26.9833 54.4419 27.3037 54.1215 27.3037 53.7262V52.3856C27.3037 51.9903 26.9833 51.6699 26.588 51.6699Z" fill="#EBEBEB"/>
<path d="M30.152 30.7051H28.8114C28.4161 30.7051 28.0957 31.0255 28.0957 31.4208V32.7614C28.0957 33.1567 28.4161 33.4771 28.8114 33.4771H30.152C30.5473 33.4771 30.8677 33.1567 30.8677 32.7614V31.4208C30.8677 31.0255 30.5473 30.7051 30.152 30.7051Z" fill="#EBEBEB"/>
<path d="M30.152 34.2778H28.8114C28.4161 34.2778 28.0957 34.5983 28.0957 34.9935V36.3342C28.0957 36.7294 28.4161 37.0498 28.8114 37.0498H30.152C30.5473 37.0498 30.8677 36.7294 30.8677 36.3342V34.9935C30.8677 34.5983 30.5473 34.2778 30.152 34.2778Z" fill="#EBEBEB"/>
<path d="M30.152 37.7568H28.8114C28.4161 37.7568 28.0957 38.0773 28.0957 38.4725V39.8132C28.0957 40.2084 28.4161 40.5288 28.8114 40.5288H30.152C30.5473 40.5288 30.8677 40.2084 30.8677 39.8132V38.4725C30.8677 38.0773 30.5473 37.7568 30.152 37.7568Z" fill="#EBEBEB"/>
<path d="M30.152 41.2344H28.8114C28.4161 41.2344 28.0957 41.5548 28.0957 41.9501V43.2907C28.0957 43.686 28.4161 44.0064 28.8114 44.0064H30.152C30.5473 44.0064 30.8677 43.686 30.8677 43.2907V41.9501C30.8677 41.5548 30.5473 41.2344 30.152 41.2344Z" fill="#EBEBEB"/>
<path d="M30.152 44.7134H28.8114C28.4161 44.7134 28.0957 45.0338 28.0957 45.4291V46.7697C28.0957 47.165 28.4161 47.4854 28.8114 47.4854H30.152C30.5473 47.4854 30.8677 47.165 30.8677 46.7697V45.4291C30.8677 45.0338 30.5473 44.7134 30.152 44.7134Z" fill="#EBEBEB"/>
<path d="M30.152 48.1909H28.8114C28.4161 48.1909 28.0957 48.5113 28.0957 48.9066V50.2472C28.0957 50.6425 28.4161 50.9629 28.8114 50.9629H30.152C30.5473 50.9629 30.8677 50.6425 30.8677 50.2472V48.9066C30.8677 48.5113 30.5473 48.1909 30.152 48.1909Z" fill="#EBEBEB"/>
<path d="M30.152 51.6699H28.8114C28.4161 51.6699 28.0957 51.9903 28.0957 52.3856V53.7262C28.0957 54.1215 28.4161 54.4419 28.8114 54.4419H30.152C30.5473 54.4419 30.8677 54.1215 30.8677 53.7262V52.3856C30.8677 51.9903 30.5473 51.6699 30.152 51.6699Z" fill="#EBEBEB"/>
<path d="M33.9637 30.7051H32.623C32.2278 30.7051 31.9074 31.0255 31.9074 31.4208V32.7614C31.9074 33.1567 32.2278 33.4771 32.623 33.4771H33.9637C34.3589 33.4771 34.6794 33.1567 34.6794 32.7614V31.4208C34.6794 31.0255 34.3589 30.7051 33.9637 30.7051Z" fill="#EBEBEB"/>
<path d="M33.9637 34.2778H32.623C32.2278 34.2778 31.9074 34.5983 31.9074 34.9935V36.3342C31.9074 36.7294 32.2278 37.0498 32.623 37.0498H33.9637C34.3589 37.0498 34.6794 36.7294 34.6794 36.3342V34.9935C34.6794 34.5983 34.3589 34.2778 33.9637 34.2778Z" fill="#EBEBEB"/>
<path d="M33.9637 37.7568H32.623C32.2278 37.7568 31.9074 38.0773 31.9074 38.4725V39.8132C31.9074 40.2084 32.2278 40.5288 32.623 40.5288H33.9637C34.3589 40.5288 34.6794 40.2084 34.6794 39.8132V38.4725C34.6794 38.0773 34.3589 37.7568 33.9637 37.7568Z" fill="#EBEBEB"/>
<path d="M33.9637 41.2344H32.623C32.2278 41.2344 31.9074 41.5548 31.9074 41.9501V43.2907C31.9074 43.686 32.2278 44.0064 32.623 44.0064H33.9637C34.3589 44.0064 34.6794 43.686 34.6794 43.2907V41.9501C34.6794 41.5548 34.3589 41.2344 33.9637 41.2344Z" fill="#EBEBEB"/>
<path d="M33.9637 44.7134H32.623C32.2278 44.7134 31.9074 45.0338 31.9074 45.4291V46.7697C31.9074 47.165 32.2278 47.4854 32.623 47.4854H33.9637C34.3589 47.4854 34.6794 47.165 34.6794 46.7697V45.4291C34.6794 45.0338 34.3589 44.7134 33.9637 44.7134Z" fill="#EBEBEB"/>
<path d="M33.9637 48.1909H32.623C32.2278 48.1909 31.9074 48.5113 31.9074 48.9066V50.2472C31.9074 50.6425 32.2278 50.9629 32.623 50.9629H33.9637C34.3589 50.9629 34.6794 50.6425 34.6794 50.2472V48.9066C34.6794 48.5113 34.3589 48.1909 33.9637 48.1909Z" fill="#EBEBEB"/>
<path d="M33.9637 51.6699H32.623C32.2278 51.6699 31.9074 51.9903 31.9074 52.3856V53.7262C31.9074 54.1215 32.2278 54.4419 32.623 54.4419H33.9637C34.3589 54.4419 34.6794 54.1215 34.6794 53.7262V52.3856C34.6794 51.9903 34.3589 51.6699 33.9637 51.6699Z" fill="#EBEBEB"/>
<path d="M37.5291 30.7051H36.1885C35.7932 30.7051 35.4728 31.0255 35.4728 31.4208V32.7614C35.4728 33.1567 35.7932 33.4771 36.1885 33.4771H37.5291C37.9244 33.4771 38.2448 33.1567 38.2448 32.7614V31.4208C38.2448 31.0255 37.9244 30.7051 37.5291 30.7051Z" fill="#EBEBEB"/>
<path d="M37.5291 34.2778H36.1885C35.7932 34.2778 35.4728 34.5983 35.4728 34.9935V36.3342C35.4728 36.7294 35.7932 37.0498 36.1885 37.0498H37.5291C37.9244 37.0498 38.2448 36.7294 38.2448 36.3342V34.9935C38.2448 34.5983 37.9244 34.2778 37.5291 34.2778Z" fill="#EBEBEB"/>
<path d="M37.5291 37.7568H36.1885C35.7932 37.7568 35.4728 38.0773 35.4728 38.4725V39.8132C35.4728 40.2084 35.7932 40.5288 36.1885 40.5288H37.5291C37.9244 40.5288 38.2448 40.2084 38.2448 39.8132V38.4725C38.2448 38.0773 37.9244 37.7568 37.5291 37.7568Z" fill="#EBEBEB"/>
<path d="M37.5291 41.2344H36.1885C35.7932 41.2344 35.4728 41.5548 35.4728 41.9501V43.2907C35.4728 43.686 35.7932 44.0064 36.1885 44.0064H37.5291C37.9244 44.0064 38.2448 43.686 38.2448 43.2907V41.9501C38.2448 41.5548 37.9244 41.2344 37.5291 41.2344Z" fill="#EBEBEB"/>
<path d="M37.5291 44.7134H36.1885C35.7932 44.7134 35.4728 45.0338 35.4728 45.4291V46.7697C35.4728 47.165 35.7932 47.4854 36.1885 47.4854H37.5291C37.9244 47.4854 38.2448 47.165 38.2448 46.7697V45.4291C38.2448 45.0338 37.9244 44.7134 37.5291 44.7134Z" fill="#EBEBEB"/>
<path d="M37.5291 48.1909H36.1885C35.7932 48.1909 35.4728 48.5113 35.4728 48.9066V50.2472C35.4728 50.6425 35.7932 50.9629 36.1885 50.9629H37.5291C37.9244 50.9629 38.2448 50.6425 38.2448 50.2472V48.9066C38.2448 48.5113 37.9244 48.1909 37.5291 48.1909Z" fill="#EBEBEB"/>
<path d="M37.5291 51.6699H36.1885C35.7932 51.6699 35.4728 51.9903 35.4728 52.3856V53.7262C35.4728 54.1215 35.7932 54.4419 36.1885 54.4419H37.5291C37.9244 54.4419 38.2448 54.1215 38.2448 53.7262V52.3856C38.2448 51.9903 37.9244 51.6699 37.5291 51.6699Z" fill="#EBEBEB"/>
<path d="M41.0931 30.7051H39.7525C39.3572 30.7051 39.0368 31.0255 39.0368 31.4208V32.7614C39.0368 33.1567 39.3572 33.4771 39.7525 33.4771H41.0931C41.4884 33.4771 41.8088 33.1567 41.8088 32.7614V31.4208C41.8088 31.0255 41.4884 30.7051 41.0931 30.7051Z" fill="#EBEBEB"/>
<path d="M41.0931 34.2778H39.7525C39.3572 34.2778 39.0368 34.5983 39.0368 34.9935V36.3342C39.0368 36.7294 39.3572 37.0498 39.7525 37.0498H41.0931C41.4884 37.0498 41.8088 36.7294 41.8088 36.3342V34.9935C41.8088 34.5983 41.4884 34.2778 41.0931 34.2778Z" fill="#EBEBEB"/>
<path d="M41.0931 37.7568H39.7525C39.3572 37.7568 39.0368 38.0773 39.0368 38.4725V39.8132C39.0368 40.2084 39.3572 40.5288 39.7525 40.5288H41.0931C41.4884 40.5288 41.8088 40.2084 41.8088 39.8132V38.4725C41.8088 38.0773 41.4884 37.7568 41.0931 37.7568Z" fill="#EBEBEB"/>
<path d="M41.0931 41.2344H39.7525C39.3572 41.2344 39.0368 41.5548 39.0368 41.9501V43.2907C39.0368 43.686 39.3572 44.0064 39.7525 44.0064H41.0931C41.4884 44.0064 41.8088 43.686 41.8088 43.2907V41.9501C41.8088 41.5548 41.4884 41.2344 41.0931 41.2344Z" fill="#EBEBEB"/>
<path d="M41.0931 44.7134H39.7525C39.3572 44.7134 39.0368 45.0338 39.0368 45.4291V46.7697C39.0368 47.165 39.3572 47.4854 39.7525 47.4854H41.0931C41.4884 47.4854 41.8088 47.165 41.8088 46.7697V45.4291C41.8088 45.0338 41.4884 44.7134 41.0931 44.7134Z" fill="#EBEBEB"/>
<path d="M41.0931 48.1909H39.7525C39.3572 48.1909 39.0368 48.5113 39.0368 48.9066V50.2472C39.0368 50.6425 39.3572 50.9629 39.7525 50.9629H41.0931C41.4884 50.9629 41.8088 50.6425 41.8088 50.2472V48.9066C41.8088 48.5113 41.4884 48.1909 41.0931 48.1909Z" fill="#EBEBEB"/>
<path d="M41.0931 51.6699H39.7525C39.3572 51.6699 39.0368 51.9903 39.0368 52.3856V53.7262C39.0368 54.1215 39.3572 54.4419 39.7525 54.4419H41.0931C41.4884 54.4419 41.8088 54.1215 41.8088 53.7262V52.3856C41.8088 51.9903 41.4884 51.6699 41.0931 51.6699Z" fill="#EBEBEB"/>
<path d="M44.6586 30.7051H43.3179C42.9227 30.7051 42.6022 31.0255 42.6022 31.4208V32.7614C42.6022 33.1567 42.9227 33.4771 43.3179 33.4771H44.6586C45.0538 33.4771 45.3742 33.1567 45.3742 32.7614V31.4208C45.3742 31.0255 45.0538 30.7051 44.6586 30.7051Z" fill="#EBEBEB"/>
<path d="M44.6586 34.2778H43.3179C42.9227 34.2778 42.6022 34.5983 42.6022 34.9935V36.3342C42.6022 36.7294 42.9227 37.0498 43.3179 37.0498H44.6586C45.0538 37.0498 45.3742 36.7294 45.3742 36.3342V34.9935C45.3742 34.5983 45.0538 34.2778 44.6586 34.2778Z" fill="#EBEBEB"/>
<path d="M44.6586 37.7568H43.3179C42.9227 37.7568 42.6022 38.0773 42.6022 38.4725V39.8132C42.6022 40.2084 42.9227 40.5288 43.3179 40.5288H44.6586C45.0538 40.5288 45.3742 40.2084 45.3742 39.8132V38.4725C45.3742 38.0773 45.0538 37.7568 44.6586 37.7568Z" fill="#EBEBEB"/>
<path d="M44.6586 41.2344H43.3179C42.9227 41.2344 42.6022 41.5548 42.6022 41.9501V43.2907C42.6022 43.686 42.9227 44.0064 43.3179 44.0064H44.6586C45.0538 44.0064 45.3742 43.686 45.3742 43.2907V41.9501C45.3742 41.5548 45.0538 41.2344 44.6586 41.2344Z" fill="#EBEBEB"/>
<path d="M44.6586 44.7134H43.3179C42.9227 44.7134 42.6022 45.0338 42.6022 45.4291V46.7697C42.6022 47.165 42.9227 47.4854 43.3179 47.4854H44.6586C45.0538 47.4854 45.3742 47.165 45.3742 46.7697V45.4291C45.3742 45.0338 45.0538 44.7134 44.6586 44.7134Z" fill="#EBEBEB"/>
<path d="M44.6586 48.1909H43.3179C42.9227 48.1909 42.6022 48.5113 42.6022 48.9066V50.2472C42.6022 50.6425 42.9227 50.9629 43.3179 50.9629H44.6586C45.0538 50.9629 45.3742 50.6425 45.3742 50.2472V48.9066C45.3742 48.5113 45.0538 48.1909 44.6586 48.1909Z" fill="#EBEBEB"/>
<path d="M44.6586 51.6699H43.3179C42.9227 51.6699 42.6022 51.9903 42.6022 52.3856V53.7262C42.6022 54.1215 42.9227 54.4419 43.3179 54.4419H44.6586C45.0538 54.4419 45.3742 54.1215 45.3742 53.7262V52.3856C45.3742 51.9903 45.0538 51.6699 44.6586 51.6699Z" fill="#EBEBEB"/>
<path d="M48.3133 30.7051H46.9726C46.5774 30.7051 46.257 31.0255 46.257 31.4208V32.7614C46.257 33.1567 46.5774 33.4771 46.9726 33.4771H48.3133C48.7085 33.4771 49.029 33.1567 49.029 32.7614V31.4208C49.029 31.0255 48.7085 30.7051 48.3133 30.7051Z" fill="#EBEBEB"/>
<path d="M48.3133 34.2778H46.9726C46.5774 34.2778 46.257 34.5983 46.257 34.9935V36.3342C46.257 36.7294 46.5774 37.0498 46.9726 37.0498H48.3133C48.7085 37.0498 49.029 36.7294 49.029 36.3342V34.9935C49.029 34.5983 48.7085 34.2778 48.3133 34.2778Z" fill="#EBEBEB"/>
<path d="M48.3133 37.7568H46.9726C46.5774 37.7568 46.257 38.0773 46.257 38.4725V39.8132C46.257 40.2084 46.5774 40.5288 46.9726 40.5288H48.3133C48.7085 40.5288 49.029 40.2084 49.029 39.8132V38.4725C49.029 38.0773 48.7085 37.7568 48.3133 37.7568Z" fill="#EBEBEB"/>
<path d="M48.3133 41.2344H46.9726C46.5774 41.2344 46.257 41.5548 46.257 41.9501V43.2907C46.257 43.686 46.5774 44.0064 46.9726 44.0064H48.3133C48.7085 44.0064 49.029 43.686 49.029 43.2907V41.9501C49.029 41.5548 48.7085 41.2344 48.3133 41.2344Z" fill="#EBEBEB"/>
<path d="M48.3133 44.7134H46.9726C46.5774 44.7134 46.257 45.0338 46.257 45.4291V46.7697C46.257 47.165 46.5774 47.4854 46.9726 47.4854H48.3133C48.7085 47.4854 49.029 47.165 49.029 46.7697V45.4291C49.029 45.0338 48.7085 44.7134 48.3133 44.7134Z" fill="#EBEBEB"/>
<path d="M48.3133 48.1909H46.9726C46.5774 48.1909 46.257 48.5113 46.257 48.9066V50.2472C46.257 50.6425 46.5774 50.9629 46.9726 50.9629H48.3133C48.7085 50.9629 49.029 50.6425 49.029 50.2472V48.9066C49.029 48.5113 48.7085 48.1909 48.3133 48.1909Z" fill="#EBEBEB"/>
<path d="M48.3133 51.6699H46.9726C46.5774 51.6699 46.257 51.9903 46.257 52.3856V53.7262C46.257 54.1215 46.5774 54.4419 46.9726 54.4419H48.3133C48.7085 54.4419 49.029 54.1215 49.029 53.7262V52.3856C49.029 51.9903 48.7085 51.6699 48.3133 51.6699Z" fill="#EBEBEB"/>
<path d="M51.8773 30.7051H50.5366C50.1414 30.7051 49.821 31.0255 49.821 31.4208V32.7614C49.821 33.1567 50.1414 33.4771 50.5366 33.4771H51.8773C52.2725 33.4771 52.593 33.1567 52.593 32.7614V31.4208C52.593 31.0255 52.2725 30.7051 51.8773 30.7051Z" fill="#EBEBEB"/>
<path d="M51.8773 34.2778H50.5366C50.1414 34.2778 49.821 34.5983 49.821 34.9935V36.3342C49.821 36.7294 50.1414 37.0498 50.5366 37.0498H51.8773C52.2725 37.0498 52.593 36.7294 52.593 36.3342V34.9935C52.593 34.5983 52.2725 34.2778 51.8773 34.2778Z" fill="#EBEBEB"/>
<path d="M51.8773 37.7568H50.5366C50.1414 37.7568 49.821 38.0773 49.821 38.4725V39.8132C49.821 40.2084 50.1414 40.5288 50.5366 40.5288H51.8773C52.2725 40.5288 52.593 40.2084 52.593 39.8132V38.4725C52.593 38.0773 52.2725 37.7568 51.8773 37.7568Z" fill="#EBEBEB"/>
<path d="M51.8773 41.2344H50.5366C50.1414 41.2344 49.821 41.5548 49.821 41.9501V43.2907C49.821 43.686 50.1414 44.0064 50.5366 44.0064H51.8773C52.2725 44.0064 52.593 43.686 52.593 43.2907V41.9501C52.593 41.5548 52.2725 41.2344 51.8773 41.2344Z" fill="#EBEBEB"/>
<path d="M51.8773 44.7134H50.5366C50.1414 44.7134 49.821 45.0338 49.821 45.4291V46.7697C49.821 47.165 50.1414 47.4854 50.5366 47.4854H51.8773C52.2725 47.4854 52.593 47.165 52.593 46.7697V45.4291C52.593 45.0338 52.2725 44.7134 51.8773 44.7134Z" fill="#EBEBEB"/>
<path d="M51.8773 48.1909H50.5366C50.1414 48.1909 49.821 48.5113 49.821 48.9066V50.2472C49.821 50.6425 50.1414 50.9629 50.5366 50.9629H51.8773C52.2725 50.9629 52.593 50.6425 52.593 50.2472V48.9066C52.593 48.5113 52.2725 48.1909 51.8773 48.1909Z" fill="#EBEBEB"/>
<path d="M51.8773 51.6699H50.5366C50.1414 51.6699 49.821 51.9903 49.821 52.3856V53.7262C49.821 54.1215 50.1414 54.4419 50.5366 54.4419H51.8773C52.2725 54.4419 52.593 54.1215 52.593 53.7262V52.3856C52.593 51.9903 52.2725 51.6699 51.8773 51.6699Z" fill="#EBEBEB"/>
<path d="M55.4427 30.7051H54.1021C53.7068 30.7051 53.3864 31.0255 53.3864 31.4208V32.7614C53.3864 33.1567 53.7068 33.4771 54.1021 33.4771H55.4427C55.838 33.4771 56.1584 33.1567 56.1584 32.7614V31.4208C56.1584 31.0255 55.838 30.7051 55.4427 30.7051Z" fill="#EBEBEB"/>
<path d="M55.4427 34.2778H54.1021C53.7068 34.2778 53.3864 34.5983 53.3864 34.9935V36.3342C53.3864 36.7294 53.7068 37.0498 54.1021 37.0498H55.4427C55.838 37.0498 56.1584 36.7294 56.1584 36.3342V34.9935C56.1584 34.5983 55.838 34.2778 55.4427 34.2778Z" fill="#EBEBEB"/>
<path d="M55.4427 37.7568H54.1021C53.7068 37.7568 53.3864 38.0773 53.3864 38.4725V39.8132C53.3864 40.2084 53.7068 40.5288 54.1021 40.5288H55.4427C55.838 40.5288 56.1584 40.2084 56.1584 39.8132V38.4725C56.1584 38.0773 55.838 37.7568 55.4427 37.7568Z" fill="#EBEBEB"/>
<path d="M55.4427 41.2344H54.1021C53.7068 41.2344 53.3864 41.5548 53.3864 41.9501V43.2907C53.3864 43.686 53.7068 44.0064 54.1021 44.0064H55.4427C55.838 44.0064 56.1584 43.686 56.1584 43.2907V41.9501C56.1584 41.5548 55.838 41.2344 55.4427 41.2344Z" fill="#EBEBEB"/>
<path d="M55.4427 44.7134H54.1021C53.7068 44.7134 53.3864 45.0338 53.3864 45.4291V46.7697C53.3864 47.165 53.7068 47.4854 54.1021 47.4854H55.4427C55.838 47.4854 56.1584 47.165 56.1584 46.7697V45.4291C56.1584 45.0338 55.838 44.7134 55.4427 44.7134Z" fill="#EBEBEB"/>
<path d="M55.4427 48.1909H54.1021C53.7068 48.1909 53.3864 48.5113 53.3864 48.9066V50.2472C53.3864 50.6425 53.7068 50.9629 54.1021 50.9629H55.4427C55.838 50.9629 56.1584 50.6425 56.1584 50.2472V48.9066C56.1584 48.5113 55.838 48.1909 55.4427 48.1909Z" fill="#EBEBEB"/>
<path d="M55.4427 51.6699H54.1021C53.7068 51.6699 53.3864 51.9903 53.3864 52.3856V53.7262C53.3864 54.1215 53.7068 54.4419 54.1021 54.4419H55.4427C55.838 54.4419 56.1584 54.1215 56.1584 53.7262V52.3856C56.1584 51.9903 55.838 51.6699 55.4427 51.6699Z" fill="#EBEBEB"/>
<path d="M59.0082 30.7051H57.6675C57.2723 30.7051 56.9518 31.0255 56.9518 31.4208V32.7614C56.9518 33.1567 57.2723 33.4771 57.6675 33.4771H59.0082C59.4034 33.4771 59.7238 33.1567 59.7238 32.7614V31.4208C59.7238 31.0255 59.4034 30.7051 59.0082 30.7051Z" fill="#EBEBEB"/>
<path d="M59.0082 34.2778H57.6675C57.2723 34.2778 56.9518 34.5983 56.9518 34.9935V36.3342C56.9518 36.7294 57.2723 37.0498 57.6675 37.0498H59.0082C59.4034 37.0498 59.7238 36.7294 59.7238 36.3342V34.9935C59.7238 34.5983 59.4034 34.2778 59.0082 34.2778Z" fill="#EBEBEB"/>
<path d="M59.0082 37.7568H57.6675C57.2723 37.7568 56.9518 38.0773 56.9518 38.4725V39.8132C56.9518 40.2084 57.2723 40.5288 57.6675 40.5288H59.0082C59.4034 40.5288 59.7238 40.2084 59.7238 39.8132V38.4725C59.7238 38.0773 59.4034 37.7568 59.0082 37.7568Z" fill="#EBEBEB"/>
<path d="M59.0082 41.2344H57.6675C57.2723 41.2344 56.9518 41.5548 56.9518 41.9501V43.2907C56.9518 43.686 57.2723 44.0064 57.6675 44.0064H59.0082C59.4034 44.0064 59.7238 43.686 59.7238 43.2907V41.9501C59.7238 41.5548 59.4034 41.2344 59.0082 41.2344Z" fill="#EBEBEB"/>
<path d="M59.0082 44.7134H57.6675C57.2723 44.7134 56.9518 45.0338 56.9518 45.4291V46.7697C56.9518 47.165 57.2723 47.4854 57.6675 47.4854H59.0082C59.4034 47.4854 59.7238 47.165 59.7238 46.7697V45.4291C59.7238 45.0338 59.4034 44.7134 59.0082 44.7134Z" fill="#EBEBEB"/>
<path d="M59.0082 48.1909H57.6675C57.2723 48.1909 56.9518 48.5113 56.9518 48.9066V50.2472C56.9518 50.6425 57.2723 50.9629 57.6675 50.9629H59.0082C59.4034 50.9629 59.7238 50.6425 59.7238 50.2472V48.9066C59.7238 48.5113 59.4034 48.1909 59.0082 48.1909Z" fill="#EBEBEB"/>
<path d="M59.0082 51.6699H57.6675C57.2723 51.6699 56.9518 51.9903 56.9518 52.3856V53.7262C56.9518 54.1215 57.2723 54.4419 57.6675 54.4419H59.0082C59.4034 54.4419 59.7238 54.1215 59.7238 53.7262V52.3856C59.7238 51.9903 59.4034 51.6699 59.0082 51.6699Z" fill="#EBEBEB"/>
<path d="M62.5203 30.7051H61.1797C60.7844 30.7051 60.464 31.0255 60.464 31.4208V32.7614C60.464 33.1567 60.7844 33.4771 61.1797 33.4771H62.5203C62.9156 33.4771 63.236 33.1567 63.236 32.7614V31.4208C63.236 31.0255 62.9156 30.7051 62.5203 30.7051Z" fill="#EBEBEB"/>
<path d="M62.5203 34.2778H61.1797C60.7844 34.2778 60.464 34.5983 60.464 34.9935V36.3342C60.464 36.7294 60.7844 37.0498 61.1797 37.0498H62.5203C62.9156 37.0498 63.236 36.7294 63.236 36.3342V34.9935C63.236 34.5983 62.9156 34.2778 62.5203 34.2778Z" fill="#EBEBEB"/>
<path d="M62.5203 37.7568H61.1797C60.7844 37.7568 60.464 38.0773 60.464 38.4725V39.8132C60.464 40.2084 60.7844 40.5288 61.1797 40.5288H62.5203C62.9156 40.5288 63.236 40.2084 63.236 39.8132V38.4725C63.236 38.0773 62.9156 37.7568 62.5203 37.7568Z" fill="#EBEBEB"/>
<path d="M62.5203 41.2344H61.1797C60.7844 41.2344 60.464 41.5548 60.464 41.9501V43.2907C60.464 43.686 60.7844 44.0064 61.1797 44.0064H62.5203C62.9156 44.0064 63.236 43.686 63.236 43.2907V41.9501C63.236 41.5548 62.9156 41.2344 62.5203 41.2344Z" fill="#EBEBEB"/>
<path d="M62.5203 44.7134H61.1797C60.7844 44.7134 60.464 45.0338 60.464 45.4291V46.7697C60.464 47.165 60.7844 47.4854 61.1797 47.4854H62.5203C62.9156 47.4854 63.236 47.165 63.236 46.7697V45.4291C63.236 45.0338 62.9156 44.7134 62.5203 44.7134Z" fill="#EBEBEB"/>
<path d="M62.5203 48.1909H61.1797C60.7844 48.1909 60.464 48.5113 60.464 48.9066V50.2472C60.464 50.6425 60.7844 50.9629 61.1797 50.9629H62.5203C62.9156 50.9629 63.236 50.6425 63.236 50.2472V48.9066C63.236 48.5113 62.9156 48.1909 62.5203 48.1909Z" fill="#EBEBEB"/>
<path d="M62.5203 51.6699H61.1797C60.7844 51.6699 60.464 51.9903 60.464 52.3856V53.7262C60.464 54.1215 60.7844 54.4419 61.1797 54.4419H62.5203C62.9156 54.4419 63.236 54.1215 63.236 53.7262V52.3856C63.236 51.9903 62.9156 51.6699 62.5203 51.6699Z" fill="#EBEBEB"/>
<path d="M66.0858 30.7051H64.7451C64.3499 30.7051 64.0294 31.0255 64.0294 31.4208V32.7614C64.0294 33.1567 64.3499 33.4771 64.7451 33.4771H66.0858C66.481 33.4771 66.8014 33.1567 66.8014 32.7614V31.4208C66.8014 31.0255 66.481 30.7051 66.0858 30.7051Z" fill="#EBEBEB"/>
<path d="M66.0858 34.2778H64.7451C64.3499 34.2778 64.0294 34.5983 64.0294 34.9935V36.3342C64.0294 36.7294 64.3499 37.0498 64.7451 37.0498H66.0858C66.481 37.0498 66.8014 36.7294 66.8014 36.3342V34.9935C66.8014 34.5983 66.481 34.2778 66.0858 34.2778Z" fill="#EBEBEB"/>
<path d="M66.0858 37.7568H64.7451C64.3499 37.7568 64.0294 38.0773 64.0294 38.4725V39.8132C64.0294 40.2084 64.3499 40.5288 64.7451 40.5288H66.0858C66.481 40.5288 66.8014 40.2084 66.8014 39.8132V38.4725C66.8014 38.0773 66.481 37.7568 66.0858 37.7568Z" fill="#EBEBEB"/>
<path d="M66.0858 41.2344H64.7451C64.3499 41.2344 64.0294 41.5548 64.0294 41.9501V43.2907C64.0294 43.686 64.3499 44.0064 64.7451 44.0064H66.0858C66.481 44.0064 66.8014 43.686 66.8014 43.2907V41.9501C66.8014 41.5548 66.481 41.2344 66.0858 41.2344Z" fill="#EBEBEB"/>
<path d="M66.0858 44.7134H64.7451C64.3499 44.7134 64.0294 45.0338 64.0294 45.4291V46.7697C64.0294 47.165 64.3499 47.4854 64.7451 47.4854H66.0858C66.481 47.4854 66.8014 47.165 66.8014 46.7697V45.4291C66.8014 45.0338 66.481 44.7134 66.0858 44.7134Z" fill="#EBEBEB"/>
<path d="M66.0858 48.1909H64.7451C64.3499 48.1909 64.0294 48.5113 64.0294 48.9066V50.2472C64.0294 50.6425 64.3499 50.9629 64.7451 50.9629H66.0858C66.481 50.9629 66.8014 50.6425 66.8014 50.2472V48.9066C66.8014 48.5113 66.481 48.1909 66.0858 48.1909Z" fill="#EBEBEB"/>
<path d="M66.0858 51.6699H64.7451C64.3499 51.6699 64.0294 51.9903 64.0294 52.3856V53.7262C64.0294 54.1215 64.3499 54.4419 64.7451 54.4419H66.0858C66.481 54.4419 66.8014 54.1215 66.8014 53.7262V52.3856C66.8014 51.9903 66.481 51.6699 66.0858 51.6699Z" fill="#EBEBEB"/>
<path d="M69.6512 30.7051H68.3106C67.9153 30.7051 67.5949 31.0255 67.5949 31.4208V32.7614C67.5949 33.1567 67.9153 33.4771 68.3106 33.4771H69.6512C70.0465 33.4771 70.3669 33.1567 70.3669 32.7614V31.4208C70.3669 31.0255 70.0465 30.7051 69.6512 30.7051Z" fill="#EBEBEB"/>
<path d="M69.6512 34.2778H68.3106C67.9153 34.2778 67.5949 34.5983 67.5949 34.9935V36.3342C67.5949 36.7294 67.9153 37.0498 68.3106 37.0498H69.6512C70.0465 37.0498 70.3669 36.7294 70.3669 36.3342V34.9935C70.3669 34.5983 70.0465 34.2778 69.6512 34.2778Z" fill="#EBEBEB"/>
<path d="M69.6512 37.7568H68.3106C67.9153 37.7568 67.5949 38.0773 67.5949 38.4725V39.8132C67.5949 40.2084 67.9153 40.5288 68.3106 40.5288H69.6512C70.0465 40.5288 70.3669 40.2084 70.3669 39.8132V38.4725C70.3669 38.0773 70.0465 37.7568 69.6512 37.7568Z" fill="#EBEBEB"/>
<path d="M69.6512 41.2344H68.3106C67.9153 41.2344 67.5949 41.5548 67.5949 41.9501V43.2907C67.5949 43.686 67.9153 44.0064 68.3106 44.0064H69.6512C70.0465 44.0064 70.3669 43.686 70.3669 43.2907V41.9501C70.3669 41.5548 70.0465 41.2344 69.6512 41.2344Z" fill="#EBEBEB"/>
<path d="M69.6512 44.7134H68.3106C67.9153 44.7134 67.5949 45.0338 67.5949 45.4291V46.7697C67.5949 47.165 67.9153 47.4854 68.3106 47.4854H69.6512C70.0465 47.4854 70.3669 47.165 70.3669 46.7697V45.4291C70.3669 45.0338 70.0465 44.7134 69.6512 44.7134Z" fill="#EBEBEB"/>
<path d="M69.6512 48.1909H68.3106C67.9153 48.1909 67.5949 48.5113 67.5949 48.9066V50.2472C67.5949 50.6425 67.9153 50.9629 68.3106 50.9629H69.6512C70.0465 50.9629 70.3669 50.6425 70.3669 50.2472V48.9066C70.3669 48.5113 70.0465 48.1909 69.6512 48.1909Z" fill="#EBEBEB"/>
<path d="M69.6512 51.6699H68.3106C67.9153 51.6699 67.5949 51.9903 67.5949 52.3856V53.7262C67.5949 54.1215 67.9153 54.4419 68.3106 54.4419H69.6512C70.0465 54.4419 70.3669 54.1215 70.3669 53.7262V52.3856C70.3669 51.9903 70.0465 51.6699 69.6512 51.6699Z" fill="#EBEBEB"/>
<path d="M73.2166 30.7051H71.876C71.4807 30.7051 71.1603 31.0255 71.1603 31.4208V32.7614C71.1603 33.1567 71.4807 33.4771 71.876 33.4771H73.2166C73.6119 33.4771 73.9323 33.1567 73.9323 32.7614V31.4208C73.9323 31.0255 73.6119 30.7051 73.2166 30.7051Z" fill="#EBEBEB"/>
<path d="M73.2166 34.2778H71.876C71.4807 34.2778 71.1603 34.5983 71.1603 34.9935V36.3342C71.1603 36.7294 71.4807 37.0498 71.876 37.0498H73.2166C73.6119 37.0498 73.9323 36.7294 73.9323 36.3342V34.9935C73.9323 34.5983 73.6119 34.2778 73.2166 34.2778Z" fill="#EBEBEB"/>
<path d="M73.2166 37.7568H71.876C71.4807 37.7568 71.1603 38.0773 71.1603 38.4725V39.8132C71.1603 40.2084 71.4807 40.5288 71.876 40.5288H73.2166C73.6119 40.5288 73.9323 40.2084 73.9323 39.8132V38.4725C73.9323 38.0773 73.6119 37.7568 73.2166 37.7568Z" fill="#EBEBEB"/>
<path d="M73.2166 41.2344H71.876C71.4807 41.2344 71.1603 41.5548 71.1603 41.9501V43.2907C71.1603 43.686 71.4807 44.0064 71.876 44.0064H73.2166C73.6119 44.0064 73.9323 43.686 73.9323 43.2907V41.9501C73.9323 41.5548 73.6119 41.2344 73.2166 41.2344Z" fill="#EBEBEB"/>
<path d="M73.2166 44.7134H71.876C71.4807 44.7134 71.1603 45.0338 71.1603 45.4291V46.7697C71.1603 47.165 71.4807 47.4854 71.876 47.4854H73.2166C73.6119 47.4854 73.9323 47.165 73.9323 46.7697V45.4291C73.9323 45.0338 73.6119 44.7134 73.2166 44.7134Z" fill="#EBEBEB"/>
<path d="M73.2166 48.1909H71.876C71.4807 48.1909 71.1603 48.5113 71.1603 48.9066V50.2472C71.1603 50.6425 71.4807 50.9629 71.876 50.9629H73.2166C73.6119 50.9629 73.9323 50.6425 73.9323 50.2472V48.9066C73.9323 48.5113 73.6119 48.1909 73.2166 48.1909Z" fill="#EBEBEB"/>
<path d="M73.2166 51.6699H71.876C71.4807 51.6699 71.1603 51.9903 71.1603 52.3856V53.7262C71.1603 54.1215 71.4807 54.4419 71.876 54.4419H73.2166C73.6119 54.4419 73.9323 54.1215 73.9323 53.7262V52.3856C73.9323 51.9903 73.6119 51.6699 73.2166 51.6699Z" fill="#EBEBEB"/>
<path d="M77.0629 30.7513C76.9883 30.7254 76.91 30.7118 76.831 30.7109H75.5739C75.4744 30.7107 75.3758 30.7302 75.2838 30.7682C75.1919 30.8062 75.1083 30.862 75.0379 30.9324C74.9675 31.0027 74.9118 31.0863 74.8738 31.1783C74.8358 31.2703 74.8163 31.3689 74.8165 31.4684V32.7255C74.8163 32.825 74.8358 32.9236 74.8738 33.0156C74.9118 33.1076 74.9675 33.1911 75.0379 33.2615C75.1083 33.3319 75.1919 33.3877 75.2838 33.4257C75.3758 33.4637 75.4744 33.4831 75.5739 33.4829H76.831C76.9099 33.4818 76.988 33.4687 77.0629 33.4441V30.7513Z" fill="#EBEBEB"/>
<path d="M77.0629 34.3182C76.9883 34.2923 76.91 34.2787 76.831 34.2778H75.5739C75.373 34.2778 75.1804 34.3576 75.0383 34.4997C74.8963 34.6417 74.8165 34.8344 74.8165 35.0353V36.2924C74.8163 36.392 74.8357 36.4906 74.8737 36.5827C74.9117 36.6748 74.9675 36.7584 75.0378 36.8289C75.1082 36.8994 75.1917 36.9553 75.2837 36.9935C75.3757 37.0316 75.4743 37.0513 75.5739 37.0513H76.831C76.9099 37.0497 76.9881 37.0361 77.0629 37.011V34.3182Z" fill="#EBEBEB"/>
<path d="M77.0629 37.7957C76.988 37.771 76.9099 37.7579 76.831 37.7568H75.5739C75.4744 37.7566 75.3758 37.7761 75.2838 37.8141C75.1919 37.8521 75.1083 37.9079 75.0379 37.9783C74.9675 38.0486 74.9118 38.1322 74.8738 38.2242C74.8358 38.3162 74.8163 38.4148 74.8165 38.5143V39.7714C74.8165 39.9723 74.8963 40.1649 75.0383 40.307C75.1804 40.449 75.373 40.5288 75.5739 40.5288H76.831C76.91 40.528 76.9883 40.5144 77.0629 40.4885V37.7957Z" fill="#EBEBEB"/>
<path d="M77.0629 41.2747C76.9883 41.2489 76.91 41.2352 76.831 41.2344H75.5739C75.373 41.2344 75.1804 41.3142 75.0383 41.4562C74.8963 41.5983 74.8165 41.7909 74.8165 41.9918V43.2489C74.8163 43.3485 74.8357 43.4472 74.8737 43.5392C74.9117 43.6313 74.9675 43.715 75.0378 43.7855C75.1082 43.8559 75.1917 43.9119 75.2837 43.95C75.3757 43.9882 75.4743 44.0078 75.5739 44.0078H76.831C76.9099 44.0062 76.9881 43.9926 77.0629 43.9675V41.2747Z" fill="#EBEBEB"/>
<path d="M77.0629 44.7523C76.988 44.7276 76.9099 44.7145 76.831 44.7134H75.5739C75.4744 44.7132 75.3758 44.7327 75.2838 44.7706C75.1919 44.8086 75.1083 44.8644 75.0379 44.9348C74.9675 45.0052 74.9118 45.0888 74.8738 45.1807C74.8358 45.2727 74.8163 45.3713 74.8165 45.4708V46.7351C74.8165 46.936 74.8963 47.1287 75.0383 47.2707C75.1804 47.4128 75.373 47.4926 75.5739 47.4926H76.831C76.91 47.4917 76.9883 47.4781 77.0629 47.4523V44.7523Z" fill="#EBEBEB"/>
<path d="M77.0629 48.2312C76.9883 48.2054 76.91 48.1918 76.831 48.1909H75.5739C75.373 48.1909 75.1804 48.2707 75.0383 48.4128C74.8963 48.5548 74.8165 48.7475 74.8165 48.9484V50.2055C74.8163 50.3051 74.8357 50.4037 74.8737 50.4958C74.9117 50.5878 74.9675 50.6715 75.0378 50.742C75.1082 50.8125 75.1917 50.8684 75.2837 50.9066C75.3757 50.9447 75.4743 50.9644 75.5739 50.9644H76.831C76.9099 50.9628 76.9881 50.9492 77.0629 50.924V48.2312Z" fill="#EBEBEB"/>
<path d="M77.0629 51.7088C76.988 51.6841 76.9099 51.671 76.831 51.6699H75.5739C75.4744 51.6697 75.3758 51.6892 75.2838 51.7272C75.1919 51.7652 75.1083 51.821 75.0379 51.8914C74.9675 51.9617 74.9118 52.0453 74.8738 52.1373C74.8358 52.2293 74.8163 52.3278 74.8165 52.4274V53.6845C74.8165 53.8854 74.8963 54.078 75.0383 54.2201C75.1804 54.3621 75.373 54.4419 75.5739 54.4419H76.831C76.91 54.4411 76.9883 54.4274 77.0629 54.4016V51.7088Z" fill="#EBEBEB"/>
<path d="M53.9192 9H42.0752V21.5726H53.9192V9Z" fill="#F5F5F5"/>
<path d="M44.6643 9.74023H42.7606V11.762H44.6643V9.74023Z" fill="#EBEBEB"/>
<path d="M46.807 9.74023H44.9034V11.762H46.807V9.74023Z" fill="#EBEBEB"/>
<path d="M48.9483 9.74023H47.0446V11.762H48.9483V9.74023Z" fill="#EBEBEB"/>
<path d="M51.091 9.74023H49.1874V11.762H51.091V9.74023Z" fill="#EBEBEB"/>
<path d="M53.2323 9.74023H51.3286V11.762H53.2323V9.74023Z" fill="#EBEBEB"/>
<path d="M44.6643 12.0081H42.7606V14.0298H44.6643V12.0081Z" fill="#EBEBEB"/>
<path d="M46.807 12.0081H44.9034V14.0298H46.807V12.0081Z" fill="#EBEBEB"/>
<path d="M48.9483 12.0081H47.0446V14.0298H48.9483V12.0081Z" fill="#EBEBEB"/>
<path d="M51.091 12.0081H49.1874V14.0298H51.091V12.0081Z" fill="#EBEBEB"/>
<path d="M53.2323 12.0081H51.3286V14.0298H53.2323V12.0081Z" fill="#EBEBEB"/>
<path d="M44.6643 14.2761H42.7606V16.2979H44.6643V14.2761Z" fill="#EBEBEB"/>
<path d="M46.807 14.2761H44.9034V16.2979H46.807V14.2761Z" fill="#EBEBEB"/>
<path d="M48.9483 14.2761H47.0446V16.2979H48.9483V14.2761Z" fill="#EBEBEB"/>
<path d="M51.091 14.2761H49.1874V16.2979H51.091V14.2761Z" fill="#EBEBEB"/>
<path d="M53.2323 14.2761H51.3286V16.2979H53.2323V14.2761Z" fill="#EBEBEB"/>
<path d="M44.6643 16.5442H42.7606V18.5659H44.6643V16.5442Z" fill="#EBEBEB"/>
<path d="M46.807 16.5442H44.9034V18.5659H46.807V16.5442Z" fill="#EBEBEB"/>
<path d="M48.9483 16.5442H47.0446V18.5659H48.9483V16.5442Z" fill="#EBEBEB"/>
<path d="M51.091 16.5442H49.1874V18.5659H51.091V16.5442Z" fill="#EBEBEB"/>
<path d="M53.2323 16.5442H51.3286V18.5659H53.2323V16.5442Z" fill="#EBEBEB"/>
<path d="M44.6643 18.8123H42.7606V20.834H44.6643V18.8123Z" fill="#EBEBEB"/>
<path d="M46.807 18.8123H44.9034V20.834H46.807V18.8123Z" fill="#EBEBEB"/>
<path d="M48.9483 18.8123H47.0446V20.834H48.9483V18.8123Z" fill="#EBEBEB"/>
<path d="M51.091 18.8123H49.1874V20.834H51.091V18.8123Z" fill="#EBEBEB"/>
<path d="M53.2323 18.8123H51.3286V20.834H53.2323V18.8123Z" fill="#EBEBEB"/>
<g opacity="0.8">
<path d="M44.6643 9.74023L42.7606 11.762H43.1178L44.6643 10.1463V9.74023Z" fill="#FAFAFA"/>
<path d="M44.6643 10.4214L43.4029 11.762H43.639L44.6643 10.6907V10.4214Z" fill="#FAFAFA"/>
</g>
<g opacity="0.8">
<path d="M46.807 9.74023L44.9034 11.762H45.2605L46.807 10.1463V9.74023Z" fill="#FAFAFA"/>
<path d="M46.807 10.4214L45.5442 11.762H45.7818L46.807 10.6907V10.4214Z" fill="#FAFAFA"/>
</g>
<g opacity="0.8">
<path d="M48.9498 9.74023L47.0446 11.762H47.4018L48.9498 10.1463V9.74023Z" fill="#FAFAFA"/>
<path d="M48.9498 10.4214L47.6869 11.762H47.923L48.9498 10.6907V10.4214Z" fill="#FAFAFA"/>
</g>
<g opacity="0.8">
<path d="M51.091 9.74023L49.1874 11.762H49.5445L51.091 10.1463V9.74023Z" fill="#FAFAFA"/>
<path d="M51.091 10.4214L49.8282 11.762H50.0658L51.091 10.6907V10.4214Z" fill="#FAFAFA"/>
</g>
<g opacity="0.8">
<path d="M53.2338 9.74023L51.3286 11.762H51.6858L53.2338 10.1463V9.74023Z" fill="#FAFAFA"/>
<path d="M53.2338 10.4214L51.9709 11.762H52.207L53.2338 10.6907V10.4214Z" fill="#FAFAFA"/>
</g>
<g opacity="0.8">
<path d="M44.6643 12.0081L42.7606 14.0298H43.1178L44.6643 12.4141V12.0081Z" fill="#FAFAFA"/>
<path d="M44.6643 12.6895L43.4029 14.0301H43.639L44.6643 12.9587V12.6895Z" fill="#FAFAFA"/>
</g>
<g opacity="0.8">
<path d="M46.807 12.0081L44.9034 14.0298H45.2605L46.807 12.4141V12.0081Z" fill="#FAFAFA"/>
<path d="M46.807 12.6895L45.5442 14.0301H45.7818L46.807 12.9587V12.6895Z" fill="#FAFAFA"/>
</g>
<g opacity="0.8">
<path d="M48.9498 12.0081L47.0446 14.0298H47.4018L48.9498 12.4141V12.0081Z" fill="#FAFAFA"/>
<path d="M48.9498 12.6895L47.6869 14.0301H47.923L48.9498 12.9587V12.6895Z" fill="#FAFAFA"/>
</g>
<g opacity="0.8">
<path d="M51.091 12.0081L49.1874 14.0298H49.5445L51.091 12.4141V12.0081Z" fill="#FAFAFA"/>
<path d="M51.091 12.6895L49.8282 14.0301H50.0658L51.091 12.9587V12.6895Z" fill="#FAFAFA"/>
</g>
<g opacity="0.8">
<path d="M53.2338 12.0081L51.3286 14.0298H51.6858L53.2338 12.4141V12.0081Z" fill="#FAFAFA"/>
<path d="M53.2338 12.6895L51.9709 14.0301H52.207L53.2338 12.9587V12.6895Z" fill="#FAFAFA"/>
</g>
<g opacity="0.8">
<path d="M44.6643 14.2761L42.7606 16.2979H43.1178L44.6643 14.6822V14.2761Z" fill="#FAFAFA"/>
<path d="M44.6643 14.9573L43.4029 16.2979H43.639L44.6643 15.2266V14.9573Z" fill="#FAFAFA"/>
</g>
<g opacity="0.8">
<path d="M46.807 14.2761L44.9034 16.2979H45.2605L46.807 14.6822V14.2761Z" fill="#FAFAFA"/>
<path d="M46.807 14.9573L45.5442 16.2979H45.7818L46.807 15.2266V14.9573Z" fill="#FAFAFA"/>
</g>
<g opacity="0.8">
<path d="M48.9498 14.2761L47.0446 16.2979H47.4018L48.9498 14.6822V14.2761Z" fill="#FAFAFA"/>
<path d="M48.9498 14.9573L47.6869 16.2979H47.923L48.9498 15.2266V14.9573Z" fill="#FAFAFA"/>
</g>
<g opacity="0.8">
<path d="M51.091 14.2761L49.1874 16.2979H49.5445L51.091 14.6822V14.2761Z" fill="#FAFAFA"/>
<path d="M51.091 14.9573L49.8282 16.2979H50.0658L51.091 15.2266V14.9573Z" fill="#FAFAFA"/>
</g>
<g opacity="0.8">
<path d="M53.2338 14.2761L51.3286 16.2979H51.6858L53.2338 14.6822V14.2761Z" fill="#FAFAFA"/>
<path d="M53.2338 14.9573L51.9709 16.2979H52.207L53.2338 15.2266V14.9573Z" fill="#FAFAFA"/>
</g>
<g opacity="0.8">
<path d="M44.6643 16.5442L42.7606 18.5659H43.1178L44.6643 16.9503V16.5442Z" fill="#FAFAFA"/>
<path d="M44.6643 17.2251L43.4029 18.5657H43.639L44.6643 17.4944V17.2251Z" fill="#FAFAFA"/>
</g>
<g opacity="0.8">
<path d="M46.807 16.5442L44.9034 18.5659H45.2605L46.807 16.9503V16.5442Z" fill="#FAFAFA"/>
<path d="M46.807 17.2251L45.5442 18.5657H45.7818L46.807 17.4944V17.2251Z" fill="#FAFAFA"/>
</g>
<g opacity="0.8">
<path d="M48.9498 16.5442L47.0446 18.5659H47.4018L48.9498 16.9503V16.5442Z" fill="#FAFAFA"/>
<path d="M48.9498 17.2251L47.6869 18.5657H47.923L48.9498 17.4944V17.2251Z" fill="#FAFAFA"/>
</g>
<g opacity="0.8">
<path d="M51.091 16.5442L49.1874 18.5659H49.5445L51.091 16.9503V16.5442Z" fill="#FAFAFA"/>
<path d="M51.091 17.2251L49.8282 18.5657H50.0658L51.091 17.4944V17.2251Z" fill="#FAFAFA"/>
</g>
<g opacity="0.8">
<path d="M53.2338 16.5442L51.3286 18.5659H51.6858L53.2338 16.9503V16.5442Z" fill="#FAFAFA"/>
<path d="M53.2338 17.2251L51.9709 18.5657H52.207L53.2338 17.4944V17.2251Z" fill="#FAFAFA"/>
</g>
<g opacity="0.8">
<path d="M44.6643 18.8123L42.7606 20.834H43.1178L44.6643 19.2183V18.8123Z" fill="#FAFAFA"/>
<path d="M44.6643 19.4932L43.4029 20.8338H43.639L44.6643 19.7624V19.4932Z" fill="#FAFAFA"/>
</g>
<g opacity="0.8">
<path d="M46.807 18.8123L44.9034 20.834H45.2605L46.807 19.2183V18.8123Z" fill="#FAFAFA"/>
<path d="M46.807 19.4932L45.5442 20.8338H45.7818L46.807 19.7624V19.4932Z" fill="#FAFAFA"/>
</g>
<g opacity="0.8">
<path d="M48.9498 18.8123L47.0446 20.834H47.4018L48.9498 19.2183V18.8123Z" fill="#FAFAFA"/>
<path d="M48.9498 19.4932L47.6869 20.8338H47.923L48.9498 19.7624V19.4932Z" fill="#FAFAFA"/>
</g>
<g opacity="0.8">
<path d="M51.091 18.8123L49.1874 20.834H49.5445L51.091 19.2183V18.8123Z" fill="#FAFAFA"/>
<path d="M51.091 19.4932L49.8282 20.8338H50.0658L51.091 19.7624V19.4932Z" fill="#FAFAFA"/>
</g>
<g opacity="0.8">
<path d="M53.2338 18.8123L51.3286 20.834H51.6858L53.2338 19.2183V18.8123Z" fill="#FAFAFA"/>
<path d="M53.2338 19.4932L51.9709 20.8338H52.207L53.2338 19.7624V19.4932Z" fill="#FAFAFA"/>
</g>
<path d="M66.0987 9H54.2547V21.5726H66.0987V9Z" fill="#F5F5F5"/>
<path d="M56.8453 9.74023H54.9416V11.762H56.8453V9.74023Z" fill="#EBEBEB"/>
<path d="M58.9866 9.74023H57.0829V11.762H58.9866V9.74023Z" fill="#EBEBEB"/>
<path d="M61.1293 9.74023H59.2256V11.762H61.1293V9.74023Z" fill="#EBEBEB"/>
<path d="M63.2706 9.74023H61.3669V11.762H63.2706V9.74023Z" fill="#EBEBEB"/>
<path d="M65.4133 9.74023H63.5096V11.762H65.4133V9.74023Z" fill="#EBEBEB"/>
<path d="M56.8453 12.0081H54.9416V14.0298H56.8453V12.0081Z" fill="#EBEBEB"/>
<path d="M58.9866 12.0081H57.0829V14.0298H58.9866V12.0081Z" fill="#EBEBEB"/>
<path d="M61.1293 12.0081H59.2256V14.0298H61.1293V12.0081Z" fill="#EBEBEB"/>
<path d="M63.2706 12.0081H61.3669V14.0298H63.2706V12.0081Z" fill="#EBEBEB"/>
<path d="M65.4133 12.0081H63.5096V14.0298H65.4133V12.0081Z" fill="#EBEBEB"/>
<path d="M56.8453 14.2761H54.9416V16.2979H56.8453V14.2761Z" fill="#EBEBEB"/>
<path d="M58.9866 14.2761H57.0829V16.2979H58.9866V14.2761Z" fill="#EBEBEB"/>
<path d="M61.1293 14.2761H59.2256V16.2979H61.1293V14.2761Z" fill="#EBEBEB"/>
<path d="M63.2706 14.2761H61.3669V16.2979H63.2706V14.2761Z" fill="#EBEBEB"/>
<path d="M65.4133 14.2761H63.5096V16.2979H65.4133V14.2761Z" fill="#EBEBEB"/>
<path d="M56.8453 16.5442H54.9416V18.5659H56.8453V16.5442Z" fill="#EBEBEB"/>
<path d="M58.9866 16.5442H57.0829V18.5659H58.9866V16.5442Z" fill="#EBEBEB"/>
<path d="M61.1293 16.5442H59.2256V18.5659H61.1293V16.5442Z" fill="#EBEBEB"/>
<path d="M63.2706 16.5442H61.3669V18.5659H63.2706V16.5442Z" fill="#EBEBEB"/>
<path d="M65.4133 16.5442H63.5096V18.5659H65.4133V16.5442Z" fill="#EBEBEB"/>
<path d="M56.8453 18.8123H54.9416V20.834H56.8453V18.8123Z" fill="#EBEBEB"/>
<path d="M58.9866 18.8123H57.0829V20.834H58.9866V18.8123Z" fill="#EBEBEB"/>
<path d="M61.1293 18.8123H59.2256V20.834H61.1293V18.8123Z" fill="#EBEBEB"/>
<path d="M63.2706 18.8123H61.3669V20.834H63.2706V18.8123Z" fill="#EBEBEB"/>
<path d="M65.4133 18.8123H63.5096V20.834H65.4133V18.8123Z" fill="#EBEBEB"/>
<g opacity="0.8">
<path d="M56.8453 9.74023L54.9416 11.762H55.2987L56.8453 10.1463V9.74023Z" fill="#FAFAFA"/>
<path d="M56.8453 10.4214L55.5838 11.762H55.82L56.8453 10.6907V10.4214Z" fill="#FAFAFA"/>
</g>
<g opacity="0.8">
<path d="M58.988 9.74023L57.0829 11.762H57.44L58.988 10.1463V9.74023Z" fill="#FAFAFA"/>
<path d="M58.988 10.4214L57.7251 11.762H57.9613L58.988 10.6907V10.4214Z" fill="#FAFAFA"/>
</g>
<g opacity="0.8">
<path d="M61.1293 9.74023L59.2256 11.762H59.5827L61.1293 10.1463V9.74023Z" fill="#FAFAFA"/>
<path d="M61.1293 10.4214L59.8678 11.762H60.104L61.1293 10.6907V10.4214Z" fill="#FAFAFA"/>
</g>
<g opacity="0.8">
<path d="M63.272 9.74023L61.3669 11.762H61.724L63.272 10.1463V9.74023Z" fill="#FAFAFA"/>
<path d="M63.272 10.4214L62.0091 11.762H62.2453L63.272 10.6907V10.4214Z" fill="#FAFAFA"/>
</g>
<g opacity="0.8">
<path d="M65.4133 9.74023L63.5096 11.762H63.8667L65.4133 10.1463V9.74023Z" fill="#FAFAFA"/>
<path d="M65.4133 10.4214L64.1518 11.762H64.388L65.4133 10.6907V10.4214Z" fill="#FAFAFA"/>
</g>
<g opacity="0.8">
<path d="M56.8453 12.0081L54.9416 14.0298H55.2987L56.8453 12.4141V12.0081Z" fill="#FAFAFA"/>
<path d="M56.8453 12.6895L55.5838 14.0301H55.82L56.8453 12.9587V12.6895Z" fill="#FAFAFA"/>
</g>
<g opacity="0.8">
<path d="M58.988 12.0081L57.0829 14.0298H57.44L58.988 12.4141V12.0081Z" fill="#FAFAFA"/>
<path d="M58.988 12.6895L57.7251 14.0301H57.9613L58.988 12.9587V12.6895Z" fill="#FAFAFA"/>
</g>
<g opacity="0.8">
<path d="M61.1293 12.0081L59.2256 14.0298H59.5827L61.1293 12.4141V12.0081Z" fill="#FAFAFA"/>
<path d="M61.1293 12.6895L59.8678 14.0301H60.104L61.1293 12.9587V12.6895Z" fill="#FAFAFA"/>
</g>
<g opacity="0.8">
<path d="M63.272 12.0081L61.3669 14.0298H61.724L63.272 12.4141V12.0081Z" fill="#FAFAFA"/>
<path d="M63.272 12.6895L62.0091 14.0301H62.2453L63.272 12.9587V12.6895Z" fill="#FAFAFA"/>
</g>
<g opacity="0.8">
<path d="M65.4133 12.0081L63.5096 14.0298H63.8667L65.4133 12.4141V12.0081Z" fill="#FAFAFA"/>
<path d="M65.4133 12.6895L64.1518 14.0301H64.388L65.4133 12.9587V12.6895Z" fill="#FAFAFA"/>
</g>
<g opacity="0.8">
<path d="M56.8453 14.2761L54.9416 16.2979H55.2987L56.8453 14.6822V14.2761Z" fill="#FAFAFA"/>
<path d="M56.8453 14.9573L55.5838 16.2979H55.82L56.8453 15.2266V14.9573Z" fill="#FAFAFA"/>
</g>
<g opacity="0.8">
<path d="M58.988 14.2761L57.0829 16.2979H57.44L58.988 14.6822V14.2761Z" fill="#FAFAFA"/>
<path d="M58.988 14.9573L57.7251 16.2979H57.9613L58.988 15.2266V14.9573Z" fill="#FAFAFA"/>
</g>
<g opacity="0.8">
<path d="M61.1293 14.2761L59.2256 16.2979H59.5827L61.1293 14.6822V14.2761Z" fill="#FAFAFA"/>
<path d="M61.1293 14.9573L59.8678 16.2979H60.104L61.1293 15.2266V14.9573Z" fill="#FAFAFA"/>
</g>
<g opacity="0.8">
<path d="M63.272 14.2761L61.3669 16.2979H61.724L63.272 14.6822V14.2761Z" fill="#FAFAFA"/>
<path d="M63.272 14.9573L62.0091 16.2979H62.2453L63.272 15.2266V14.9573Z" fill="#FAFAFA"/>
</g>
<g opacity="0.8">
<path d="M65.4133 14.2761L63.5096 16.2979H63.8667L65.4133 14.6822V14.2761Z" fill="#FAFAFA"/>
<path d="M65.4133 14.9573L64.1518 16.2979H64.388L65.4133 15.2266V14.9573Z" fill="#FAFAFA"/>
</g>
<g opacity="0.8">
<path d="M56.8453 16.5442L54.9416 18.5659H55.2987L56.8453 16.9503V16.5442Z" fill="#FAFAFA"/>
<path d="M56.8453 17.2251L55.5838 18.5657H55.82L56.8453 17.4944V17.2251Z" fill="#FAFAFA"/>
</g>
<g opacity="0.8">
<path d="M58.988 16.5442L57.0829 18.5659H57.44L58.988 16.9503V16.5442Z" fill="#FAFAFA"/>
<path d="M58.988 17.2251L57.7251 18.5657H57.9613L58.988 17.4944V17.2251Z" fill="#FAFAFA"/>
</g>
<g opacity="0.8">
<path d="M61.1293 16.5442L59.2256 18.5659H59.5827L61.1293 16.9503V16.5442Z" fill="#FAFAFA"/>
<path d="M61.1293 17.2251L59.8678 18.5657H60.104L61.1293 17.4944V17.2251Z" fill="#FAFAFA"/>
</g>
<g opacity="0.8">
<path d="M63.272 16.5442L61.3669 18.5659H61.724L63.272 16.9503V16.5442Z" fill="#FAFAFA"/>
<path d="M63.272 17.2251L62.0091 18.5657H62.2453L63.272 17.4944V17.2251Z" fill="#FAFAFA"/>
</g>
<g opacity="0.8">
<path d="M65.4133 16.5442L63.5096 18.5659H63.8667L65.4133 16.9503V16.5442Z" fill="#FAFAFA"/>
<path d="M65.4133 17.2251L64.1518 18.5657H64.388L65.4133 17.4944V17.2251Z" fill="#FAFAFA"/>
</g>
<g opacity="0.8">
<path d="M56.8453 18.8123L54.9416 20.834H55.2987L56.8453 19.2183V18.8123Z" fill="#FAFAFA"/>
<path d="M56.8453 19.4932L55.5838 20.8338H55.82L56.8453 19.7624V19.4932Z" fill="#FAFAFA"/>
</g>
<g opacity="0.8">
<path d="M58.988 18.8123L57.0829 20.834H57.44L58.988 19.2183V18.8123Z" fill="#FAFAFA"/>
<path d="M58.988 19.4932L57.7251 20.8338H57.9613L58.988 19.7624V19.4932Z" fill="#FAFAFA"/>
</g>
<g opacity="0.8">
<path d="M61.1293 18.8123L59.2256 20.834H59.5827L61.1293 19.2183V18.8123Z" fill="#FAFAFA"/>
<path d="M61.1293 19.4932L59.8678 20.8338H60.104L61.1293 19.7624V19.4932Z" fill="#FAFAFA"/>
</g>
<g opacity="0.8">
<path d="M63.272 18.8123L61.3669 20.834H61.724L63.272 19.2183V18.8123Z" fill="#FAFAFA"/>
<path d="M63.272 19.4932L62.0091 20.8338H62.2453L63.272 19.7624V19.4932Z" fill="#FAFAFA"/>
</g>
<g opacity="0.8">
<path d="M65.4133 18.8123L63.5096 20.834H63.8667L65.4133 19.2183V18.8123Z" fill="#FAFAFA"/>
<path d="M65.4133 19.4932L64.1518 20.8338H64.388L65.4133 19.7624V19.4932Z" fill="#FAFAFA"/>
</g>
<path d="M47 62.6557C62.4199 62.6557 74.9202 61.9259 74.9202 61.0256C74.9202 60.1253 62.4199 59.3955 47 59.3955C31.5801 59.3955 19.0798 60.1253 19.0798 61.0256C19.0798 61.9259 31.5801 62.6557 47 62.6557Z" fill="#F5F5F5"/>
<path d="M76.9707 15.6528H74.4522V29.3055H76.9707V15.6528Z" fill="#407BFF"/>
<path opacity="0.2" d="M76.9707 15.6528H74.949V29.3055H76.9707V15.6528Z" fill="white"/>
<path d="M76.52 41.4966C76.355 41.4966 76.1916 41.5291 76.0391 41.5923C75.8867 41.6555 75.7482 41.7481 75.6316 41.8649C75.515 41.9816 75.4225 42.1202 75.3595 42.2728C75.2965 42.4253 75.2641 42.5887 75.2643 42.7537V46.0153C75.2643 46.3883 74.5026 46.4128 74.4536 46.0153V40.1113H73.5493V46.0384C73.5493 47.6843 76.2363 47.6843 76.2363 46.0139V42.8848C76.2361 42.8291 76.2469 42.7738 76.2681 42.7223C76.2893 42.6708 76.3205 42.6239 76.3598 42.5845C76.3991 42.545 76.4459 42.5137 76.4973 42.4923C76.5488 42.471 76.604 42.46 76.6597 42.46H77.0542V41.4966H76.52Z" fill="#263238"/>
<path opacity="0.3" d="M76.52 41.4966C76.355 41.4966 76.1916 41.5291 76.0391 41.5923C75.8867 41.6555 75.7482 41.7481 75.6316 41.8649C75.515 41.9816 75.4225 42.1202 75.3595 42.2728C75.2965 42.4253 75.2641 42.5887 75.2643 42.7537V46.0153C75.2643 46.3883 74.5026 46.4128 74.4536 46.0153V40.1113H73.5493V46.0384C73.5493 47.6843 76.2363 47.6843 76.2363 46.0139V42.8848C76.2361 42.8291 76.2469 42.7738 76.2681 42.7223C76.2893 42.6708 76.3205 42.6239 76.3598 42.5845C76.3991 42.545 76.4459 42.5137 76.4973 42.4923C76.5488 42.471 76.604 42.46 76.6597 42.46H77.0542V41.4966H76.52Z" fill="white"/>
<path opacity="0.2" d="M74.3197 40.5762H74.1901V45.488C74.1899 45.5733 74.2075 45.6577 74.2419 45.7357L74.3197 45.9085V40.5762Z" fill="white"/>
<path opacity="0.2" d="M76.0693 42.8472V46.1016C76.0923 46.548 75.5826 47.1096 74.9893 47.1096C75.5653 46.9828 75.9411 46.5436 75.9282 46.1016V43.1683C75.9282 43.0732 75.9843 42.8846 76.0693 42.8472Z" fill="white"/>
<path opacity="0.1" d="M73.6213 40.5762V46.0986L73.676 45.7587C73.6767 45.7511 73.6767 45.7434 73.676 45.7357V40.5762H73.6213Z" fill="white"/>
<path opacity="0.1" d="M75.3306 42.6326C75.3003 42.2711 75.7726 41.6447 76.1859 41.6001C75.9654 41.6753 75.7714 41.8128 75.6274 41.9961C75.4835 42.1794 75.3959 42.4005 75.3752 42.6326V46.1923C75.3752 46.3665 75.1232 46.4529 74.9346 46.4399C75.1117 46.4327 75.332 46.3694 75.3349 46.1937L75.3306 42.6326Z" fill="white"/>
<path d="M73.3794 40.5765H74.7344C74.7526 40.5765 74.7705 40.572 74.7866 40.5635C74.8027 40.555 74.8164 40.5426 74.8266 40.5275L75.5466 39.4749H72.5989L73.2872 40.5261C73.2973 40.5413 73.311 40.5539 73.327 40.5627C73.3431 40.5715 73.3611 40.5762 73.3794 40.5765Z" fill="#263238"/>
<path opacity="0.1" d="M73.3794 40.5765H74.7344C74.7526 40.5765 74.7705 40.572 74.7866 40.5635C74.8027 40.555 74.8164 40.5426 74.8266 40.5275L75.5466 39.4749H72.5989L73.2872 40.5261C73.2973 40.5413 73.311 40.5539 73.327 40.5627C73.3431 40.5715 73.3611 40.5762 73.3794 40.5765Z" fill="white"/>
<path opacity="0.2" d="M75.1448 39.4734L74.6221 40.5764H74.4522L74.8568 39.4734H75.1448Z" fill="white"/>
<path opacity="0.1" d="M72.7386 39.4734L73.424 40.5764H73.4874L72.8926 39.4734H72.7386Z" fill="white"/>
<path d="M74.9504 32.6838C74.9504 32.763 74.9605 32.8278 74.9749 32.8278H75.2456C75.2586 32.8278 75.2701 32.763 75.2701 32.6838C75.2701 32.6046 75.2586 32.5398 75.2456 32.5398H74.9749C74.9605 32.5398 74.9504 32.6046 74.9504 32.6838Z" fill="#263238"/>
<path opacity="0.2" d="M74.9504 32.6838C74.9504 32.763 74.9605 32.8278 74.9749 32.8278H75.2456C75.2586 32.8278 75.2701 32.763 75.2701 32.6838C75.2701 32.6046 75.2586 32.5398 75.2456 32.5398H74.9749C74.9605 32.5398 74.9504 32.6046 74.9504 32.6838Z" fill="white"/>
<path d="M74.5904 34.6767C74.7499 34.7824 74.9369 34.8388 75.1282 34.8388C75.3195 34.8388 75.5066 34.7824 75.6661 34.6767L75.368 32.8623H74.841L74.5904 34.6767Z" fill="#263238"/>
<path opacity="0.7" d="M74.5904 34.6767C74.7499 34.7824 74.9369 34.8388 75.1282 34.8388C75.3195 34.8388 75.5066 34.7824 75.6661 34.6767L75.368 32.8623H74.841L74.5904 34.6767Z" fill="white"/>
<path d="M74.1843 32.7529C74.1843 32.7911 74.1995 32.8277 74.2265 32.8547C74.2535 32.8817 74.2901 32.8969 74.3283 32.8969H75.9296C75.9678 32.8969 76.0044 32.8817 76.0314 32.8547C76.0584 32.8277 76.0736 32.7911 76.0736 32.7529C76.0736 32.7147 76.0584 32.6781 76.0314 32.6511C76.0044 32.6241 75.9678 32.6089 75.9296 32.6089H74.3283C74.2901 32.6089 74.2535 32.6241 74.2265 32.6511C74.1995 32.6781 74.1843 32.7147 74.1843 32.7529Z" fill="#263238"/>
<path opacity="0.4" d="M74.1843 32.7529C74.1843 32.7911 74.1995 32.8277 74.2265 32.8547C74.2535 32.8817 74.2901 32.8969 74.3283 32.8969H75.9296C75.9678 32.8969 76.0044 32.8817 76.0314 32.8547C76.0584 32.8277 76.0736 32.7911 76.0736 32.7529C76.0736 32.7147 76.0584 32.6781 76.0314 32.6511C76.0044 32.6241 75.9678 32.6089 75.9296 32.6089H74.3283C74.2901 32.6089 74.2535 32.6241 74.2265 32.6511C74.1995 32.6781 74.1843 32.7147 74.1843 32.7529Z" fill="white"/>
<path d="M74.3989 33.097L74.8093 33.061C74.8527 33.075 74.8893 33.1049 74.9117 33.1446C74.9342 33.1844 74.9408 33.2312 74.9302 33.2756C74.9302 33.411 74.864 33.4844 74.7574 33.4786L74.5155 33.4513C74.4531 33.4422 74.3896 33.4581 74.3389 33.4956C74.2882 33.5331 74.2544 33.5891 74.2448 33.6514V33.699L73.9798 33.6874C73.9744 33.5979 73.9792 33.508 73.9942 33.4196C74.0225 33.332 74.076 33.2547 74.1479 33.1973C74.2199 33.1399 74.3072 33.1051 74.3989 33.097Z" fill="#263238"/>
<g opacity="0.4">
<path d="M74.3989 33.097L74.8093 33.061C74.8527 33.075 74.8893 33.1049 74.9117 33.1446C74.9342 33.1844 74.9408 33.2312 74.9302 33.2756C74.9302 33.411 74.864 33.4844 74.7574 33.4786L74.5155 33.4513C74.4531 33.4422 74.3896 33.4581 74.3389 33.4956C74.2882 33.5331 74.2544 33.5891 74.2448 33.6514V33.699L73.9798 33.6874C73.9744 33.5979 73.9792 33.508 73.9942 33.4196C74.0225 33.332 74.076 33.2547 74.1479 33.1973C74.2199 33.1399 74.3072 33.1051 74.3989 33.097Z" fill="white"/>
</g>
<path d="M67.4077 34.6147H76.5661C76.6949 34.6147 76.8185 34.6658 76.9097 34.7568C77.001 34.8478 77.0524 34.9712 77.0528 35.1V39.1421C77.0523 39.2081 77.0273 39.2715 76.9825 39.3199C76.9378 39.3684 76.8766 39.3985 76.8109 39.4042C70.8867 39.8794 68.1709 39.3495 67.0405 35.6602V34.9776C67.0416 34.881 67.0808 34.7887 67.1495 34.7208C67.2183 34.6528 67.311 34.6147 67.4077 34.6147Z" fill="#407BFF"/>
<path opacity="0.2" d="M67.4077 34.6147H76.5661C76.6949 34.6147 76.8185 34.6658 76.9097 34.7568C77.001 34.8478 77.0524 34.9712 77.0528 35.1V39.1421C77.0523 39.2081 77.0273 39.2715 76.9825 39.3199C76.9378 39.3684 76.8766 39.3985 76.8109 39.4042C70.8867 39.8794 68.1709 39.3495 67.0405 35.6602V34.9776C67.0416 34.881 67.0808 34.7887 67.1495 34.7208C67.2183 34.6528 67.311 34.6147 67.4077 34.6147Z" fill="white"/>
<path opacity="0.2" d="M67.4077 34.6147H76.5661C76.6949 34.6147 76.8185 34.6658 76.9097 34.7568C77.001 34.8478 77.0524 34.9712 77.0528 35.1V35.6299L67.0405 35.6645V34.9819C67.0405 34.8846 67.0792 34.7912 67.148 34.7223C67.2169 34.6534 67.3103 34.6147 67.4077 34.6147Z" fill="black"/>
<path opacity="0.1" d="M68.2501 34.6147H76.5661C76.6949 34.6147 76.8185 34.6658 76.9097 34.7568C77.001 34.8478 77.0524 34.9712 77.0528 35.1V35.6299L67.8829 35.6645V34.9819C67.8829 34.8846 67.9216 34.7912 67.9904 34.7223C68.0593 34.6534 68.1527 34.6147 68.2501 34.6147Z" fill="white"/>
<path opacity="0.1" d="M77.0528 35.6299V39.142C77.0523 39.208 77.0273 39.2714 76.9825 39.3199C76.9378 39.3684 76.8766 39.3984 76.8109 39.4041C70.8867 39.8793 69.0176 39.3494 67.8829 35.6601L77.0528 35.6299Z" fill="white"/>
<path d="M20.756 50.7773H45.5139C45.6989 50.7773 45.8816 50.8174 46.0495 50.8949C46.2175 50.9724 46.3666 51.0854 46.4865 51.2262C46.6065 51.367 46.6944 51.5321 46.7443 51.7102C46.7942 51.8883 46.8048 52.0751 46.7754 52.2577L45.3728 61.0028H21.0123L19.496 52.2735C19.4643 52.0899 19.4731 51.9016 19.5219 51.7217C19.5706 51.5419 19.658 51.3749 19.778 51.2324C19.898 51.0898 20.0478 50.9753 20.2167 50.8967C20.3856 50.8181 20.5697 50.7774 20.756 50.7773Z" fill="#407BFF"/>
<path opacity="0.3" d="M21.0123 61.0028L19.496 52.2404C19.4647 52.061 19.473 51.8769 19.5204 51.7011C19.5678 51.5252 19.653 51.3619 19.7702 51.2225C19.8874 51.0831 20.0336 50.971 20.1987 50.8941C20.3638 50.8172 20.5437 50.7774 20.7258 50.7773H31.0765C31.2558 50.7773 31.433 50.8159 31.5961 50.8905C31.7591 50.9651 31.9042 51.0739 32.0215 51.2096C32.1387 51.3452 32.2253 51.5046 32.2755 51.6768C32.3256 51.8489 32.3381 52.0299 32.312 52.2073L31.016 61.0013L21.0123 61.0028Z" fill="white"/>
<path d="M40.183 18.0791H20.4766C20.3621 18.0791 20.2522 18.1246 20.1712 18.2056C20.0902 18.2866 20.0446 18.3965 20.0446 18.5111C20.0446 18.6257 20.0902 18.7356 20.1712 18.8166C20.2522 18.8976 20.3621 18.9431 20.4766 18.9431H40.183C40.2976 18.9431 40.4075 18.8976 40.4885 18.8166C40.5695 18.7356 40.615 18.6257 40.615 18.5111C40.615 18.3965 40.5695 18.2866 40.4885 18.2056C40.4075 18.1246 40.2976 18.0791 40.183 18.0791Z" fill="#407BFF"/>
<path opacity="0.5" d="M40.183 18.0791H20.4766C20.3621 18.0791 20.2522 18.1246 20.1712 18.2056C20.0902 18.2866 20.0446 18.3965 20.0446 18.5111C20.0446 18.6257 20.0902 18.7356 20.1712 18.8166C20.2522 18.8976 20.3621 18.9431 20.4766 18.9431H40.183C40.2976 18.9431 40.4075 18.8976 40.4885 18.8166C40.5695 18.7356 40.615 18.6257 40.615 18.5111C40.615 18.3965 40.5695 18.2866 40.4885 18.2056C40.4075 18.1246 40.2976 18.0791 40.183 18.0791Z" fill="white"/>
<path d="M28.856 19.9194H29.0677V17.8141C29.0677 17.7858 29.0564 17.7587 29.0365 17.7387C29.0165 17.7187 28.9894 17.7075 28.9611 17.7075C28.9331 17.7079 28.9064 17.7193 28.8867 17.7392C28.867 17.7592 28.856 17.7861 28.856 17.8141V19.9194Z" fill="#263238"/>
<path opacity="0.7" d="M28.856 19.9194H29.0677V17.8141C29.0677 17.7858 29.0564 17.7587 29.0365 17.7387C29.0165 17.7187 28.9894 17.7075 28.9611 17.7075C28.9331 17.7079 28.9064 17.7193 28.8867 17.7392C28.867 17.7592 28.856 17.7861 28.856 17.8141V19.9194Z" fill="white"/>
<path d="M27.1784 19.9194H27.3886V17.8141C27.3886 17.7861 27.3776 17.7592 27.3579 17.7392C27.3383 17.7193 27.3115 17.7079 27.2835 17.7075C27.2696 17.7075 27.2558 17.7103 27.243 17.7157C27.2301 17.721 27.2185 17.7289 27.2087 17.7388C27.1989 17.7487 27.1912 17.7605 27.186 17.7734C27.1808 17.7863 27.1782 17.8002 27.1784 17.8141V19.9194Z" fill="#263238"/>
<path opacity="0.7" d="M27.1784 19.9194H27.3886V17.8141C27.3886 17.7861 27.3776 17.7592 27.3579 17.7392C27.3383 17.7193 27.3115 17.7079 27.2835 17.7075C27.2696 17.7075 27.2558 17.7103 27.243 17.7157C27.2301 17.721 27.2185 17.7289 27.2087 17.7388C27.1989 17.7487 27.1912 17.7605 27.186 17.7734C27.1808 17.7863 27.1782 17.8002 27.1784 17.8141V19.9194Z" fill="white"/>
<path d="M25.3669 19.9194H25.5771V17.8141C25.5771 17.7861 25.5661 17.7592 25.5464 17.7392C25.5267 17.7193 25.5 17.7079 25.472 17.7075C25.444 17.7079 25.4173 17.7193 25.3976 17.7392C25.3779 17.7592 25.3669 17.7861 25.3669 17.8141V19.9194Z" fill="#263238"/>
<path opacity="0.7" d="M25.3669 19.9194H25.5771V17.8141C25.5771 17.7861 25.5661 17.7592 25.5464 17.7392C25.5267 17.7193 25.5 17.7079 25.472 17.7075C25.444 17.7079 25.4173 17.7193 25.3976 17.7392C25.3779 17.7592 25.3669 17.7861 25.3669 17.8141V19.9194Z" fill="white"/>
<path d="M23.8678 19.9194H24.0795V17.8141C24.0795 17.7861 24.0685 17.7592 24.0488 17.7392C24.0292 17.7193 24.0024 17.7079 23.9744 17.7075C23.9461 17.7075 23.919 17.7187 23.8991 17.7387C23.8791 17.7587 23.8678 17.7858 23.8678 17.8141V19.9194Z" fill="#263238"/>
<path opacity="0.7" d="M23.8678 19.9194H24.0795V17.8141C24.0795 17.7861 24.0685 17.7592 24.0488 17.7392C24.0292 17.7193 24.0024 17.7079 23.9744 17.7075C23.9461 17.7075 23.919 17.7187 23.8991 17.7387C23.8791 17.7587 23.8678 17.7858 23.8678 17.8141V19.9194Z" fill="white"/>
<path d="M22.2968 19.9194H22.5085V17.8141C22.5085 17.7858 22.4973 17.7587 22.4773 17.7387C22.4573 17.7187 22.4302 17.7075 22.4019 17.7075C22.3739 17.7079 22.3472 17.7193 22.3275 17.7392C22.3078 17.7592 22.2968 17.7861 22.2968 17.8141V19.9194Z" fill="#263238"/>
<path opacity="0.7" d="M22.2968 19.9194H22.5085V17.8141C22.5085 17.7858 22.4973 17.7587 22.4773 17.7387C22.4573 17.7187 22.4302 17.7075 22.4019 17.7075C22.3739 17.7079 22.3472 17.7193 22.3275 17.7392C22.3078 17.7592 22.2968 17.7861 22.2968 17.8141V19.9194Z" fill="white"/>
<path d="M20.949 19.9194H21.1592V17.8141C21.1594 17.8002 21.1568 17.7863 21.1516 17.7734C21.1464 17.7605 21.1387 17.7487 21.1289 17.7388C21.1191 17.7289 21.1075 17.721 21.0946 17.7157C21.0818 17.7103 21.068 17.7075 21.0541 17.7075C21.0261 17.7079 20.9993 17.7193 20.9797 17.7392C20.96 17.7592 20.949 17.7861 20.949 17.8141V19.9194Z" fill="#263238"/>
<path opacity="0.7" d="M20.949 19.9194H21.1592V17.8141C21.1594 17.8002 21.1568 17.7863 21.1516 17.7734C21.1464 17.7605 21.1387 17.7487 21.1289 17.7388C21.1191 17.7289 21.1075 17.721 21.0946 17.7157C21.0818 17.7103 21.068 17.7075 21.0541 17.7075C21.0261 17.7079 20.9993 17.7193 20.9797 17.7392C20.96 17.7592 20.949 17.7861 20.949 17.8141V19.9194Z" fill="white"/>
<path d="M20.2794 19.9194H20.491V17.8141C20.491 17.7861 20.48 17.7592 20.4603 17.7392C20.4407 17.7193 20.4139 17.7079 20.3859 17.7075C20.3577 17.7075 20.3306 17.7187 20.3106 17.7387C20.2906 17.7587 20.2794 17.7858 20.2794 17.8141V19.9194Z" fill="#263238"/>
<path opacity="0.7" d="M20.2794 19.9194H20.491V17.8141C20.491 17.7861 20.48 17.7592 20.4603 17.7392C20.4407 17.7193 20.4139 17.7079 20.3859 17.7075C20.3577 17.7075 20.3306 17.7187 20.3106 17.7387C20.2906 17.7587 20.2794 17.7858 20.2794 17.8141V19.9194Z" fill="white"/>
<path d="M20.0893 19.6316L21.2816 19.7943L19.7178 52.1439L18.5542 51.7321L20.0893 19.6316Z" fill="#407BFF"/>
<path d="M29.2822 19.7134L29.6696 50.9542L26.9653 50.6777L27.4981 19.7134H29.2822Z" fill="#407BFF"/>
<path opacity="0.2" d="M27.6723 19.7134L28.2181 50.8059L26.9653 50.6777L27.4981 19.7134H27.6723Z" fill="black"/>
<path d="M25.7514 19.7134L27.4923 19.7796L26.9653 51.7548L24.9133 51.4006L25.7514 19.7134Z" fill="#407BFF"/>
<path opacity="0.2" d="M25.7514 19.7134L25.9083 19.7422L25.7427 51.5374L24.9133 51.4006L25.7514 19.7134Z" fill="black"/>
<path d="M24.2336 19.7798L25.7398 19.8388L24.9133 52.1438L23.0758 51.7838L24.2336 19.7798Z" fill="#407BFF"/>
<path opacity="0.2" d="M24.2336 19.7798L24.297 19.7827L23.8563 51.9364L23.0758 51.7838L24.2336 19.7798Z" fill="black"/>
<path d="M22.6107 19.6704L24.2178 19.8778L23.0758 52.6867L21.2816 52.2706L22.6107 19.6704Z" fill="#407BFF"/>
<path opacity="0.2" d="M22.6107 19.6704L22.6798 19.6805L21.4501 52.3094L21.2816 52.2706L22.6107 19.6704Z" fill="black"/>
<path d="M21.2816 19.7134H22.6021L21.2816 52.4532L19.7178 51.9838L21.2816 19.7134Z" fill="#407BFF"/>
<path opacity="0.2" d="M21.2816 19.7134H21.3493L19.9179 52.0443L19.7178 51.9838L21.2816 19.7134Z" fill="black"/>
<path d="M39.1563 49.4352L41.8405 49.3546L41.433 49.7333C41.3235 50.3582 40.7634 51.071 40.3861 51.071H39.3378C38.6811 51.0782 38.4205 50.7758 38.4939 50.207L38.6379 49.055C38.3355 48.9643 38.3499 48.5136 38.5299 48.299C38.7546 48.0298 39.1059 47.9722 39.3622 48.299C39.4904 48.5222 39.2917 49.0248 39.1563 49.4352Z" fill="#407BFF"/>
<path opacity="0.3" d="M39.1563 49.4352L41.8405 49.3546L41.433 49.7333C41.3235 50.3582 40.7634 51.071 40.3861 51.071H39.3378C38.6811 51.0782 38.4205 50.7758 38.4939 50.207L38.6379 49.055C38.3355 48.9643 38.3499 48.5136 38.5299 48.299C38.7546 48.0298 39.1059 47.9722 39.3622 48.299C39.4904 48.5222 39.2917 49.0248 39.1563 49.4352Z" fill="white"/>
<path d="M37.7379 48.6864L38.4421 48.5222C38.5149 48.6215 38.6107 48.7015 38.7214 48.7554C38.832 48.8094 38.9541 48.8356 39.0771 48.8318C39.1146 48.9067 39.0915 48.983 38.9619 49.0565H38.0893C37.9428 48.9647 37.822 48.8374 37.7379 48.6864Z" fill="#263238"/>
<path opacity="0.2" d="M37.7379 48.6864L38.4421 48.5222C38.5149 48.6215 38.6107 48.7015 38.7214 48.7554C38.832 48.8094 38.9541 48.8356 39.0771 48.8318C39.1146 48.9067 39.0915 48.983 38.9619 49.0565H38.0893C37.9428 48.9647 37.822 48.8374 37.7379 48.6864Z" fill="white"/>
<path d="M36.8451 40.4438H34.7499V40.9579H36.8451V40.4438Z" fill="#263238"/>
<path opacity="0.5" d="M36.8451 40.4438H34.7499V40.9579H36.8451V40.4438Z" fill="white"/>
<path d="M34.4302 41.534C34.8907 41.534 35.264 41.1607 35.264 40.7002C35.264 40.2397 34.8907 39.8665 34.4302 39.8665C33.9698 39.8665 33.5965 40.2397 33.5965 40.7002C33.5965 41.1607 33.9698 41.534 34.4302 41.534Z" fill="#407BFF"/>
<path opacity="0.3" d="M34.4302 41.534C34.8907 41.534 35.264 41.1607 35.264 40.7002C35.264 40.2397 34.8907 39.8665 34.4302 39.8665C33.9698 39.8665 33.5965 40.2397 33.5965 40.7002C33.5965 41.1607 33.9698 41.534 34.4302 41.534Z" fill="white"/>
<path d="M37.5968 41.534C38.0573 41.534 38.4306 41.1607 38.4306 40.7002C38.4306 40.2397 38.0573 39.8665 37.5968 39.8665C37.1363 39.8665 36.763 40.2397 36.763 40.7002C36.763 41.1607 37.1363 41.534 37.5968 41.534Z" fill="#263238"/>
<path opacity="0.3" d="M37.5968 41.534C38.0573 41.534 38.4306 41.1607 38.4306 40.7002C38.4306 40.2397 38.0573 39.8665 37.5968 39.8665C37.1363 39.8665 36.763 40.2397 36.763 40.7002C36.763 41.1607 37.1363 41.534 37.5968 41.534Z" fill="white"/>
<path d="M35.9811 28.2053H35.6024L36.4808 43.3253C36.501 43.6277 36.4448 43.8754 36.1928 43.9834C35.7997 44.1015 35.6427 43.9344 35.6168 43.6047V40.958H35.264V43.8034C35.264 44.401 35.696 44.5623 36.2922 44.4687C36.7242 44.3031 36.8538 43.8725 36.8451 43.3239L35.9811 28.2053Z" fill="#407BFF"/>
<path opacity="0.7" d="M35.9811 28.2053H35.6024L36.4808 43.3253C36.501 43.6277 36.4448 43.8754 36.1928 43.9834C35.7997 44.1015 35.6427 43.9344 35.6168 43.6047V40.958H35.264V43.8034C35.264 44.401 35.696 44.5623 36.2922 44.4687C36.7242 44.3031 36.8538 43.8725 36.8451 43.3239L35.9811 28.2053Z" fill="white"/>
<path d="M35.8558 23.613C35.7738 22.8512 35.8098 22.0967 34.5166 21.62C34.253 21.5613 33.9775 21.5895 33.7312 21.7003C33.4848 21.8111 33.281 21.9987 33.1501 22.2349L32.6158 23.0989L34.6434 24.2509L34.9011 23.865C34.9135 23.8465 34.9312 23.8322 34.952 23.8242C34.9727 23.8162 34.9954 23.8147 35.017 23.8201C35.0386 23.8255 35.058 23.8373 35.0725 23.8541C35.0871 23.8709 35.0961 23.8918 35.0984 23.9139L35.4915 28.208H36.1179L35.8558 23.613Z" fill="#407BFF"/>
<path opacity="0.5" d="M35.8558 23.613C35.7738 22.8512 35.8098 22.0967 34.5166 21.62C34.253 21.5613 33.9775 21.5895 33.7312 21.7003C33.4848 21.8111 33.281 21.9987 33.1501 22.2349L32.6158 23.0989L34.6434 24.2509L34.9011 23.865C34.9135 23.8465 34.9312 23.8322 34.952 23.8242C34.9727 23.8162 34.9954 23.8147 35.017 23.8201C35.0386 23.8255 35.058 23.8373 35.0725 23.8541C35.0871 23.8709 35.0961 23.8918 35.0984 23.9139L35.4915 28.208H36.1179L35.8558 23.613Z" fill="white"/>
<path d="M32.325 23.4575L34.5166 24.6397L34.7298 24.2913L32.5582 23.0601L32.325 23.4575Z" fill="#407BFF"/>
<path opacity="0.4" d="M32.325 23.4575L34.5166 24.6397L34.7298 24.2913L32.5582 23.0601L32.325 23.4575Z" fill="white"/>
<path d="M59.852 23.9458L60.9291 26.5119C62.7133 26.486 64.2526 25.7674 65.589 24.4686C65.733 24.3246 65.7027 24.1143 65.589 23.9401C65.0518 23.1121 64.604 22.5879 61.269 21.6836L61.0026 22.2092C61.9069 22.6556 62.6773 23.1596 63.2432 23.7486C62.1571 24.1481 60.9771 24.2167 59.852 23.9458Z" fill="#E4897B"/>
<path opacity="0.2" d="M63.2403 23.7485C63.3722 23.9118 63.5304 24.0519 63.7083 24.1633C63.3155 24.0362 62.9058 23.9687 62.493 23.9631C62.7461 23.9064 62.9956 23.8347 63.2403 23.7485Z" fill="black"/>
<path d="M55.4038 60.7565H54.272L54.4693 58.1343H55.6026L55.4038 60.7565Z" fill="#E4897B"/>
<path opacity="0.2" d="M54.38 59.3221H55.5118L55.5262 59.1406H54.393L54.38 59.3221Z" fill="black"/>
<path d="M61.4461 60.7565H60.3142L60.4798 58.1343H61.6131L61.4461 60.7565Z" fill="#E4897B"/>
<path opacity="0.2" d="M60.4237 59.0258L61.5483 59.1467L61.5627 58.9307L60.4381 58.7925L60.4237 59.0258Z" fill="black"/>
<path d="M55.1562 35.0208H61.1638C61.7398 38.1398 63.524 49.1788 62.241 59.0155L60.2062 58.762C60.2062 58.762 60.3949 45.7056 58.5992 40.8772C58.3933 43.462 58.147 46.2052 57.9339 47.6726C57.4112 51.2726 56.2923 59.1407 56.2923 59.1407H54.2216C54.2216 59.1407 54.645 51.6096 54.8408 48.0715C55.0554 44.231 55.1475 35.8099 55.1562 35.0208Z" fill="#407BFF"/>
<path opacity="0.6" d="M54.2216 59.1408H56.2923C56.2923 59.1408 57.4112 51.2726 57.9339 47.6726C58.147 46.211 58.3918 43.4621 58.5992 40.8787C58.8948 41.7249 59.1193 42.5943 59.2702 43.4779C60.343 49.2681 60.2062 58.7635 60.2062 58.7635L62.241 59.0155C63.524 49.1789 61.7355 38.1168 61.1638 35.0928H55.1562C55.1475 35.8128 55.0554 44.267 54.8408 48.1075C54.645 51.6456 54.2216 59.1408 54.2216 59.1408Z" fill="white"/>
<path opacity="0.3" d="M54.7011 59.1408C55.6107 51.1592 55.9193 43.1206 55.6242 35.0928H55.8502C56.2342 43.3613 55.9381 51.3773 54.9618 59.1408H54.7011Z" fill="white"/>
<path opacity="0.2" d="M58.6006 40.8801C58.8963 41.7263 59.1207 42.5957 59.2717 43.4793C59.4387 41.1753 58.7677 38.7417 58.7677 38.7417L58.6006 40.8801Z" fill="black"/>
<path d="M59.6446 19.0484C59.6446 19.0484 59.8362 20.3329 59.0082 20.9334C58.1802 21.5339 58.1802 18.6294 58.1802 18.6294L59.6446 19.0484Z" fill="#2E353A"/>
<path d="M56.2779 24.0653C56.8294 24.5664 58.1802 24.3806 58.1802 24.3806C58.1802 24.3806 59.024 24.1502 58.8469 23.8867C58.3501 23.8046 58.1096 23.5728 58.0102 23.2761C57.9558 23.0923 57.9387 22.8994 57.9598 22.7088C57.9681 22.6025 57.982 22.4968 58.0016 22.392L56.3312 21.155C56.5501 21.9672 56.8179 23.4734 56.2779 24.0653Z" fill="#E4897B"/>
<path opacity="0.2" d="M56.7171 21.9412C56.7834 22.9492 57.607 23.2199 58.0131 23.276C57.9587 23.0922 57.9416 22.8993 57.9627 22.7087L56.7171 21.9412Z" fill="black"/>
<path d="M56.6048 22.1732C56.7784 22.4303 57.0317 22.6233 57.3257 22.7225C57.6197 22.8216 57.9381 22.8214 58.232 22.7219C58.6139 22.6002 58.9355 22.3383 59.132 21.9889C59.1594 21.9422 59.1844 21.8941 59.2069 21.8449C59.6144 20.8916 59.744 19.2241 58.736 18.5991C58.5143 18.4599 58.2608 18.3797 57.9994 18.3661C57.738 18.3525 57.4775 18.4059 57.2426 18.5214C57.0077 18.6368 56.8062 18.8104 56.6572 19.0256C56.5083 19.2409 56.4169 19.4906 56.3917 19.7511C56.2664 20.8643 56.1411 21.5137 56.6048 22.1732Z" fill="#E4897B"/>
<path d="M58.0146 20.3443C57.993 20.4321 58.0333 20.5156 58.0938 20.5257C58.1542 20.5358 58.2118 20.4696 58.2277 20.3817C58.2435 20.2939 58.2075 20.2104 58.1499 20.2003C58.0923 20.1902 58.0304 20.2536 58.0146 20.3443Z" fill="#2E353A"/>
<path d="M59.0326 20.5187C59.011 20.6066 59.0528 20.6901 59.1104 20.6987C59.168 20.7074 59.2299 20.644 59.2458 20.5547C59.2616 20.4654 59.2256 20.3834 59.1666 20.3733C59.1075 20.3632 59.047 20.4338 59.0326 20.5187Z" fill="#2E353A"/>
<path d="M58.7014 20.5071C58.7615 20.8007 58.8618 21.0847 58.9995 21.3509C58.9301 21.3844 58.8542 21.4024 58.7771 21.4037C58.7 21.4049 58.6236 21.3894 58.5531 21.3581L58.7014 20.5071Z" fill="#DE5753"/>
<path d="M57.7554 19.9612C57.7647 19.964 57.7746 19.9645 57.7842 19.9625C57.7938 19.9605 57.8027 19.9561 57.8101 19.9496C57.858 19.9024 57.9162 19.867 57.9802 19.8462C58.0442 19.8255 58.1122 19.82 58.1787 19.8301C58.1855 19.8318 58.1926 19.8322 58.1996 19.8312C58.2065 19.8302 58.2132 19.8278 58.2192 19.8242C58.2252 19.8205 58.2305 19.8158 58.2346 19.8101C58.2388 19.8045 58.2418 19.7981 58.2435 19.7912C58.2466 19.7775 58.2443 19.7631 58.2371 19.7511C58.2298 19.739 58.2182 19.7302 58.2046 19.7264C58.121 19.7116 58.0351 19.717 57.9539 19.742C57.8728 19.7671 57.7988 19.8111 57.7381 19.8704C57.7286 19.8806 57.7233 19.894 57.7233 19.9079C57.7233 19.9218 57.7286 19.9352 57.7381 19.9453C57.7427 19.9517 57.7486 19.9571 57.7554 19.9612Z" fill="#2E353A"/>
<path d="M58.327 21.7985C58.1949 21.796 58.0654 21.7618 57.9493 21.6986C57.8332 21.6354 57.7341 21.5452 57.6603 21.4356C57.657 21.429 57.6561 21.4214 57.658 21.4143C57.6598 21.4071 57.6643 21.4009 57.6704 21.3967C57.6767 21.3929 57.6843 21.3917 57.6916 21.3933C57.6988 21.3949 57.7052 21.3992 57.7093 21.4054C57.7798 21.5054 57.8725 21.5876 57.9802 21.6456C58.0879 21.7036 58.2077 21.7357 58.3299 21.7395C58.3373 21.7395 58.3444 21.7423 58.3498 21.7474C58.3552 21.7525 58.3584 21.7594 58.3587 21.7668C58.3587 21.7738 58.356 21.7806 58.3512 21.7857C58.3464 21.7908 58.3398 21.7938 58.3328 21.7942L58.327 21.7985Z" fill="#2E353A"/>
<path d="M59.528 20.2394C59.5378 20.2429 59.5485 20.2429 59.5582 20.2394C59.565 20.2377 59.5714 20.2347 59.577 20.2305C59.5826 20.2263 59.5873 20.221 59.5908 20.2149C59.5943 20.2089 59.5965 20.2022 59.5974 20.1952C59.5982 20.1883 59.5976 20.1813 59.5957 20.1746C59.5739 20.0922 59.5326 20.0163 59.4751 19.9534C59.4177 19.8904 59.3459 19.8423 59.2659 19.8131C59.2526 19.809 59.2381 19.8104 59.2257 19.8168C59.2133 19.8233 59.204 19.8344 59.1997 19.8477C59.1956 19.8612 59.1969 19.8759 59.2033 19.8885C59.2097 19.9011 59.2208 19.9107 59.2342 19.9154C59.2966 19.94 59.3524 19.9789 59.3971 20.0289C59.4419 20.0789 59.4743 20.1386 59.492 20.2034C59.4945 20.2119 59.4991 20.2196 59.5054 20.2259C59.5117 20.2322 59.5195 20.2368 59.528 20.2394Z" fill="#2E353A"/>
<path d="M57.8 19.0253C57.489 18.8683 57.1174 19.1145 57.201 19.4443C57.309 19.8763 56.9965 20.4883 56.648 20.7043C56.648 20.7043 56.661 20.5243 56.504 20.5488C56.347 20.5733 56.2765 21.5093 56.517 21.9888C56.517 21.9888 56.121 21.5323 55.9885 20.5243C55.933 19.9758 55.97 19.4219 56.0979 18.8856C56.1608 18.6078 56.3082 18.3562 56.5198 18.1656C56.7831 17.9301 57.1076 17.7738 57.4558 17.7149L57.6891 17.6745C57.9343 17.6334 58.1861 17.6593 58.4178 17.7494L58.9448 17.9553C59.4762 18.167 59.9269 18.1944 60.307 18.0633C60.3027 18.0605 59.767 20.0102 57.8 19.0253Z" fill="#2E353A"/>
<path d="M55.7523 20.5733C55.8323 20.8445 56.0167 21.0729 56.265 21.2083C56.5933 21.384 56.841 21.109 56.8179 20.7547C56.7949 20.4408 56.599 19.9598 56.2347 19.9325C55.8704 19.9051 55.6587 20.2392 55.7523 20.5733Z" fill="#E4897B"/>
<path d="M54.2115 24.4756C54.5475 25.6832 54.7916 26.9146 54.9416 28.1591C54.9891 28.545 55.028 28.9237 55.0597 29.2909C55.1014 29.7575 55.1302 30.2067 55.1533 30.633C55.1821 31.173 55.1907 31.8109 55.1893 32.4388C55.1893 33.8787 55.1288 35.2683 55.1288 35.2683C56.2808 35.5563 59.6101 35.3648 61.4288 35.2323C61.6431 33.4933 61.699 31.7384 61.5958 29.9893C61.5353 28.8343 61.4079 27.6837 61.2142 26.5434C61.1165 25.9346 60.9809 25.3324 60.8082 24.7405C60.7413 24.5307 60.6157 24.3445 60.4462 24.2038C60.2768 24.0632 60.0705 23.9741 59.852 23.9471C59.6317 23.9197 59.3768 23.8924 59.109 23.8765C59.0053 23.8765 58.9016 23.8664 58.7965 23.865C57.9374 23.8748 57.0797 23.9344 56.2275 24.0436C56.0662 24.0623 55.9021 24.0868 55.7437 24.1127C55.2246 24.195 54.7124 24.3163 54.2115 24.4756Z" fill="#E4897B"/>
<path d="M54.2115 24.4758C54.5475 25.6834 54.7916 26.9148 54.9416 28.1593C54.9891 28.5452 55.028 28.9239 55.0597 29.2911C55.1014 29.7577 55.1302 30.207 55.1533 30.6332C55.1821 31.1732 55.1907 31.8111 55.1893 32.439C55.1893 33.879 55.1288 35.2686 55.1288 35.2686C56.2808 35.5566 59.6101 35.365 61.4288 35.2326C61.6431 33.4935 61.699 31.7387 61.5958 29.9895C61.5353 28.8345 61.4079 27.6839 61.2142 26.5436C61.1165 25.9348 60.9809 25.3326 60.8082 24.7407C60.7413 24.5309 60.6157 24.3447 60.4462 24.204C60.2768 24.0634 60.0705 23.9743 59.852 23.9473C59.6317 23.9199 59.3768 23.8926 59.109 23.8767C59.0053 23.8767 58.7979 23.7601 58.7965 23.8652C58.7965 26.2556 57.7597 25.825 56.2275 24.0438C56.1224 23.9199 55.9021 24.087 55.7437 24.1129C55.2246 24.1952 54.7124 24.3165 54.2115 24.4758Z" fill="#407BFF"/>
<path opacity="0.2" d="M54.9416 28.1591C55.8747 28.3347 57.3032 28.3549 58.8296 28.3448L54.789 27.0488L54.9416 28.1591Z" fill="black"/>
<path d="M58.628 22.3098C58.639 22.2964 58.6451 22.2796 58.6453 22.2623C58.6453 22.2409 58.6368 22.2204 58.6217 22.2053C58.6065 22.1901 58.586 22.1816 58.5646 22.1816H58.5546C58.5521 22.1586 58.5425 22.137 58.5272 22.1197C58.5422 22.1184 58.5566 22.113 58.5687 22.1039C58.5808 22.0949 58.5901 22.0826 58.5955 22.0685C58.601 22.0545 58.6024 22.0392 58.5996 22.0243C58.5968 22.0095 58.5898 21.9958 58.5796 21.9847C58.5694 21.9736 58.5562 21.9656 58.5417 21.9616C58.5271 21.9576 58.5117 21.9578 58.4973 21.9621C58.4828 21.9664 58.4699 21.9747 58.4599 21.986C58.4499 21.9973 58.4433 22.0112 58.4408 22.0261C58.4357 22.017 58.4299 22.0084 58.4235 22.0002C58.4287 21.9864 58.4317 21.9718 58.4322 21.957C58.4327 21.9352 58.4274 21.9136 58.4168 21.8944C58.4063 21.8753 58.3909 21.8593 58.3722 21.848C58.3535 21.8368 58.3321 21.8307 58.3103 21.8303C58.2884 21.83 58.2669 21.8354 58.2478 21.8461C58.2025 21.8084 58.1455 21.7875 58.0866 21.7871C58.0349 21.7871 57.9846 21.8032 57.9426 21.8332C57.9179 21.8155 57.89 21.8028 57.8605 21.7957C57.8902 21.779 57.9162 21.7563 57.9368 21.729C57.9574 21.7017 57.9721 21.6705 57.98 21.6373C58.0141 21.6237 58.045 21.6031 58.0707 21.5768C58.0952 21.5769 58.1191 21.5688 58.1384 21.5538C58.1561 21.5668 58.177 21.5747 58.1989 21.5764C58.2208 21.5782 58.2427 21.5739 58.2622 21.5639C58.2658 21.5943 58.2803 21.6224 58.3031 21.6428C58.3259 21.6632 58.3555 21.6746 58.3861 21.6748C58.4202 21.6741 58.4528 21.6602 58.4768 21.6359C58.4868 21.6437 58.4984 21.649 58.5108 21.6515C58.5232 21.6539 58.536 21.6534 58.5481 21.65C58.5603 21.6466 58.5715 21.6404 58.5808 21.6319C58.5902 21.6234 58.5974 21.6128 58.6019 21.601C58.6063 21.5892 58.608 21.5765 58.6067 21.5639C58.6054 21.5514 58.6011 21.5393 58.5943 21.5287C58.5874 21.518 58.5782 21.5092 58.5673 21.5028C58.5564 21.4964 58.5441 21.4927 58.5315 21.4919C58.522 21.4905 58.5123 21.4905 58.5027 21.4919C58.4951 21.4723 58.4827 21.455 58.4667 21.4415C58.4731 21.4254 58.4765 21.4083 58.4768 21.3911C58.477 21.3744 58.4738 21.3578 58.4675 21.3424C58.4612 21.3269 58.4519 21.3128 58.4401 21.301C58.4283 21.2892 58.4143 21.2799 58.3988 21.2736C58.3833 21.2673 58.3668 21.2642 58.3501 21.2644C58.3281 21.2646 58.3066 21.271 58.2882 21.2831C58.2801 21.2765 58.2714 21.2707 58.2622 21.2658C58.253 21.2424 58.2369 21.2224 58.2161 21.2082C58.1953 21.1941 58.1707 21.1866 58.1456 21.1866C58.1165 21.1874 58.0886 21.1981 58.0664 21.2168C58.0428 21.1916 58.0142 21.1716 57.9825 21.158C57.9508 21.1444 57.9166 21.1374 57.8821 21.1376C57.8576 21.1378 57.8334 21.1417 57.8101 21.1492C57.7734 21.1291 57.7324 21.1182 57.6906 21.1175H57.679C57.6635 21.065 57.6314 21.019 57.5875 20.9863C57.5437 20.9536 57.4904 20.936 57.4357 20.936C57.3938 20.9361 57.3526 20.947 57.3162 20.9677L57.2845 20.9576C57.2845 20.9576 57.2845 20.9461 57.2845 20.9418C57.2839 20.9028 57.2746 20.8644 57.2571 20.8295C57.2743 20.7945 57.2836 20.7561 57.2845 20.7172C57.2875 20.6315 57.2584 20.5478 57.203 20.4824C57.1475 20.417 57.0697 20.3747 56.9846 20.3637C56.8996 20.3527 56.8136 20.3738 56.7433 20.423C56.673 20.4721 56.6237 20.5457 56.6048 20.6293C56.605 20.6497 56.6074 20.67 56.612 20.6898C56.5509 20.8203 56.4871 20.9494 56.4205 21.0772C56.4198 21.0867 56.4198 21.0964 56.4205 21.106C56.347 21.0999 56.2738 21.121 56.2148 21.1653C56.1558 21.2097 56.1152 21.2741 56.1006 21.3464C56.0861 21.4188 56.0986 21.4939 56.1358 21.5576C56.173 21.6213 56.2323 21.6692 56.3024 21.692C56.2794 21.7304 56.267 21.7741 56.2665 21.8188C56.266 21.8635 56.2774 21.9076 56.2996 21.9464C56.3217 21.9852 56.3538 22.0175 56.3925 22.0399C56.4312 22.0622 56.4751 22.0739 56.5198 22.0736C56.5221 22.1069 56.5314 22.1393 56.5472 22.1687C56.5246 22.1787 56.5053 22.195 56.4918 22.2157C56.4783 22.2364 56.471 22.2606 56.4709 22.2853C56.471 22.3091 56.478 22.3324 56.4911 22.3523C56.5041 22.3722 56.5226 22.3879 56.5443 22.3976C56.5591 22.4505 56.5907 22.4971 56.6343 22.5304C56.678 22.5637 56.7313 22.5818 56.7862 22.582H56.8251C56.8366 22.5966 56.8512 22.6085 56.8679 22.6167C56.8846 22.625 56.903 22.6293 56.9216 22.6295C56.9315 22.6883 56.962 22.7418 57.0076 22.7803C57.0532 22.8188 57.111 22.8399 57.1707 22.8397C57.213 22.8391 57.2545 22.8283 57.2917 22.808C57.3098 22.8559 57.3422 22.8972 57.3844 22.9263C57.4265 22.9553 57.4766 22.9709 57.5278 22.9708C57.5732 22.9703 57.6177 22.9578 57.6566 22.9345C57.6956 22.9112 57.7277 22.878 57.7496 22.8383C57.7865 22.859 57.8282 22.8699 57.8706 22.87C57.8917 22.8282 57.9241 22.7931 57.964 22.7686C58.0039 22.744 58.0498 22.7311 58.0966 22.7311C58.1435 22.7311 58.1894 22.744 58.2293 22.7686C58.2692 22.7931 58.3016 22.8282 58.3227 22.87C58.3899 22.87 58.4544 22.8433 58.5019 22.7957C58.5495 22.7482 58.5762 22.6837 58.5762 22.6165C58.5776 22.5997 58.5776 22.5829 58.5762 22.5661C58.5923 22.5608 58.6063 22.5505 58.6164 22.5369C58.6264 22.5232 58.632 22.5068 58.6323 22.4898C58.6316 22.4682 58.6229 22.4477 58.6078 22.4322C58.6231 22.4123 58.6317 22.3881 58.6323 22.3631C58.6346 22.3452 58.6332 22.3271 58.628 22.3098ZM57.0094 22.1975C57.021 22.1901 57.0316 22.1814 57.0411 22.1716L57.0094 22.1975ZM57.5293 22.0535C57.5293 22.0535 57.5293 22.0535 57.5293 22.0463H57.5466L57.5293 22.0535Z" fill="#F0F0F0"/>
<path d="M59.8059 22.3992C59.8592 22.3909 59.9137 22.395 59.9651 22.4112C60.0166 22.4274 60.0636 22.4552 60.1025 22.4926C60.1414 22.5299 60.1711 22.5758 60.1894 22.6265C60.2076 22.6773 60.2139 22.7316 60.2077 22.7852L59.7757 24.0221H59.1306L58.952 22.7967C58.9425 22.7277 58.9603 22.6577 59.0018 22.6017C59.0432 22.5457 59.105 22.5082 59.1738 22.4972L59.8059 22.3992Z" fill="#E4897B"/>
<path d="M58.9635 21.6848L58.867 21.8864L60.0003 22.3271L60.0493 22.1831L58.9635 21.6848Z" fill="#2E353A"/>
<path d="M58.6309 22.0031L58.8094 22.0996L59.1018 21.548L58.9232 21.4746L58.6309 22.0031Z" fill="#2E353A"/>
<path opacity="0.2" d="M58.6309 22.0031L58.8094 22.0996L59.1018 21.548L58.9232 21.4746L58.6309 22.0031Z" fill="black"/>
<path d="M59.7915 21.2676L61.2661 21.6794L60.9997 22.205L59.5784 22.2799C59.5259 22.2841 59.4737 22.2691 59.4315 22.2375C59.3893 22.206 59.3602 22.1601 59.3494 22.1085C59.3106 21.8896 59.3998 21.6376 59.5539 21.3698C59.5777 21.3299 59.6135 21.2985 59.6561 21.2801C59.6988 21.2618 59.7462 21.2574 59.7915 21.2676Z" fill="#E4897B"/>
<path d="M54.2101 24.4772C54.2101 24.4772 53.8558 25.2533 54.2216 26.3881C54.6954 27.854 57.6243 28.1967 58.8714 28.3378C60.5634 28.5279 59.78 24.0178 59.78 24.0178H59.1349C59.1349 24.0178 59.0139 25.8121 58.6453 26.7351C58.0534 26.4889 57.4731 26.005 55.7307 25.0388C55.0194 24.65 54.7602 24.6327 54.2101 24.4772Z" fill="#E4897B"/>
<path opacity="0.2" d="M58.0074 26.4009C58.0938 26.4441 58.5834 26.7105 58.6453 26.7393C58.6973 26.8291 58.7356 26.9262 58.759 27.0273C58.6784 26.8473 58.1528 26.4858 58.0074 26.4009Z" fill="black"/>
<path d="M61.6419 60.0593H60.3459C60.3246 60.0592 60.304 60.0664 60.2875 60.0798C60.2709 60.0932 60.2595 60.1119 60.2552 60.1327L60.045 61.0831C60.0405 61.1033 60.0402 61.1241 60.0439 61.1444C60.0476 61.1647 60.0553 61.184 60.0665 61.2013C60.0778 61.2186 60.0924 61.2335 60.1094 61.2451C60.1265 61.2567 60.1457 61.2648 60.1659 61.2689H60.2005C60.6195 61.2689 60.9205 61.2357 61.4518 61.2357C61.7758 61.2357 62.755 61.2703 63.2029 61.2703C63.6507 61.2703 63.7083 60.8268 63.5254 60.7865C62.7032 60.6079 62.0854 60.3545 61.8205 60.1226C61.7712 60.0795 61.7073 60.0568 61.6419 60.0593Z" fill="#263238"/>
<path d="M61.7154 60.2077C61.7105 60.2063 61.7061 60.2035 61.7028 60.1997C61.6994 60.1959 61.6973 60.1911 61.6966 60.1861C61.6955 60.1813 61.696 60.1763 61.6981 60.1718C61.7002 60.1674 61.7037 60.1638 61.7082 60.1616C61.7456 60.1371 62.0912 59.9254 62.2093 59.9859C62.2226 59.9921 62.2338 60.0021 62.2415 60.0147C62.2492 60.0272 62.253 60.0418 62.2525 60.0565C62.2564 60.0817 62.2536 60.1076 62.2442 60.1314C62.2348 60.1552 62.2193 60.176 62.1992 60.1918C62.1394 60.2331 62.0671 60.2524 61.9947 60.2466C61.9005 60.2438 61.8068 60.2308 61.7154 60.2077ZM61.7888 60.1717C61.9132 60.2146 62.0494 60.2079 62.169 60.153C62.1812 60.1415 62.1906 60.1273 62.1964 60.1116C62.2021 60.0958 62.2041 60.0789 62.2021 60.0622C62.2021 60.0421 62.1934 60.032 62.1862 60.032C62.1754 60.0291 62.164 60.0291 62.1531 60.032C62.024 60.0552 61.9004 60.1026 61.7888 60.1717Z" fill="#407BFF"/>
<path d="M61.7082 60.2137C61.7047 60.2109 61.7018 60.2074 61.6998 60.2034C61.6978 60.1995 61.6967 60.1951 61.6966 60.1906C61.6966 60.1748 61.7226 59.8681 61.8406 59.7673C61.8556 59.755 61.8729 59.7459 61.8914 59.7404C61.91 59.735 61.9294 59.7333 61.9486 59.7356C61.9677 59.7356 61.9861 59.7422 62.0008 59.7542C62.0155 59.7663 62.0256 59.7831 62.0293 59.8018C62.0509 59.9141 61.8378 60.1489 61.7283 60.2094H61.7168C61.7142 60.2113 61.7113 60.2128 61.7082 60.2137ZM61.8795 59.7975C61.8046 59.8936 61.7604 60.01 61.7528 60.1316C61.8637 60.0495 61.999 59.8709 61.9846 59.8018C61.9846 59.7946 61.9846 59.7759 61.9486 59.7759H61.9357C61.915 59.7765 61.8952 59.7841 61.8795 59.7975Z" fill="#407BFF"/>
<path d="M55.6155 60.0593H54.3195C54.2982 60.0592 54.2776 60.0664 54.2611 60.0798C54.2445 60.0932 54.2331 60.1119 54.2288 60.1327L54.0186 61.0831C54.0141 61.1033 54.0138 61.1241 54.0175 61.1444C54.0212 61.1647 54.0289 61.184 54.0401 61.2013C54.0514 61.2186 54.066 61.2335 54.083 61.2451C54.1001 61.2567 54.1193 61.2648 54.1395 61.2689H54.1741C54.5931 61.2689 54.8941 61.2357 55.4254 61.2357C55.7494 61.2357 56.7286 61.2703 57.1765 61.2703C57.6243 61.2703 57.6819 60.8268 57.499 60.7865C56.6768 60.6079 56.059 60.3545 55.7941 60.1226C55.7448 60.0795 55.6809 60.0568 55.6155 60.0593Z" fill="#263238"/>
<path d="M55.689 60.2077C55.6841 60.2063 55.6797 60.2035 55.6764 60.1997C55.673 60.1959 55.6709 60.1911 55.6702 60.1861C55.6691 60.1813 55.6696 60.1763 55.6717 60.1718C55.6738 60.1674 55.6773 60.1638 55.6818 60.1616C55.7192 60.1371 56.0648 59.9254 56.1829 59.9859C56.1962 59.9921 56.2074 60.0021 56.2151 60.0147C56.2228 60.0272 56.2266 60.0418 56.2261 60.0565C56.23 60.0817 56.2272 60.1076 56.2178 60.1314C56.2084 60.1552 56.1929 60.176 56.1728 60.1918C56.113 60.2331 56.0407 60.2524 55.9683 60.2466C55.8741 60.2438 55.7804 60.2308 55.689 60.2077ZM55.7624 60.1717C55.8868 60.2146 56.023 60.2079 56.1426 60.153C56.1548 60.1415 56.1642 60.1273 56.17 60.1116C56.1757 60.0958 56.1777 60.0789 56.1757 60.0622C56.1757 60.0421 56.167 60.032 56.1598 60.032C56.149 60.0291 56.1376 60.0291 56.1267 60.032C55.9976 60.0552 55.874 60.1026 55.7624 60.1717Z" fill="#407BFF"/>
<path d="M55.6818 60.2137C55.678 60.2112 55.675 60.2077 55.6729 60.2037C55.6709 60.1996 55.67 60.1951 55.6702 60.1906C55.6702 60.1748 55.6962 59.8681 55.8142 59.7673C55.8292 59.755 55.8465 59.7459 55.865 59.7404C55.8836 59.735 55.903 59.7333 55.9222 59.7356C55.9413 59.7356 55.9597 59.7422 55.9744 59.7542C55.9892 59.7663 55.9992 59.7831 56.0029 59.8018C56.0245 59.9141 55.8114 60.1489 55.7019 60.2094H55.6904C55.6878 60.2113 55.6849 60.2128 55.6818 60.2137ZM55.8531 59.7975C55.7782 59.8936 55.734 60.01 55.7264 60.1316C55.8373 60.0495 55.9726 59.8709 55.9582 59.8018C55.9582 59.7946 55.9582 59.7759 55.9222 59.7759H55.9093C55.8886 59.7765 55.8688 59.7841 55.8531 59.7975Z" fill="#407BFF"/>
</svg>
