<svg width="98" height="86" viewBox="0 0 98 86" fill="none" xmlns="http://www.w3.org/2000/svg">
<rect x="0.5" y="0.5" width="97" height="85" rx="7.5" stroke="#E9E9E9"/>
<path d="M25.1986 75.35L29.1186 69.7H30.2186L26.2986 75.35H25.1986ZM25.1986 76V75.35L25.9986 75.14H30.1486V76H25.1986ZM25.4086 69.92V69.06H30.2186V69.7L29.4086 69.92H25.4086ZM33.1659 76.1C32.6993 76.1 32.2793 75.99 31.9059 75.77C31.5326 75.55 31.2359 75.2533 31.0159 74.88C30.7959 74.5 30.6859 74.0767 30.6859 73.61C30.6859 73.15 30.7959 72.7367 31.0159 72.37C31.2359 71.9967 31.5326 71.7 31.9059 71.48C32.2793 71.26 32.6993 71.15 33.1659 71.15C33.6259 71.15 34.0426 71.26 34.4159 71.48C34.7959 71.6933 35.0959 71.9867 35.3159 72.36C35.5359 72.7333 35.6459 73.15 35.6459 73.61C35.6459 74.0767 35.5359 74.5 35.3159 74.88C35.0959 75.2533 34.7959 75.55 34.4159 75.77C34.0426 75.99 33.6259 76.1 33.1659 76.1ZM33.1659 75.23C33.4659 75.23 33.7326 75.16 33.9659 75.02C34.1993 74.88 34.3826 74.69 34.5159 74.45C34.6493 74.2033 34.7159 73.9233 34.7159 73.61C34.7159 73.3033 34.6459 73.03 34.5059 72.79C34.3726 72.55 34.1893 72.3633 33.9559 72.23C33.7293 72.09 33.4659 72.02 33.1659 72.02C32.8659 72.02 32.5993 72.09 32.3659 72.23C32.1326 72.3633 31.9493 72.55 31.8159 72.79C31.6826 73.03 31.6159 73.3033 31.6159 73.61C31.6159 73.9233 31.6826 74.2033 31.8159 74.45C31.9493 74.69 32.1326 74.88 32.3659 75.02C32.5993 75.16 32.8659 75.23 33.1659 75.23ZM38.83 76.1C38.3633 76.1 37.9433 75.99 37.57 75.77C37.1967 75.55 36.9 75.2533 36.68 74.88C36.46 74.5 36.35 74.0767 36.35 73.61C36.35 73.15 36.46 72.7367 36.68 72.37C36.9 71.9967 37.1967 71.7 37.57 71.48C37.9433 71.26 38.3633 71.15 38.83 71.15C39.29 71.15 39.7067 71.26 40.08 71.48C40.46 71.6933 40.76 71.9867 40.98 72.36C41.2 72.7333 41.31 73.15 41.31 73.61C41.31 74.0767 41.2 74.5 40.98 74.88C40.76 75.2533 40.46 75.55 40.08 75.77C39.7067 75.99 39.29 76.1 38.83 76.1ZM38.83 75.23C39.13 75.23 39.3967 75.16 39.63 75.02C39.8633 74.88 40.0467 74.69 40.18 74.45C40.3133 74.2033 40.38 73.9233 40.38 73.61C40.38 73.3033 40.31 73.03 40.17 72.79C40.0367 72.55 39.8533 72.3633 39.62 72.23C39.3933 72.09 39.13 72.02 38.83 72.02C38.53 72.02 38.2633 72.09 38.03 72.23C37.7967 72.3633 37.6133 72.55 37.48 72.79C37.3467 73.03 37.28 73.3033 37.28 73.61C37.28 73.9233 37.3467 74.2033 37.48 74.45C37.6133 74.69 37.7967 74.88 38.03 75.02C38.2633 75.16 38.53 75.23 38.83 75.23ZM43.1141 72.98V72.19H44.9941C45.4007 72.19 45.7141 72.0867 45.9341 71.88C46.1541 71.6733 46.2641 71.3933 46.2641 71.04C46.2641 70.7067 46.1541 70.43 45.9341 70.21C45.7207 69.99 45.4107 69.88 45.0041 69.88H43.1141V69.06H45.0341C45.4741 69.06 45.8574 69.1467 46.1841 69.32C46.5107 69.4867 46.7607 69.7167 46.9341 70.01C47.1141 70.3033 47.2041 70.64 47.2041 71.02C47.2041 71.4133 47.1141 71.7567 46.9341 72.05C46.7607 72.3433 46.5107 72.5733 46.1841 72.74C45.8574 72.9 45.4741 72.98 45.0341 72.98H43.1141ZM42.4841 76V69.06H43.4241V76H42.4841ZM46.4841 76L43.9641 72.89L44.8541 72.58L47.6741 76H46.4841ZM50.5299 76.1C50.0566 76.1 49.6299 75.9933 49.2499 75.78C48.8699 75.56 48.5699 75.2633 48.3499 74.89C48.1299 74.5167 48.0199 74.0933 48.0199 73.62C48.0199 73.1533 48.1266 72.7333 48.3399 72.36C48.5599 71.9867 48.8533 71.6933 49.2199 71.48C49.5933 71.26 50.0099 71.15 50.4699 71.15C50.9099 71.15 51.2966 71.25 51.6299 71.45C51.9699 71.65 52.2333 71.9267 52.4199 72.28C52.6133 72.6333 52.7099 73.0333 52.7099 73.48C52.7099 73.5467 52.7066 73.62 52.6999 73.7C52.6933 73.7733 52.6799 73.86 52.6599 73.96H48.6499V73.21H52.1799L51.8499 73.5C51.8499 73.18 51.7933 72.91 51.6799 72.69C51.5666 72.4633 51.4066 72.29 51.1999 72.17C50.9933 72.0433 50.7433 71.98 50.4499 71.98C50.1433 71.98 49.8733 72.0467 49.6399 72.18C49.4066 72.3133 49.2266 72.5 49.0999 72.74C48.9733 72.98 48.9099 73.2633 48.9099 73.59C48.9099 73.9233 48.9766 74.2167 49.1099 74.47C49.2433 74.7167 49.4333 74.91 49.6799 75.05C49.9266 75.1833 50.2099 75.25 50.5299 75.25C50.7966 75.25 51.0399 75.2033 51.2599 75.11C51.4866 75.0167 51.6799 74.8767 51.8399 74.69L52.4199 75.28C52.1933 75.5467 51.9133 75.75 51.5799 75.89C51.2533 76.03 50.9033 76.1 50.5299 76.1ZM56.1913 76.1C55.8313 76.1 55.5046 76.0267 55.2113 75.88C54.9246 75.7267 54.6946 75.5167 54.5213 75.25C54.3479 74.9833 54.2513 74.68 54.2313 74.34V72.91C54.2513 72.5633 54.3479 72.26 54.5213 72C54.7013 71.7333 54.9346 71.5267 55.2213 71.38C55.5146 71.2267 55.8379 71.15 56.1913 71.15C56.6246 71.15 57.0146 71.26 57.3613 71.48C57.7146 71.7 57.9913 71.9967 58.1913 72.37C58.3913 72.7433 58.4913 73.1633 58.4913 73.63C58.4913 74.0967 58.3913 74.5167 58.1913 74.89C57.9913 75.2633 57.7146 75.56 57.3613 75.78C57.0146 75.9933 56.6246 76.1 56.1913 76.1ZM56.0413 75.25C56.3413 75.25 56.6046 75.18 56.8313 75.04C57.0579 74.9 57.2379 74.71 57.3713 74.47C57.5046 74.2233 57.5713 73.94 57.5713 73.62C57.5713 73.3067 57.5046 73.0267 57.3713 72.78C57.2379 72.5333 57.0579 72.3433 56.8313 72.21C56.6046 72.07 56.3446 72 56.0513 72C55.7513 72 55.4879 72.07 55.2613 72.21C55.0346 72.3433 54.8579 72.5333 54.7313 72.78C54.6046 73.0267 54.5413 73.31 54.5413 73.63C54.5413 73.9433 54.6013 74.2233 54.7213 74.47C54.8479 74.71 55.0246 74.9 55.2513 75.04C55.4846 75.18 55.7479 75.25 56.0413 75.25ZM53.6912 77.99V71.25H54.5913V72.5L54.4213 73.65L54.5913 74.81V77.99H53.6912ZM61.6816 76.1C61.2149 76.1 60.7949 75.99 60.4216 75.77C60.0482 75.55 59.7516 75.2533 59.5316 74.88C59.3116 74.5 59.2016 74.0767 59.2016 73.61C59.2016 73.15 59.3116 72.7367 59.5316 72.37C59.7516 71.9967 60.0482 71.7 60.4216 71.48C60.7949 71.26 61.2149 71.15 61.6816 71.15C62.1416 71.15 62.5582 71.26 62.9316 71.48C63.3116 71.6933 63.6116 71.9867 63.8316 72.36C64.0516 72.7333 64.1616 73.15 64.1616 73.61C64.1616 74.0767 64.0516 74.5 63.8316 74.88C63.6116 75.2533 63.3116 75.55 62.9316 75.77C62.5582 75.99 62.1416 76.1 61.6816 76.1ZM61.6816 75.23C61.9816 75.23 62.2482 75.16 62.4816 75.02C62.7149 74.88 62.8982 74.69 63.0316 74.45C63.1649 74.2033 63.2316 73.9233 63.2316 73.61C63.2316 73.3033 63.1616 73.03 63.0216 72.79C62.8882 72.55 62.7049 72.3633 62.4716 72.23C62.2449 72.09 61.9816 72.02 61.6816 72.02C61.3816 72.02 61.1149 72.09 60.8816 72.23C60.6482 72.3633 60.4649 72.55 60.3316 72.79C60.1982 73.03 60.1316 73.3033 60.1316 73.61C60.1316 73.9233 60.1982 74.2033 60.3316 74.45C60.4649 74.69 60.6482 74.88 60.8816 75.02C61.1149 75.16 61.3816 75.23 61.6816 75.23ZM65.1756 76V71.25H66.0756V76H65.1756ZM66.0756 73.29L65.7356 73.14C65.7356 72.5333 65.8756 72.05 66.1556 71.69C66.4356 71.33 66.839 71.15 67.3656 71.15C67.6056 71.15 67.8223 71.1933 68.0156 71.28C68.209 71.36 68.389 71.4967 68.5556 71.69L67.9656 72.3C67.8656 72.1933 67.7556 72.1167 67.6356 72.07C67.5156 72.0233 67.3756 72 67.2156 72C66.8823 72 66.609 72.1067 66.3956 72.32C66.1823 72.5333 66.0756 72.8567 66.0756 73.29ZM69.8998 76V69.26H70.7998V76H69.8998ZM68.7298 72.07V71.25H71.9698V72.07H68.7298Z" fill="#6D6E8C"/>
<path d="M29.988 44.6085H26.9775C26.9594 44.6085 26.942 44.6013 26.9292 44.5885C26.9163 44.5757 26.9091 44.5582 26.9091 44.5401V39.9286H26.0156C26.0027 39.9288 25.9901 39.9253 25.9791 39.9185C25.9682 39.9117 25.9595 39.9019 25.954 39.8903C25.9473 39.8794 25.9438 39.8668 25.9438 39.854C25.9438 39.8412 25.9473 39.8287 25.954 39.8178L28.4171 36.7088C28.4236 36.701 28.4318 36.6948 28.441 36.6905C28.4502 36.6862 28.4603 36.684 28.4705 36.684C28.4806 36.684 28.4907 36.6862 28.4999 36.6905C28.5091 36.6948 28.5173 36.701 28.5238 36.7088L30.9869 39.8178C30.9949 39.8278 30.9999 39.8399 31.0013 39.8527C31.0027 39.8654 31.0005 39.8783 30.9949 39.8899C30.9893 39.9014 30.9806 39.9112 30.9698 39.918C30.9589 39.9249 30.9464 39.9286 30.9336 39.9286H30.0359V44.5401C30.0366 44.5552 30.0323 44.5701 30.0236 44.5825C30.0149 44.5948 30.0024 44.604 29.988 44.6085ZM27.0487 44.4717H29.9223V39.8602C29.9223 39.842 29.9295 39.8246 29.9424 39.8118C29.9552 39.799 29.9726 39.7918 29.9907 39.7918H30.8118L28.4855 36.862L26.1592 39.7918H26.9803C26.9984 39.7918 27.0158 39.799 27.0287 39.8118C27.0415 39.8246 27.0487 39.842 27.0487 39.8602V44.4717Z" fill="#92E3A9"/>
<path d="M60.2077 44.6085H57.1972C57.179 44.6085 57.1616 44.6013 57.1488 44.5885C57.136 44.5757 57.1288 44.5582 57.1288 44.5401V39.9286H56.2311C56.2183 39.9286 56.2057 39.9249 56.1949 39.918C56.184 39.9112 56.1753 39.9014 56.1698 39.8899C56.1642 39.8783 56.162 39.8654 56.1634 39.8527C56.1648 39.8399 56.1698 39.8278 56.1777 39.8178L58.6477 36.7088C58.6542 36.701 58.6624 36.6948 58.6716 36.6905C58.6809 36.6862 58.6909 36.684 58.7011 36.684C58.7112 36.684 58.7213 36.6862 58.7305 36.6905C58.7397 36.6948 58.7479 36.701 58.7544 36.7088L61.2244 39.8178C61.2323 39.8278 61.2373 39.8399 61.2387 39.8527C61.2401 39.8654 61.2379 39.8783 61.2323 39.8899C61.2268 39.9014 61.2181 39.9112 61.2072 39.918C61.1964 39.9249 61.1838 39.9286 61.171 39.9286H60.2733V44.5401C60.2734 44.5578 60.2665 44.5748 60.2543 44.5875C60.242 44.6003 60.2253 44.6078 60.2077 44.6085ZM57.2684 44.4717H60.142V39.8602C60.142 39.842 60.1492 39.8246 60.162 39.8118C60.1749 39.799 60.1923 39.7918 60.2104 39.7918H61.0314L58.7052 36.862L56.3789 39.7918H57.1999C57.2181 39.7918 57.2355 39.799 57.2483 39.8118C57.2611 39.8246 57.2684 39.842 57.2684 39.8602V44.4717Z" fill="#92E3A9"/>
<path d="M67.8324 52.2648H64.8219C64.8038 52.2648 64.7864 52.2575 64.7735 52.2447C64.7607 52.2319 64.7535 52.2145 64.7535 52.1963V47.5848H63.8599C63.8471 47.5848 63.8345 47.5811 63.8237 47.5743C63.8129 47.5674 63.8042 47.5577 63.7986 47.5461C63.793 47.5345 63.7908 47.5217 63.7922 47.5089C63.7936 47.4962 63.7986 47.4841 63.8066 47.474L66.2697 44.3664C66.2762 44.3586 66.2844 44.3523 66.2936 44.3481C66.3028 44.3438 66.3129 44.3416 66.323 44.3416C66.3332 44.3416 66.3432 44.3438 66.3525 44.3481C66.3617 44.3523 66.3698 44.3586 66.3764 44.3664L68.8395 47.474C68.8475 47.4841 68.8524 47.4962 68.8538 47.5089C68.8552 47.5217 68.853 47.5345 68.8475 47.5461C68.8419 47.5577 68.8332 47.5674 68.8224 47.5743C68.8115 47.5811 68.799 47.5848 68.7861 47.5848H67.8885V52.1963C67.8887 52.2125 67.8832 52.2283 67.873 52.2408C67.8627 52.2534 67.8483 52.2618 67.8324 52.2648ZM64.8944 52.1279H67.7681V47.5164C67.7681 47.4983 67.7753 47.4809 67.7881 47.468C67.8009 47.4552 67.8183 47.448 67.8365 47.448H68.6575L66.3312 44.5183L64.005 47.448H64.826C64.844 47.4483 64.8612 47.4557 64.874 47.4684C64.8868 47.4812 64.8941 47.4984 64.8944 47.5164V52.1279Z" fill="#92E3A9"/>
<path d="M64.7083 34.3825H61.6979C61.6797 34.3825 61.6623 34.3753 61.6495 34.3625C61.6366 34.3496 61.6294 34.3322 61.6294 34.3141V29.7026H60.7318C60.7188 29.7027 60.706 29.699 60.6951 29.6919C60.6841 29.6849 60.6755 29.6748 60.6702 29.6629C60.6647 29.6512 60.6626 29.6383 60.6641 29.6255C60.6655 29.6127 60.6705 29.6005 60.6784 29.5904L63.1415 26.4828C63.1482 26.475 63.1565 26.4687 63.1658 26.4644C63.1751 26.4601 63.1853 26.4579 63.1956 26.4579C63.2058 26.4579 63.216 26.4601 63.2253 26.4644C63.2346 26.4687 63.2429 26.475 63.2496 26.4828L65.7127 29.5904C65.7205 29.6006 65.7254 29.6127 65.7267 29.6255C65.7281 29.6383 65.7259 29.6512 65.7204 29.6628C65.7148 29.6744 65.7062 29.6843 65.6955 29.6913C65.6847 29.6983 65.6722 29.7022 65.6594 29.7026H64.7617V34.3141C64.7621 34.3299 64.757 34.3454 64.7472 34.3578C64.7375 34.3703 64.7238 34.379 64.7083 34.3825ZM61.7704 34.2457H64.644V29.6342C64.644 29.616 64.6512 29.5986 64.664 29.5858C64.6769 29.573 64.6943 29.5658 64.7124 29.5658H65.5335L63.2072 26.6347L60.8809 29.5658H61.702C61.7201 29.5658 61.7375 29.573 61.7503 29.5858C61.7632 29.5986 61.7704 29.616 61.7704 29.6342V34.2457Z" fill="#92E3A9"/>
<path d="M36.2676 34.9203H33.2571C33.239 34.9203 33.2216 34.9131 33.2087 34.9003C33.1959 34.8874 33.1887 34.87 33.1887 34.8519V30.2404H32.2924C32.2794 30.2406 32.2667 30.2371 32.2557 30.2304C32.2446 30.2236 32.2357 30.2139 32.23 30.2023C32.2242 30.1907 32.2219 30.1777 32.2233 30.1648C32.2246 30.1519 32.2296 30.1397 32.2376 30.1295L34.7076 27.0205C34.7142 27.0128 34.7223 27.0065 34.7315 27.0022C34.7408 26.9979 34.7508 26.9957 34.761 26.9957C34.7711 26.9957 34.7812 26.9979 34.7904 27.0022C34.7996 27.0065 34.8078 27.0128 34.8143 27.0205L37.2843 30.1295C37.2922 30.1396 37.2972 30.1517 37.2986 30.1645C37.3 30.1772 37.2978 30.1901 37.2923 30.2016C37.2867 30.2132 37.278 30.223 37.2671 30.2298C37.2563 30.2367 37.2438 30.2403 37.2309 30.2404H36.3333V34.8519C36.3333 34.8696 36.3264 34.8866 36.3142 34.8993C36.3019 34.9121 36.2852 34.9196 36.2676 34.9203ZM33.3283 34.7835H36.2019V30.172C36.2019 30.1538 36.2091 30.1364 36.2219 30.1236C36.2348 30.1107 36.2522 30.1035 36.2703 30.1035H37.0913L34.7651 27.1738L32.4388 30.1035H33.2598C33.278 30.1035 33.2954 30.1107 33.3082 30.1236C33.3211 30.1364 33.3283 30.1538 33.3283 30.172V34.7835Z" fill="#92E3A9"/>
<path d="M41.057 52.2648H38.0465C38.0283 52.2648 38.0109 52.2575 37.9981 52.2447C37.9853 52.2319 37.9781 52.2145 37.9781 52.1963V47.5848H37.0804C37.0676 47.5848 37.055 47.5811 37.0442 47.5743C37.0333 47.5674 37.0246 47.5577 37.0191 47.5461C37.0135 47.5345 37.0113 47.5217 37.0127 47.5089C37.0141 47.4962 37.0191 47.4841 37.027 47.474L39.497 44.3664C39.5035 44.3586 39.5117 44.3523 39.5209 44.3481C39.5301 44.3438 39.5402 44.3416 39.5504 44.3416C39.5605 44.3416 39.5706 44.3438 39.5798 44.3481C39.589 44.3523 39.5972 44.3586 39.6037 44.3664L42.0737 47.474C42.0817 47.4842 42.0867 47.4964 42.088 47.5093C42.0894 47.5221 42.0871 47.5351 42.0814 47.5467C42.0756 47.5583 42.0667 47.5681 42.0557 47.5748C42.0446 47.5816 42.0319 47.585 42.0189 47.5848H41.1226V52.1963C41.1227 52.214 41.1158 52.231 41.1036 52.2438C41.0913 52.2565 41.0746 52.264 41.057 52.2648ZM38.1176 52.1279H40.9913V47.5164C40.9913 47.4983 40.9985 47.4809 41.0113 47.468C41.0242 47.4552 41.0416 47.448 41.0597 47.448H41.8807L39.5545 44.5183L37.2282 47.448H38.0492C38.0674 47.448 38.0848 47.4552 38.0976 47.468C38.1104 47.4809 38.1176 47.4983 38.1176 47.5164V52.1279Z" fill="#92E3A9"/>
<path d="M48.4244 60.6257C56.133 60.6257 62.382 59.9009 62.382 59.0069C62.382 58.1128 56.133 57.3881 48.4244 57.3881C40.7158 57.3881 34.4668 58.1128 34.4668 59.0069C34.4668 59.9009 40.7158 60.6257 48.4244 60.6257Z" fill="#92E3A9"/>
<path opacity="0.5" d="M48.4244 60.6257C56.133 60.6257 62.382 59.9009 62.382 59.0069C62.382 58.1128 56.133 57.3881 48.4244 57.3881C40.7158 57.3881 34.4668 58.1128 34.4668 59.0069C34.4668 59.9009 40.7158 60.6257 48.4244 60.6257Z" fill="white"/>
<path d="M57.3559 20.1553C57.5432 19.1582 57.4318 18.128 57.0359 17.1939C56.64 16.2598 55.9771 15.4634 55.1303 14.9046C54.2836 14.3457 53.2907 14.0493 52.2762 14.0525C51.2617 14.0557 50.2706 14.3584 49.4274 14.9225C48.815 13.4338 47.7049 12.2038 46.2866 11.4425C44.8683 10.6811 43.2298 10.4355 41.6506 10.7477C40.0714 11.0599 38.6495 11.9105 37.6276 13.1542C36.6057 14.398 36.0472 15.9579 36.0473 17.5676C36.0473 17.6539 36.0473 17.7387 36.0473 17.8235C35.0489 18.1081 34.1787 18.7272 33.5827 19.5771C32.9866 20.427 32.7008 21.456 32.7733 22.4916C32.8458 23.5272 33.2722 24.5063 33.9809 25.2649C34.6896 26.0234 35.6375 26.5153 36.6658 26.6579V26.7058H57.1343C57.9658 26.6769 58.7555 26.3335 59.3436 25.7449C59.9318 25.1563 60.2745 24.3663 60.3027 23.5347C60.3308 22.7031 60.0423 21.8918 59.4953 21.2647C58.9483 20.6377 58.1837 20.2417 57.3559 20.1566V20.1553Z" fill="#263238" stroke="#263238" stroke-width="0.2" stroke-linecap="round" stroke-linejoin="round"/>
<path d="M57.3559 19.5396C57.5432 18.5424 57.4318 17.5123 57.0359 16.5782C56.64 15.6441 55.9771 14.8477 55.1303 14.2888C54.2836 13.73 53.2907 13.4336 52.2762 13.4368C51.2616 13.44 50.2706 13.7426 49.4274 14.3068C48.8151 12.8182 47.7051 11.5883 46.2869 10.8269C44.8688 10.0655 43.2304 9.81985 41.6513 10.1319C40.0722 10.4439 38.6503 11.2942 37.6283 12.5377C36.6063 13.7813 36.0475 15.3409 36.0473 16.9506C36.0473 17.0368 36.0473 17.1216 36.0473 17.2064C35.0489 17.491 34.1787 18.1101 33.5827 18.96C32.9866 19.8099 32.7008 20.8389 32.7733 21.8745C32.8458 22.9101 33.2722 23.8892 33.9809 24.6478C34.6896 25.4063 35.6375 25.8982 36.6658 26.0408V26.0887H57.1343C57.9658 26.0599 58.7555 25.7164 59.3436 25.1278C59.9318 24.5392 60.2745 23.7492 60.3027 22.9176C60.3308 22.086 60.0423 21.2747 59.4953 20.6477C58.9483 20.0206 58.1837 19.6246 57.3559 19.5396Z" fill="#92E3A9" stroke="#263238" stroke-width="0.2" stroke-linecap="round" stroke-linejoin="round"/>
<path d="M50.2581 37.8829L49.3973 38.3345C49.3973 38.3345 48.4545 38.745 47.8387 39.0721C47.223 39.3991 44.1892 41.7377 44.1892 41.7377L43.5748 41.7788L43.2053 42.0251C43.2053 42.0251 42.5896 42.1482 42.5896 42.2714C42.5896 42.3945 42.7127 42.4342 42.8359 42.4342C43.0212 42.3875 43.2003 42.3191 43.3696 42.2303C43.3696 42.2303 42.9522 42.8406 43.1164 42.8406C43.3542 42.8652 43.5903 42.9031 43.8239 42.9542C44.0955 42.9036 44.3695 42.8671 44.6449 42.8447C44.8502 42.8447 45.3414 41.7377 45.3414 41.7377C45.3414 41.7377 48.8678 40.3433 49.3193 40.0149C49.7709 39.6865 51.0818 38.8668 51.0818 38.8668L50.2581 37.8829Z" fill="white" stroke="#263238" stroke-width="0.2" stroke-linecap="round" stroke-linejoin="round"/>
<path d="M53.5682 34.514L49.7244 38.0062L50.8328 39.3185L52.9647 38.4988L53.7023 34.5619L53.5682 34.514Z" fill="#92E3A9" stroke="#263238" stroke-width="0.2" stroke-linecap="round" stroke-linejoin="round"/>
<path d="M50.2375 37.5409L49.7244 38.0061L50.8328 39.3184L51.4937 39.0639L50.2375 37.5409Z" fill="#263238" stroke="#263238" stroke-width="0.2" stroke-linecap="round" stroke-linejoin="round"/>
<path d="M60.2775 56.3659C60.2775 56.3659 61.4981 57.6358 61.6226 58.2584C61.7471 58.881 61.4488 59.4298 60.9507 59.2792C60.4526 59.1287 60.0038 57.5865 59.8793 57.3129C59.7547 57.0392 59.6056 56.7395 59.6056 56.7395C59.6056 56.7395 59.9791 56.2414 60.2775 56.3659Z" fill="#92E3A9" stroke="#263238" stroke-width="0.2" stroke-linecap="round" stroke-linejoin="round"/>
<path d="M61.6335 58.3255C61.7238 58.9194 61.4296 59.4202 60.9493 59.2834C60.7756 59.2327 60.6086 59.0097 60.4595 58.736C60.7851 58.2092 61.3092 58.2379 61.6335 58.3255Z" fill="white" stroke="#263238" stroke-width="0.2" stroke-linecap="round" stroke-linejoin="round"/>
<path d="M60.2898 58.3761C60.5635 58.7497 60.911 59.1506 61.1738 59.0808C61.4365 59.011 61.5747 58.517 61.6226 58.2598C61.7457 58.881 61.4474 59.4256 60.9507 59.2765C60.7071 59.2067 60.4772 58.803 60.2898 58.3761Z" fill="white" stroke="#263238" stroke-width="0.2" stroke-linecap="round" stroke-linejoin="round"/>
<path d="M60.0284 57.0638C60.0284 57.0638 60.5758 56.7641 60.6018 56.864C60.6278 56.9639 60.079 57.2376 60.0038 57.2376C59.9285 57.2376 59.8793 57.213 60.0284 57.0638Z" fill="white" stroke="#263238" stroke-width="0.2" stroke-linecap="round" stroke-linejoin="round"/>
<path d="M60.1529 57.2376C60.1529 57.2376 60.7003 56.9392 60.7263 57.0391C60.7523 57.139 60.2036 57.4127 60.1283 57.4127C60.053 57.4127 60.0038 57.3881 60.1529 57.2376Z" fill="white" stroke="#263238" stroke-width="0.2" stroke-linecap="round" stroke-linejoin="round"/>
<path d="M60.2775 57.4127C60.2775 57.4127 60.8248 57.113 60.8508 57.2129C60.8768 57.3128 60.3281 57.5865 60.2528 57.5865C60.1776 57.5865 60.1283 57.5618 60.2775 57.4127Z" fill="white" stroke="#263238" stroke-width="0.2" stroke-linecap="round" stroke-linejoin="round"/>
<path d="M60.402 57.5866C60.402 57.5866 60.9493 57.2883 60.9753 57.3868C61.0013 57.4853 60.4526 57.7604 60.3774 57.7604C60.3021 57.7604 60.2528 57.7357 60.402 57.5866Z" fill="white" stroke="#263238" stroke-width="0.2" stroke-linecap="round" stroke-linejoin="round"/>
<path d="M50.4428 57.5087C50.4428 57.5087 50.919 58.1723 50.9614 58.5486C51.0038 58.925 50.6877 58.9345 50.2854 58.8921C49.8831 58.8497 49.4028 59.1466 48.8363 59.1316C48.2698 59.1165 47.6143 58.8689 47.929 58.5993C48.2438 58.3297 49.0648 58.108 49.2427 57.9534C49.3489 57.8604 49.4486 57.7603 49.541 57.6537L50.4428 57.5087Z" fill="#92E3A9" stroke="#263238" stroke-width="0.2" stroke-linecap="round" stroke-linejoin="round"/>
<path d="M47.929 58.5991C48.0397 58.5122 48.1611 58.4399 48.2903 58.3843C48.435 58.4618 48.5623 58.568 48.6644 58.6965C48.7666 58.825 48.8413 58.973 48.8842 59.1314H48.8349C48.2684 59.1164 47.6143 58.8687 47.929 58.5991Z" fill="white" stroke="#263238" stroke-width="0.2" stroke-linecap="round" stroke-linejoin="round"/>
<path d="M49.2947 57.8657C49.2947 57.8657 49.879 58.1709 49.7312 58.2311C49.5834 58.2913 49.1401 57.9492 49.2947 57.8657Z" fill="white" stroke="#263238" stroke-width="0.2" stroke-linecap="round" stroke-linejoin="round"/>
<path d="M49.0676 57.9272C49.0676 57.9272 49.6519 58.2324 49.5041 58.2926C49.3563 58.3528 48.9129 58.0107 49.0676 57.9272Z" fill="white" stroke="#263238" stroke-width="0.2" stroke-linecap="round" stroke-linejoin="round"/>
<path d="M48.9362 58.0177C48.9362 58.0177 49.5205 58.3229 49.3727 58.3831C49.2249 58.4433 48.7816 58.1012 48.9362 58.0177Z" fill="white" stroke="#263238" stroke-width="0.2" stroke-linecap="round" stroke-linejoin="round"/>
<path d="M48.6981 58.1271C48.6981 58.1271 49.2824 58.4322 49.1346 58.4924C48.9868 58.5526 48.5407 58.2092 48.6981 58.1271Z" fill="white" stroke="#263238" stroke-width="0.2" stroke-linecap="round" stroke-linejoin="round"/>
<path d="M47.8634 58.6826C48.2729 58.9238 48.7603 58.9959 49.2222 58.8838C49.651 58.7896 50.0866 58.7292 50.5249 58.7032C50.674 58.6988 50.8218 58.674 50.9642 58.6293C50.9532 58.9262 50.6576 58.9317 50.28 58.892C49.8776 58.8482 49.3973 59.1465 48.8308 59.1315C48.3273 59.1178 47.7525 58.918 47.8634 58.6826Z" fill="white" stroke="#263238" stroke-width="0.2" stroke-linecap="round" stroke-linejoin="round"/>
<path d="M56.4268 42.8832C56.4268 42.8832 56.1394 46.8843 56.3132 47.8545C56.487 48.8247 56.9153 51.7134 56.9153 51.7134C56.9153 51.7134 57.5639 52.1869 58.2112 53.2323C58.8584 54.2778 60.2775 56.3701 60.2775 56.3701C60.2775 56.3701 60.3281 56.7436 59.8792 56.8682C59.8792 56.8682 59.6548 56.9681 59.5303 56.8682C59.4058 56.7683 55.1514 52.8341 54.6492 52.0131C54.147 51.1921 53.4793 46.1399 53.4793 46.1399L52.832 46.0154L50.0952 51.2454L50.5714 57.603C50.5714 57.603 50.6084 57.8219 50.2977 57.9109C49.9871 57.9998 49.7367 58.0313 49.5506 57.8712C49.3645 57.7111 47.9236 50.7487 48.0454 50.4996C48.1671 50.2506 50.9286 43.4059 50.9286 43.4059L51.1516 42.8339C51.1516 42.8339 53.7666 43.1322 54.9366 42.9078C56.1066 42.6834 56.3283 42.5055 56.4268 42.8832Z" fill="#263238" stroke="#263238" stroke-width="0.2" stroke-linecap="round" stroke-linejoin="round"/>
<path d="M52.832 46.0112L51.4116 45.5884" stroke="white" stroke-width="0.2" stroke-linecap="round" stroke-linejoin="round"/>
<path d="M52.6815 46.0866L50.7397 45.8622" stroke="white" stroke-width="0.2" stroke-linecap="round" stroke-linejoin="round"/>
<path d="M55.9807 43.6577C55.9807 43.6577 54.9298 44.3282 55.9807 44.7757" stroke="white" stroke-width="0.2" stroke-linecap="round" stroke-linejoin="round"/>
<path d="M53.0058 43.9313L52.8443 44.5772L52.4119 45.0096L52.9511 45.494" stroke="white" stroke-width="0.2" stroke-linecap="round" stroke-linejoin="round"/>
<path d="M59.1622 36.2765C58.2043 35.4992 57.0152 34.5605 57.0152 34.5605C57.0152 34.5605 54.4932 34.503 53.5682 34.514L52.2682 38.6629C52.2682 38.6629 51.0736 42.7955 51.1229 42.9706C51.1721 43.1458 52.0206 43.5426 53.913 43.7671C55.8055 43.9915 56.6019 43.1951 56.6498 42.946C56.6705 42.7204 56.6538 42.493 56.6006 42.2728L57.2478 41.1274L59.3894 37.6052C59.5186 37.3937 59.5667 37.1425 59.525 36.8982C59.4832 36.6539 59.3543 36.433 59.1622 36.2765Z" fill="#92E3A9" stroke="#263238" stroke-width="0.2" stroke-linecap="round" stroke-linejoin="round"/>
<path d="M58.4137 35.6703C57.6802 35.0819 57.0193 34.5606 57.0193 34.5606C57.0193 34.5606 56.1818 34.5414 55.2965 34.5277C55.0721 35.0395 54.6848 36.0849 55.0037 36.6022C55.3923 37.2399 56.6772 37.4301 58.4137 35.6703Z" fill="#263238" stroke="#263238" stroke-width="0.2" stroke-linecap="round" stroke-linejoin="round"/>
<path d="M57.2738 30.294C57.2738 30.294 56.5527 30.4937 56.253 30.9412C55.9533 31.3887 55.083 34.0051 55.1077 34.2254C55.1323 34.4457 56.253 34.2254 56.253 34.2254C56.253 34.2254 55.4812 35.8442 55.4812 36.1179C55.4812 36.3915 55.8302 36.5421 56.2776 36.4422C56.7251 36.3423 58.2536 33.715 58.2536 33.715C58.2536 33.715 58.7065 34.2404 58.9925 34.0598C59.3209 33.8532 59.2169 33.4372 58.9679 33.4372C58.7188 33.4372 59.6644 32.4163 59.3415 31.7445C59.0185 31.0726 57.5735 30.0709 57.2738 30.294Z" fill="white" stroke="#263238" stroke-width="0.2" stroke-linecap="round" stroke-linejoin="round"/>
<path d="M57.0001 29.499C57.0001 29.499 55.6057 29.499 55.5305 30.1709C55.4552 30.8428 56.1791 31.1424 56.9755 31.0179C57.7719 30.8934 58.4944 30.9426 58.5943 31.0672C58.6942 31.1917 57.6228 31.4407 57.8718 31.6145C58.0166 31.7185 58.1918 31.7714 58.3699 31.765C58.3699 31.765 58.021 31.8636 58.0456 32.1126C58.0702 32.3617 58.2878 33.4619 58.4561 33.4619C58.6244 33.4619 58.9624 33.44 58.9624 33.44C59.2777 33.2814 59.564 33.0709 59.8095 32.8173C60.183 32.4191 60.2816 31.5721 59.8095 31.0754C59.3374 30.5787 58.9624 30.0956 58.5889 29.6974C58.2153 29.2992 57.8663 28.8764 57.1192 28.7765C56.3721 28.6766 55.9793 28.9749 57.0001 29.499Z" fill="#263238" stroke="#263238" stroke-width="0.2" stroke-linecap="round" stroke-linejoin="round"/>
<path d="M59.908 32.0728C59.9337 32.2186 59.9388 32.3674 59.923 32.5147" stroke="white" stroke-width="0.2" stroke-linecap="round" stroke-linejoin="round"/>
<path d="M57.3491 30.2843C57.3491 30.2843 55.8206 30.4335 56.3912 30.7249C56.9618 31.0164 57.8527 30.4704 58.9652 30.911C59.1528 30.9788 59.3242 31.0852 59.4682 31.2233C59.6122 31.3614 59.7257 31.5282 59.8013 31.7129" stroke="white" stroke-width="0.2" stroke-linecap="round" stroke-linejoin="round"/>
<path d="M58.2769 31.4447C58.2769 31.4447 59.3209 31.9551 59.4592 32.6968" stroke="white" stroke-width="0.2" stroke-linecap="round" stroke-linejoin="round"/>
<path d="M56.253 34.2294C56.253 34.2294 57.449 34.1555 57.7719 33.8818" stroke="#263238" stroke-width="0.2" stroke-linecap="round" stroke-linejoin="round"/>
<path d="M55.8794 33.2332C55.8794 33.2332 56.7511 33.4822 57.0001 32.9595" stroke="#263238" stroke-width="0.2" stroke-linecap="round" stroke-linejoin="round"/>
<path d="M56.851 32.8596L57.2246 33.0101" stroke="#263238" stroke-width="0.2" stroke-linecap="round" stroke-linejoin="round"/>
<path d="M56.1531 32.0879C56.1531 32.0879 55.3813 32.1878 55.3813 32.3123C55.3813 32.4368 55.8794 32.7858 55.8794 32.7858" fill="white"/>
<path d="M56.1531 32.0879C56.1531 32.0879 55.3813 32.1878 55.3813 32.3123C55.3813 32.4368 55.8794 32.7858 55.8794 32.7858" stroke="#263238" stroke-width="0.2" stroke-linecap="round" stroke-linejoin="round"/>
<path d="M56.2516 31.8485C56.2161 31.9566 56.1435 32.0291 56.0888 32.0113C56.0341 31.9935 56.0204 31.8923 56.0573 31.7842C56.0943 31.6761 56.1654 31.6035 56.2202 31.6213C56.2749 31.6391 56.2886 31.7418 56.2516 31.8485Z" fill="#263238"/>
<path d="M56.9085 32.181C56.8715 32.2891 56.799 32.3616 56.7456 32.3438C56.6923 32.326 56.6772 32.2234 56.7128 32.1167C56.7484 32.0099 56.8223 31.936 56.8756 31.9538C56.929 31.9716 56.9427 32.0729 56.9085 32.181Z" fill="#263238"/>
<path d="M56.9427 31.4735C56.9427 31.4735 57.3204 31.5077 57.2848 32.0209L56.9427 31.4735Z" fill="#263238" stroke="#263238" stroke-width="0.2" stroke-linecap="round" stroke-linejoin="round"/>
<path d="M56.6006 31.2339C56.6006 31.2339 56.3939 30.9602 56.1203 31.3366L56.6006 31.2339Z" fill="#263238" stroke="#263238" stroke-width="0.2" stroke-linecap="round" stroke-linejoin="round"/>
<path d="M49.7285 22.126L46.1241 17.5897L42.5211 22.126H43.9306V28.9556H48.319V22.126H49.7285Z" fill="#263238" stroke="#263238" stroke-width="0.2" stroke-linecap="round" stroke-linejoin="round"/>
<path d="M49.7285 21.8318L46.1241 17.2955L42.5211 21.8318H43.9306V28.6614H48.319V21.8318H49.7285Z" fill="white" stroke="#263238" stroke-width="0.2" stroke-linecap="round" stroke-linejoin="round"/>
<path d="M53.1536 27.891H38.4967V42.5479H53.1536V27.891Z" fill="white" stroke="#263238" stroke-width="0.2" stroke-linecap="round" stroke-linejoin="round"/>
<path d="M52.4721 28.5725H39.1782V41.8665H52.4721V28.5725Z" fill="#263238" stroke="#263238" stroke-width="0.2" stroke-linecap="round" stroke-linejoin="round"/>
<path d="M49.3891 33.0485L46.2883 36.2888L43.8745 35.6128C43.7555 35.5797 43.6307 35.5738 43.5091 35.5956C43.3876 35.6174 43.2725 35.6663 43.1725 35.7387L39.1782 38.6411V41.8719H52.4721V35.0299L50.5701 33.0471C50.4934 32.9679 50.4016 32.905 50.3001 32.8621C50.1986 32.8192 50.0895 32.7971 49.9793 32.7972C49.8691 32.7974 49.7601 32.8197 49.6587 32.8628C49.5573 32.906 49.4656 32.9691 49.3891 33.0485Z" fill="white" stroke="#263238" stroke-width="0.2" stroke-linecap="round" stroke-linejoin="round"/>
<path d="M45.6591 32.7859C46.011 31.9288 45.6014 30.9487 44.7443 30.5968C43.8871 30.2449 42.9071 30.6545 42.5552 31.5116C42.2033 32.3688 42.6129 33.3489 43.47 33.7007C44.3271 34.0526 45.3072 33.643 45.6591 32.7859Z" fill="white" stroke="#263238" stroke-width="0.2" stroke-linecap="round" stroke-linejoin="round"/>
<path d="M57.3313 36.9101L53.6681 40.676L48.085 42.214C48.085 42.214 47.5869 41.6352 47.2284 41.6311C46.8699 41.627 45.715 42.0416 45.715 42.0416C45.715 42.0416 45.5686 42.4001 45.8518 42.4029C46.1431 42.3824 46.432 42.3366 46.7153 42.266L45.132 42.5397C45.1511 42.6603 45.2124 42.7701 45.3048 42.8498C45.3972 42.9295 45.5149 42.9738 45.637 42.9749H46.3499L47.5692 43.1295L48.7227 42.7806C48.7227 42.7806 54.1881 42.1853 54.4768 42.1155C54.7656 42.0457 59.4031 38.0651 59.4031 38.0651C59.4031 38.0651 59.9271 37.6039 59.7274 37.0689C59.5276 36.5338 58.5054 36.1548 58.5054 36.1548" fill="white"/>
<path d="M57.3313 36.9101L53.6681 40.676L48.085 42.214C48.085 42.214 47.5869 41.6352 47.2284 41.6311C46.8699 41.627 45.715 42.0416 45.715 42.0416C45.715 42.0416 45.5686 42.4001 45.8518 42.4029C46.1431 42.3824 46.432 42.3366 46.7153 42.266L45.132 42.5397C45.1511 42.6603 45.2124 42.7701 45.3048 42.8498C45.3972 42.9295 45.5149 42.9738 45.637 42.9749H46.3499L47.5692 43.1295L48.7227 42.7806C48.7227 42.7806 54.1881 42.1853 54.4768 42.1155C54.7656 42.0457 59.4031 38.0651 59.4031 38.0651C59.4031 38.0651 59.9271 37.6039 59.7274 37.0689C59.5276 36.5338 58.5054 36.1548 58.5054 36.1548" stroke="#263238" stroke-width="0.2" stroke-linecap="round" stroke-linejoin="round"/>
<path d="M56.6704 37.3029L53.8775 40.104L55.9506 41.5996L59.5522 38.2074C59.728 38.0428 59.8422 37.823 59.8758 37.5845C59.9094 37.346 59.8604 37.1032 59.7369 36.8965L59.7246 36.8773C59.4663 36.4677 59.101 36.1365 58.6682 35.9194" fill="#92E3A9"/>
<path d="M56.6704 37.3029L53.8775 40.104L55.9506 41.5996L59.5522 38.2074C59.728 38.0428 59.8422 37.823 59.8758 37.5845C59.9094 37.346 59.8604 37.1032 59.7369 36.8965L59.7246 36.8773C59.4663 36.4677 59.101 36.1365 58.6682 35.9194" stroke="#263238" stroke-width="0.2" stroke-linecap="round" stroke-linejoin="round"/>
<path d="M55.9561 41.5997L56.4432 41.1399L54.3591 39.621L53.8775 40.104L55.9561 41.5997Z" fill="#263238" stroke="#263238" stroke-width="0.2" stroke-linecap="round" stroke-linejoin="round"/>
<path d="M42.5896 42.2714L43.1164 42.8406L43.6268 42.8967L42.8345 42.218L42.5896 42.2714Z" fill="white" stroke="#263238" stroke-width="0.2" stroke-linecap="round" stroke-linejoin="round"/>
<path d="M43.5803 42.2714L44.1071 42.8406L44.6162 42.8967L43.8239 42.218L43.5803 42.2714Z" fill="white" stroke="#263238" stroke-width="0.2" stroke-linecap="round" stroke-linejoin="round"/>
<path d="M43.6268 42.8969L43.0316 42.1333H43.3997L44.1359 42.8969L43.8239 42.9543L43.6268 42.8969Z" fill="white" stroke="#263238" stroke-width="0.2" stroke-linecap="round" stroke-linejoin="round"/>
<path d="M42.3816 42.3317L42.6361 42.812L43.1164 42.8407L42.5896 42.2715L42.3816 42.3317Z" fill="white" stroke="#263238" stroke-width="0.2" stroke-linecap="round" stroke-linejoin="round"/>
</svg>
