<svg width="24" height="24" viewBox="0 0 24 24" fill="none" xmlns="http://www.w3.org/2000/svg">
<path d="M10.1596 11.3939C10.1596 10.897 10.5482 10.4848 11.0167 10.4848H12.4452V8.9697C12.4452 8.47273 12.8338 8.06061 13.3023 8.06061C13.7709 8.06061 14.1594 8.47273 14.1594 8.9697V10.4848H15.5879C16.0565 10.4848 16.445 10.897 16.445 11.3939C16.445 11.8909 16.0565 12.303 15.5879 12.303H14.1594V13.8182C14.1594 14.3152 13.7709 14.7273 13.3023 14.7273C12.8338 14.7273 12.4452 14.3152 12.4452 13.8182V12.303H11.0167C10.5482 12.303 10.1596 11.8909 10.1596 11.3939ZM11.1424 20.1818C11.1424 21.1879 10.3767 22 9.42822 22C8.47969 22 7.71401 21.1879 7.71401 20.1818C7.71401 19.1758 8.47969 18.3636 9.42822 18.3636C10.3767 18.3636 11.1424 19.1758 11.1424 20.1818ZM18.5706 20.1818C18.5706 21.1879 17.805 22 16.8564 22C15.9079 22 15.1422 21.1879 15.1422 20.1818C15.1422 19.1758 15.9079 18.3636 16.8564 18.3636C17.805 18.3636 18.5706 19.1758 18.5706 20.1818ZM21.9762 6.76364L19.6906 16.4606C19.6445 16.6582 19.5373 16.8337 19.386 16.959C19.2348 17.0842 19.0482 17.152 18.8563 17.1515H7.42831C7.0169 17.1515 6.66264 16.8364 6.58264 16.4L4.42274 3.81818H2.8571C2.38855 3.81818 2 3.40606 2 2.90909C2 2.41212 2.38855 2 2.8571 2H5.14271C5.55412 2 5.90839 2.31515 5.98838 2.75152L6.47979 5.63636H21.1419C21.2719 5.63694 21.4001 5.66869 21.5168 5.72924C21.6336 5.78979 21.7359 5.87756 21.8161 5.98598C21.8964 6.09441 21.9525 6.22069 21.9802 6.35536C22.0079 6.49003 22.0065 6.6296 21.9762 6.76364ZM20.0449 7.45455H6.78834L8.13685 15.3333H18.1821L20.0334 7.45455H20.0449Z" fill="#5EB151"/>
</svg>
