<svg width="22" height="22" viewBox="0 0 22 22" fill="none" xmlns="http://www.w3.org/2000/svg">
<g clip-path="url(#clip0_34_1752)">
<path d="M11 22C16.7376 22 21.3889 17.3487 21.3889 11.6111C21.3889 5.87349 16.7376 1.22223 11 1.22223C5.26238 1.22223 0.611115 5.87349 0.611115 11.6111C0.611115 17.3487 5.26238 22 11 22Z" fill="#F4900C"/>
<path d="M11 20.7778C16.7376 20.7778 21.3889 16.1265 21.3889 10.3889C21.3889 4.65126 16.7376 0 11 0C5.26238 0 0.611115 4.65126 0.611115 10.3889C0.611115 16.1265 5.26238 20.7778 11 20.7778Z" fill="#FFCC4D"/>
<path d="M11 19.5556C15.7251 19.5556 19.5556 15.7251 19.5556 11C19.5556 6.27491 15.7251 2.44446 11 2.44446C6.2749 2.44446 2.44444 6.27491 2.44444 11C2.44444 15.7251 6.2749 19.5556 11 19.5556Z" fill="#FFE8B6"/>
<path d="M11 18.9444C15.7251 18.9444 19.5556 15.114 19.5556 10.3889C19.5556 5.66377 15.7251 1.83331 11 1.83331C6.2749 1.83331 2.44444 5.66377 2.44444 10.3889C2.44444 15.114 6.2749 18.9444 11 18.9444Z" fill="#FFAC33"/>
<path d="M5.83183 6.63425C5.83183 6.30119 6.15878 6.16797 6.15878 6.16797L10.9731 3.90686L15.8333 6.16797C15.8333 6.16797 16.1682 6.24253 16.1682 6.63669V7.02842H5.83183V6.63425Z" fill="#FFE8B6"/>
<path d="M15.8455 7.84425C15.8455 7.48736 15.5369 7.1983 15.1568 7.1983H6.80105C6.42033 7.1983 6.1551 7.48736 6.1551 7.84425C6.1551 8.08686 6.27977 8.29586 6.47838 8.40647V8.81347H7.77027V8.49019H9.06216V8.81347H10.354V8.49019H11.6459V8.81347H12.9378V8.49019H14.2297V8.81347H15.5222V8.38997C15.7159 8.27508 15.8455 8.07403 15.8455 7.84425ZM16.8141 14.6667C16.8141 14.7952 16.763 14.9185 16.6722 15.0094C16.5813 15.1002 16.458 15.1513 16.3295 15.1513H5.67049C5.54197 15.1513 5.4187 15.1002 5.32782 15.0094C5.23694 14.9185 5.18588 14.7952 5.18588 14.6667C5.18588 14.5382 5.23694 14.4149 5.32782 14.324C5.4187 14.2331 5.54197 14.1821 5.67049 14.1821H16.3301C16.5972 14.1821 16.8141 14.399 16.8141 14.6667Z" fill="#F4900C"/>
<path d="M16.1682 7.45554C16.1682 7.54128 16.1341 7.62351 16.0735 7.68413C16.0128 7.74476 15.9306 7.77882 15.8449 7.77882H6.1545C6.07219 7.77376 5.99492 7.73749 5.93843 7.67742C5.88194 7.61735 5.85049 7.538 5.85049 7.45554C5.85049 7.37308 5.88194 7.29373 5.93843 7.23366C5.99492 7.17359 6.07219 7.13733 6.1545 7.13226L15.8449 7.1341C15.8872 7.13394 15.9292 7.14213 15.9684 7.1582C16.0075 7.17428 16.0432 7.19792 16.0732 7.22778C16.1032 7.25763 16.1271 7.29312 16.1434 7.3322C16.1597 7.37128 16.1681 7.4132 16.1682 7.45554ZM7.447 7.83076H14.5536V8.55554H7.447V7.83076Z" fill="#F4900C"/>
<path d="M7.76967 12.7288C7.76967 13.0857 7.57656 13.3748 7.33884 13.3748H6.90801C6.67028 13.3748 6.47717 13.0857 6.47717 12.7288V7.83137C6.47717 7.47448 6.67028 7.18542 6.90801 7.18542H7.33884C7.57656 7.18542 7.76967 7.47448 7.76967 7.83137V12.7288ZM15.5222 12.7288C15.5222 13.0857 15.3297 13.3748 15.0914 13.3748H14.6606C14.4228 13.3748 14.2297 13.0857 14.2297 12.7288V7.83137C14.2297 7.47448 14.4222 7.18542 14.6606 7.18542H15.0914C15.3291 7.18542 15.5222 7.47448 15.5222 7.83137V12.7288ZM10.3541 12.7288C10.3541 13.0857 10.161 13.3748 9.92323 13.3748H9.4924C9.25467 13.3748 9.06156 13.0857 9.06156 12.7288V7.83137C9.06156 7.47448 9.25467 7.18542 9.4924 7.18542H9.92323C10.161 7.18542 10.3541 7.47448 10.3541 7.83137V12.7288ZM12.9378 12.7288C12.9378 13.0857 12.7447 13.3748 12.507 13.3748H12.0768C11.8391 13.3748 11.646 13.0857 11.646 12.7288V7.83137C11.646 7.47448 11.8391 7.18542 12.0768 7.18542H12.507C12.7447 7.18542 12.9378 7.47448 12.9378 7.83137V12.7288Z" fill="#FFD983"/>
<path d="M15.8455 13.0515C15.8455 13.4084 15.5564 13.6975 15.1996 13.6975H6.80105C6.62974 13.6975 6.46544 13.6294 6.3443 13.5083C6.22316 13.3871 6.15511 13.2228 6.15511 13.0515C6.15511 12.8802 6.22316 12.7159 6.3443 12.5948C6.46544 12.4736 6.62974 12.4056 6.80105 12.4056H15.1996C15.5558 12.4056 15.8455 12.6946 15.8455 13.0515Z" fill="#FFCC4D"/>
<path d="M16.4914 13.6975C16.4914 14.0543 16.2024 14.3434 15.8455 14.3434H6.1545C5.98319 14.3434 5.81889 14.2753 5.69775 14.1542C5.57662 14.0331 5.50856 13.8688 5.50856 13.6975C5.50856 13.5261 5.57662 13.3618 5.69775 13.2407C5.81889 13.1196 5.98319 13.0515 6.1545 13.0515H15.8449C16.2018 13.0515 16.4914 13.3406 16.4914 13.6975Z" fill="#FFD983"/>
<path d="M16.8141 14.1821C16.8141 14.3106 16.763 14.4339 16.6722 14.5247C16.5813 14.6156 16.458 14.6667 16.3295 14.6667H5.67049C5.60685 14.6667 5.54384 14.6541 5.48504 14.6298C5.42624 14.6054 5.37282 14.5697 5.32782 14.5247C5.28282 14.4797 5.24713 14.4263 5.22277 14.3675C5.19842 14.3087 5.18588 14.2457 5.18588 14.1821C5.18588 14.1184 5.19842 14.0554 5.22277 13.9966C5.24713 13.9378 5.28282 13.8844 5.32782 13.8394C5.37282 13.7944 5.42624 13.7587 5.48504 13.7343C5.54384 13.71 5.60685 13.6974 5.67049 13.6974H16.3301C16.5972 13.6974 16.8141 13.9144 16.8141 14.1821Z" fill="#FFD983"/>
<path d="M15.8455 7.50813C15.8455 7.15124 15.5369 6.86218 15.1568 6.86218H6.80105C6.42033 6.86218 6.15511 7.15124 6.15511 7.50813C6.15511 7.75074 6.27977 7.95974 6.47838 8.07035V8.47735H7.77027V8.15407H9.06216V8.47735H10.3541V8.15407H11.6459V8.47735H12.9378V8.15407H14.2297V8.47735H15.5222V8.05385C15.7159 7.93896 15.8455 7.73791 15.8455 7.50813Z" fill="#FFCC4D"/>
<path d="M5.83183 7.00516C5.83183 6.6721 6.15878 6.53888 6.15878 6.53888L10.9731 4.27777L15.8333 6.53888C15.8333 6.53888 16.1682 6.61344 16.1682 7.0076V7.18544H5.83183V7.00516Z" fill="#FFD983"/>
<path d="M11 5.09851C11 5.09851 7.66639 6.66968 7.33395 6.81145C7.00089 6.95262 7.11211 7.18484 7.33456 7.18484H14.6496C14.993 7.18484 14.9117 6.92268 14.6392 6.7809C14.3666 6.63973 11 5.09851 11 5.09851Z" fill="#FFAC33"/>
<path d="M16.1682 7.18485C16.1682 7.27059 16.1341 7.35282 16.0735 7.41344C16.0128 7.47407 15.9306 7.50813 15.8449 7.50813H6.1545C6.07219 7.50307 5.99492 7.4668 5.93843 7.40673C5.88194 7.34666 5.85049 7.26731 5.85049 7.18485C5.85049 7.10239 5.88194 7.02304 5.93843 6.96297C5.99492 6.9029 6.07219 6.86664 6.1545 6.86157L15.8449 6.86341C15.8872 6.86324 15.9292 6.87144 15.9684 6.88751C16.0075 6.90359 16.0432 6.92723 16.0732 6.95708C16.1032 6.98694 16.1271 7.02243 16.1434 7.06151C16.1597 7.10059 16.1681 7.14251 16.1682 7.18485Z" fill="#FFD983"/>
</g>
<defs>
<clipPath id="clip0_34_1752">
<rect width="22" height="22" fill="white"/>
</clipPath>
</defs>
</svg>
