<svg width="14" height="14" viewBox="0 0 14 14" fill="none" xmlns="http://www.w3.org/2000/svg">
<path fill-rule="evenodd" clip-rule="evenodd" d="M5.59533 1.86665C5.50359 1.94966 5.40718 2.02737 5.30658 2.0994C5.13275 2.21607 4.93733 2.29657 4.732 2.3374C4.64275 2.3549 4.54941 2.36248 4.36333 2.37707C3.89608 2.4144 3.66216 2.43307 3.46733 2.5019C3.24455 2.58056 3.04221 2.70809 2.87516 2.87515C2.7081 3.0422 2.58057 3.24454 2.50191 3.46732C2.43308 3.66215 2.41441 3.89607 2.37708 4.36332C2.37072 4.48685 2.35747 4.60993 2.33741 4.73198C2.29658 4.93732 2.21608 5.13273 2.09941 5.30657C2.04866 5.3824 1.988 5.45357 1.86666 5.59532C1.56275 5.95232 1.4105 6.13082 1.32125 6.31748C1.11533 6.74915 1.11533 7.25082 1.32125 7.68248C1.4105 7.86915 1.56275 8.04765 1.86666 8.40465C1.988 8.5464 2.04866 8.61757 2.09941 8.6934C2.21608 8.86723 2.29658 9.06265 2.33741 9.26798C2.35491 9.35723 2.3625 9.45057 2.37708 9.63665C2.41441 10.1039 2.43308 10.3378 2.50191 10.5326C2.58057 10.7554 2.7081 10.9578 2.87516 11.1248C3.04221 11.2919 3.24455 11.4194 3.46733 11.4981C3.66216 11.5669 3.89608 11.5856 4.36333 11.6229C4.54941 11.6375 4.64275 11.6451 4.732 11.6626C4.93733 11.7034 5.13275 11.7845 5.30658 11.9006C5.38241 11.9513 5.45358 12.012 5.59533 12.1333C5.95233 12.4372 6.13083 12.5895 6.3175 12.6787C6.74916 12.8847 7.25083 12.8847 7.6825 12.6787C7.86916 12.5895 8.04766 12.4372 8.40466 12.1333C8.54641 12.012 8.61758 11.9513 8.69341 11.9006C8.86725 11.7839 9.06266 11.7034 9.268 11.6626C9.35725 11.6451 9.45058 11.6375 9.63666 11.6229C10.1039 11.5856 10.3378 11.5669 10.5327 11.4981C10.7554 11.4194 10.9578 11.2919 11.1248 11.1248C11.2919 10.9578 11.4194 10.7554 11.4981 10.5326C11.5669 10.3378 11.5856 10.1039 11.6229 9.63665C11.6375 9.45057 11.6451 9.35723 11.6626 9.26798C11.7034 9.06265 11.7845 8.86723 11.9006 8.6934C11.9513 8.61757 12.012 8.5464 12.1333 8.40465C12.4372 8.04765 12.5895 7.86915 12.6787 7.68248C12.8847 7.25082 12.8847 6.74915 12.6787 6.31748C12.5895 6.13082 12.4372 5.95232 12.1333 5.59532C12.0503 5.50357 11.9726 5.40717 11.9006 5.30657C11.784 5.13267 11.7031 4.93737 11.6626 4.73198C11.6425 4.60993 11.6293 4.48685 11.6229 4.36332C11.5856 3.89607 11.5669 3.66215 11.4981 3.46732C11.4194 3.24454 11.2919 3.0422 11.1248 2.87515C10.9578 2.70809 10.7554 2.58056 10.5327 2.5019C10.3378 2.43307 10.1039 2.4144 9.63666 2.37707C9.51313 2.3707 9.39005 2.35746 9.268 2.3374C9.06261 2.29685 8.86731 2.21596 8.69341 2.0994C8.59293 2.02722 8.49653 1.94952 8.40466 1.86665C8.04766 1.56273 7.86916 1.41048 7.6825 1.32123C7.46939 1.21937 7.23619 1.1665 7 1.1665C6.7638 1.1665 6.5306 1.21937 6.3175 1.32123C6.13083 1.41048 5.95233 1.56273 5.59533 1.86665ZM9.55091 5.7534C9.63336 5.66316 9.67783 5.54461 9.67508 5.42241C9.67232 5.30022 9.62255 5.18379 9.53612 5.09736C9.44969 5.01093 9.33326 4.96116 9.21107 4.9584C9.08887 4.95565 8.97032 5.00012 8.88008 5.08257L6.05091 7.91173L5.11991 6.98132C5.02968 6.89887 4.91112 6.8544 4.78893 6.85715C4.66673 6.85991 4.5503 6.90968 4.46387 6.99611C4.37744 7.08254 4.32767 7.19897 4.32492 7.32116C4.32216 7.44336 4.36663 7.56191 4.44908 7.65215L5.71491 8.91798C5.80393 9.00682 5.92456 9.05672 6.05033 9.05672C6.1761 9.05672 6.29673 9.00682 6.38575 8.91798L9.55091 5.7534Z" fill="#5EB151"/>
</svg>
