<svg width="30" height="27" viewBox="0 0 30 27" fill="none" xmlns="http://www.w3.org/2000/svg">
<path d="M18.5327 24.5898L11.0327 22.0125L5.22021 24.2216C4.80355 24.3853 4.41813 24.3394 4.06396 24.0842C3.7098 23.8289 3.53271 23.4861 3.53271 23.0557V5.8739C3.53271 5.60799 3.61105 5.37277 3.76771 5.16822C3.92438 4.96367 4.13771 4.81027 4.40771 4.70799L11.0327 2.4989L18.5327 5.07617L24.3452 2.86708C24.7619 2.70345 25.1473 2.74967 25.5015 3.00577C25.8556 3.26186 26.0327 3.60427 26.0327 4.03299V21.2148C26.0327 21.4807 25.9548 21.7159 25.799 21.9205C25.6431 22.125 25.4294 22.2784 25.1577 22.3807L18.5327 24.5898ZM17.2827 21.583V7.2239L12.2827 5.50572V19.8648L17.2827 21.583Z" fill="#5EB151"/>
</svg>
