<svg width="31" height="27" viewBox="0 0 31 27" fill="none" xmlns="http://www.w3.org/2000/svg">
<path d="M18.6196 24.5898L11.1196 22.0125L5.30706 24.2216C4.89039 24.3853 4.50498 24.3394 4.15081 24.0842C3.79664 23.8289 3.61956 23.4861 3.61956 23.0557V5.8739C3.61956 5.60799 3.69789 5.37277 3.85456 5.16822C4.01123 4.96367 4.22456 4.81027 4.49456 4.70799L11.1196 2.4989L18.6196 5.07617L24.4321 2.86708C24.8487 2.70345 25.2341 2.74967 25.5883 3.00577C25.9425 3.26186 26.1196 3.60426 26.1196 4.03299V21.2148C26.1196 21.4807 26.0416 21.7159 25.8858 21.9205C25.73 22.125 25.5162 22.2784 25.2446 22.3807L18.6196 24.5898ZM17.3696 21.583V7.2239L12.3696 5.50572V19.8648L17.3696 21.583Z" fill="#677487"/>
</svg>
