<svg width="29" height="30" viewBox="0 0 29 30" fill="none" xmlns="http://www.w3.org/2000/svg">
<path fill-rule="evenodd" clip-rule="evenodd" d="M14.5 2.93469C21.1736 2.93469 26.5833 8.3444 26.5833 15.018C26.5833 21.6916 21.1736 27.1014 14.5 27.1014C7.82637 27.1014 2.41667 21.6916 2.41667 15.018C2.41667 8.3444 7.82637 2.93469 14.5 2.93469ZM4.91912 16.3121C5.20309 18.41 6.16752 20.3567 7.66443 21.8536C9.16134 23.3505 11.1081 24.3149 13.2059 24.5989C12.9221 22.5007 11.9576 20.5536 10.4604 19.0564C8.96325 17.5592 7.01613 16.5947 4.91792 16.3109M24.0797 16.3109C21.9818 16.5949 20.0351 17.5593 18.5382 19.0563C17.0413 20.5532 16.0769 22.4999 15.7929 24.5977C17.8907 24.3137 19.8374 23.3493 21.3344 21.8524C22.8313 20.3555 23.7957 18.4088 24.0797 16.3109ZM14.5 9.41619C13.312 11.8576 11.3396 13.8301 8.89817 15.018C11.3396 16.206 13.312 18.1784 14.5 20.6199C15.688 18.1784 17.6604 16.206 20.1018 15.018C17.6604 13.8301 15.688 11.8576 14.5 9.41619ZM13.2059 5.43715C11.1077 5.72113 9.16072 6.68569 7.66359 8.18282C6.16645 9.67996 5.20189 11.627 4.91792 13.7251C7.01653 13.4415 8.96405 12.4769 10.4615 10.9795C11.9589 9.48208 12.9235 7.53456 13.2071 5.43594M15.7953 5.43594C16.0793 7.53376 17.0437 9.48047 18.5406 10.9774C20.0376 12.4743 21.9843 13.4387 24.0821 13.7227C23.798 11.6245 22.8332 9.67754 21.3358 8.18059C19.8384 6.68363 17.8912 5.71942 15.7929 5.43594" fill="#677487"/>
</svg>
