<svg width="28" height="28" viewBox="0 0 28 28" fill="none" xmlns="http://www.w3.org/2000/svg">
<g clip-path="url(#clip0_69_91)">
<path d="M23.3334 25.6666H21.0001V23.3333C21.0001 22.405 20.6313 21.5148 19.975 20.8584C19.3186 20.202 18.4283 19.8333 17.5001 19.8333H10.5001C9.57182 19.8333 8.68159 20.202 8.02521 20.8584C7.36883 21.5148 7.00008 22.405 7.00008 23.3333V25.6666H4.66675V23.3333C4.66675 21.7862 5.28133 20.3025 6.37529 19.2085C7.46925 18.1145 8.95299 17.5 10.5001 17.5H17.5001C19.0472 17.5 20.5309 18.1145 21.6249 19.2085C22.7188 20.3025 23.3334 21.7862 23.3334 23.3333V25.6666ZM14.0001 15.1666C13.0808 15.1666 12.1706 14.9856 11.3213 14.6338C10.472 14.282 9.70034 13.7664 9.05033 13.1164C8.40032 12.4664 7.88471 11.6947 7.53292 10.8454C7.18114 9.99613 7.00008 9.08588 7.00008 8.16663C7.00008 7.24737 7.18114 6.33712 7.53292 5.48784C7.88471 4.63856 8.40032 3.86689 9.05033 3.21688C9.70034 2.56687 10.472 2.05125 11.3213 1.69947C12.1706 1.34769 13.0808 1.16663 14.0001 1.16663C15.8566 1.16663 17.6371 1.90412 18.9498 3.21688C20.2626 4.52963 21.0001 6.31011 21.0001 8.16663C21.0001 10.0231 20.2626 11.8036 18.9498 13.1164C17.6371 14.4291 15.8566 15.1666 14.0001 15.1666V15.1666ZM14.0001 12.8333C15.2378 12.8333 16.4247 12.3416 17.2999 11.4665C18.1751 10.5913 18.6667 9.4043 18.6667 8.16663C18.6667 6.92895 18.1751 5.74196 17.2999 4.86679C16.4247 3.99162 15.2378 3.49996 14.0001 3.49996C12.7624 3.49996 11.5754 3.99162 10.7002 4.86679C9.82508 5.74196 9.33342 6.92895 9.33342 8.16663C9.33342 9.4043 9.82508 10.5913 10.7002 11.4665C11.5754 12.3416 12.7624 12.8333 14.0001 12.8333V12.8333Z" fill="#5EB151"/>
</g>
<defs>
<clipPath id="clip0_69_91">
<rect width="28" height="28" fill="white"/>
</clipPath>
</defs>
</svg>
